M48
; DRILL file {KiCad 9.0.7} date 2026-03-30T14:18:12-0600
; FORMAT={-:-/ absolute / metric / decimal}
; #@! TF.CreationDate,2026-03-30T14:18:12-06:00
; #@! TF.GenerationSoftware,Kicad,Pcbnew,9.0.7
; #@! TF.FileFunction,MixedPlating,1,2
FMAT,2
METRIC
; #@! TA.AperFunction,Plated,PTH,ViaDrill
T1C0.300
; #@! TA.AperFunction,Plated,PTH,ComponentDrill
T2C1.016
; #@! TA.AperFunction,NonPlated,NPTH,ComponentDrill
T3C3.100
%
G90
G05
T1
X0.952Y20.002
X0.952Y16.828
X0.952Y8.572
X0.952Y5.397
X3.675Y13.2
X4.763Y18.732
X4.763Y17.78
X4.763Y15.24
X7.302Y24.447
X7.62Y10.795
X8.572Y10.477
X8.636Y15.24
X9.525Y10.795
X10.795Y15.24
X11.43Y11.112
X12.065Y8.89
X12.7Y11.747
X13.018Y24.447
X13.018Y14.287
X13.018Y8.89
X15.24Y8.572
X15.24Y6.667
X15.24Y5.08
X15.24Y3.175
X15.557Y12.7
X15.748Y9.568
X16.192Y15.24
X17.78Y8.572
X17.78Y6.667
X17.78Y5.08
X17.78Y3.175
X18.415Y24.447
X19.232Y12.2
X20.637Y10.16
X24.447Y20.002
X24.447Y16.828
X24.447Y8.572
X24.447Y5.397
T2
X6.35Y1.27
X8.89Y1.27
X11.43Y1.27
X13.97Y1.27
X16.51Y1.27
X19.05Y1.27
T3
X2.54Y22.86
X2.54Y2.54
X22.86Y22.86
X22.86Y2.54
M30
