%TF.GenerationSoftware,KiCad,Pcbnew,9.0.7*%
%TF.CreationDate,2026-03-30T14:18:12-06:00*%
%TF.ProjectId,MCP4725_Breakout_Qwiic,4d435034-3732-4355-9f42-7265616b6f75,v10*%
%TF.SameCoordinates,Original*%
%TF.FileFunction,Copper,L1,Top*%
%TF.FilePolarity,Positive*%
%FSLAX46Y46*%
G04 Gerber Fmt 4.6, Leading zero omitted, Abs format (unit mm)*
G04 Created by KiCad (PCBNEW 9.0.7) date 2026-03-30 14:18:12*
%MOMM*%
%LPD*%
G01*
G04 APERTURE LIST*
G04 Aperture macros list*
%AMRoundRect*
0 Rectangle with rounded corners*
0 $1 Rounding radius*
0 $2 $3 $4 $5 $6 $7 $8 $9 X,Y pos of 4 corners*
0 Add a 4 corners polygon primitive as box body*
4,1,4,$2,$3,$4,$5,$6,$7,$8,$9,$2,$3,0*
0 Add four circle primitives for the rounded corners*
1,1,$1+$1,$2,$3*
1,1,$1+$1,$4,$5*
1,1,$1+$1,$6,$7*
1,1,$1+$1,$8,$9*
0 Add four rect primitives between the rounded corners*
20,1,$1+$1,$2,$3,$4,$5,0*
20,1,$1+$1,$4,$5,$6,$7,0*
20,1,$1+$1,$6,$7,$8,$9,0*
20,1,$1+$1,$8,$9,$2,$3,0*%
G04 Aperture macros list end*
%TA.AperFunction,SMDPad,CuDef*%
%ADD10RoundRect,0.200000X-0.200000X-0.275000X0.200000X-0.275000X0.200000X0.275000X-0.200000X0.275000X0*%
%TD*%
%TA.AperFunction,ComponentPad*%
%ADD11C,1.879600*%
%TD*%
%TA.AperFunction,SMDPad,CuDef*%
%ADD12C,0.500000*%
%TD*%
%TA.AperFunction,SMDPad,CuDef*%
%ADD13R,1.200000X0.550000*%
%TD*%
%TA.AperFunction,SMDPad,CuDef*%
%ADD14R,1.350000X0.600000*%
%TD*%
%TA.AperFunction,SMDPad,CuDef*%
%ADD15R,2.000000X1.200000*%
%TD*%
%TA.AperFunction,SMDPad,CuDef*%
%ADD16RoundRect,0.200000X-0.275000X0.200000X-0.275000X-0.200000X0.275000X-0.200000X0.275000X0.200000X0*%
%TD*%
%TA.AperFunction,SMDPad,CuDef*%
%ADD17RoundRect,0.225000X0.225000X0.250000X-0.225000X0.250000X-0.225000X-0.250000X0.225000X-0.250000X0*%
%TD*%
%TA.AperFunction,SMDPad,CuDef*%
%ADD18RoundRect,0.218750X0.218750X0.256250X-0.218750X0.256250X-0.218750X-0.256250X0.218750X-0.256250X0*%
%TD*%
%TA.AperFunction,ViaPad*%
%ADD19C,0.600000*%
%TD*%
%TA.AperFunction,Conductor*%
%ADD20C,0.304800*%
%TD*%
%TA.AperFunction,Conductor*%
%ADD21C,0.177800*%
%TD*%
G04 APERTURE END LIST*
D10*
%TO.P,R2,1*%
%TO.N,Net-(D1-A)*%
X2032500Y17145000D03*
%TO.P,R2,2*%
%TO.N,Net-(JP3-A)*%
X3682500Y17145000D03*
%TD*%
D11*
%TO.P,J2,1,Pin_1*%
%TO.N,GND*%
X6350000Y1270000D03*
%TO.P,J2,2,Pin_2*%
%TO.N,3.3V*%
X8890000Y1270000D03*
%TO.P,J2,3,Pin_3*%
%TO.N,SDA*%
X11430000Y1270000D03*
%TO.P,J2,4,Pin_4*%
%TO.N,SCL*%
X13970000Y1270000D03*
%TD*%
D12*
%TO.P,FID3,*%
%TO.N,*%
X24765000Y635000D03*
%TD*%
D13*
%TO.P,U2,1,VOUT*%
%TO.N,VOUT*%
X14000100Y11750000D03*
%TO.P,U2,2,VSS*%
%TO.N,GND*%
X14000100Y12700000D03*
%TO.P,U2,3,VDD*%
%TO.N,3.3V*%
X14000100Y13650000D03*
%TO.P,U2,4,SDA*%
%TO.N,SDA*%
X11399900Y13650000D03*
%TO.P,U2,5,SCL*%
%TO.N,SCL*%
X11400000Y12700000D03*
%TO.P,U2,6,AO*%
%TO.N,ADDR*%
X11399900Y11750000D03*
%TD*%
D14*
%TO.P,J4,1,Pin_1*%
%TO.N,GND*%
X4932500Y14200000D03*
%TO.P,J4,2,Pin_2*%
%TO.N,3.3V*%
X4932500Y13200000D03*
%TO.P,J4,3,Pin_3*%
%TO.N,SDA*%
X4932500Y12200000D03*
%TO.P,J4,4,Pin_4*%
%TO.N,SCL*%
X4932500Y11200000D03*
D15*
%TO.P,J4,NC1,NC*%
%TO.N,unconnected-(J4-NC-PadNC1)*%
X1257500Y9900000D03*
%TO.P,J4,NC2,NC*%
%TO.N,unconnected-(J4-NC-PadNC2)*%
X1257500Y15500000D03*
%TD*%
D11*
%TO.P,J1,1,Pin_1*%
%TO.N,VOUT*%
X16510000Y1270000D03*
%TO.P,J1,2,Pin_2*%
%TO.N,GND*%
X19050000Y1270000D03*
%TD*%
D10*
%TO.P,R1,1*%
%TO.N,ADDR*%
X13145000Y10160000D03*
%TO.P,R1,2*%
%TO.N,3.3V*%
X14795000Y10160000D03*
%TD*%
D12*
%TO.P,FID2,*%
%TO.N,*%
X635000Y24765000D03*
%TD*%
D16*
%TO.P,R4,1*%
%TO.N,SDA*%
X7620000Y13525000D03*
%TO.P,R4,2*%
%TO.N,Net-(JP1-C)*%
X7620000Y11875000D03*
%TD*%
D14*
%TO.P,J3,1,Pin_1*%
%TO.N,GND*%
X20467500Y11200000D03*
%TO.P,J3,2,Pin_2*%
%TO.N,3.3V*%
X20467500Y12200000D03*
%TO.P,J3,3,Pin_3*%
%TO.N,SDA*%
X20467500Y13200000D03*
%TO.P,J3,4,Pin_4*%
%TO.N,SCL*%
X20467500Y14200000D03*
D15*
%TO.P,J3,NC1,NC*%
%TO.N,unconnected-(J3-NC-PadNC1)*%
X24142500Y15500000D03*
%TO.P,J3,NC2,NC*%
%TO.N,unconnected-(J3-NC-PadNC2)*%
X24142500Y9900000D03*
%TD*%
D17*
%TO.P,C1,1*%
%TO.N,3.3V*%
X14745000Y15240000D03*
%TO.P,C1,2*%
%TO.N,GND*%
X13195000Y15240000D03*
%TD*%
D18*
%TO.P,D1,1,K*%
%TO.N,GND*%
X3645000Y18732500D03*
%TO.P,D1,2,A*%
%TO.N,Net-(D1-A)*%
X2070000Y18732500D03*
%TD*%
D16*
%TO.P,R5,1*%
%TO.N,SCL*%
X9525000Y13525000D03*
%TO.P,R5,2*%
%TO.N,Net-(JP1-A)*%
X9525000Y11875000D03*
%TD*%
D19*
%TO.N,GND*%
X17780000Y3175000D03*
X24447500Y8572500D03*
X12700000Y11747500D03*
X18415000Y24447500D03*
X7302500Y24447500D03*
X15240000Y8572500D03*
X952500Y8572500D03*
X4762500Y15240000D03*
X17780000Y8572500D03*
X20637500Y10160000D03*
X15240000Y6667500D03*
X952500Y16827500D03*
X952500Y5397500D03*
X8572500Y10477500D03*
X15240000Y5080000D03*
X13017500Y14287500D03*
X12065000Y8890000D03*
X15240000Y3175000D03*
X24447500Y16827500D03*
X17780000Y5080000D03*
X952500Y20002500D03*
X4762500Y18732500D03*
X24447500Y5397500D03*
X13017500Y24447500D03*
X24447500Y20002500D03*
X17780000Y6667500D03*
X15557500Y12700000D03*
%TO.N,3.3V*%
X8636000Y15240000D03*
X19232500Y12200000D03*
X10795000Y15240000D03*
X3675000Y13200000D03*
X16192500Y15240000D03*
X15748000Y9567900D03*
%TO.N,Net-(JP1-C)*%
X7620000Y10795000D03*
%TO.N,Net-(JP1-A)*%
X9525000Y10795000D03*
%TO.N,ADDR*%
X13017500Y8890000D03*
X11430000Y11112500D03*
%TO.N,Net-(JP3-A)*%
X4762500Y17780000D03*
%TD*%
D20*
%TO.N,3.3V*%
X8636000Y15240000D02*
X10795000Y15240000D01*
D21*
X15155900Y10160000D02*
X15748000Y9567900D01*
D20*
X5897500Y13200000D02*
X6350000Y13652500D01*
X3175000Y10160000D02*
X8890000Y4445000D01*
X6858000Y15240000D02*
X8636000Y15240000D01*
X3675000Y13200000D02*
X3175000Y12700000D01*
X4932500Y13200000D02*
X5897500Y13200000D01*
X8890000Y4445000D02*
X8890000Y1270000D01*
X14000100Y13650000D02*
X14000100Y14495100D01*
X3175000Y12700000D02*
X3175000Y10160000D01*
X16192500Y15240000D02*
X14745000Y15240000D01*
D21*
X14795000Y10160000D02*
X15155900Y10160000D01*
D20*
X20467500Y12200000D02*
X19232500Y12200000D01*
X14000100Y14495100D02*
X14745000Y15240000D01*
X6350000Y13652500D02*
X6350000Y14732000D01*
X19232500Y12200000D02*
X16192500Y15240000D01*
X6350000Y14732000D02*
X6858000Y15240000D01*
X4932500Y13200000D02*
X3675000Y13200000D01*
D21*
%TO.N,SCL*%
X9525000Y13525000D02*
X8826000Y13525000D01*
X6554555Y11987445D02*
X7267110Y12700000D01*
X20467500Y14200000D02*
X20467500Y15187270D01*
X13970000Y2599077D02*
X13970000Y1270000D01*
X4932500Y10212730D02*
X7749691Y7395539D01*
X11400000Y12700000D02*
X9779000Y12700000D01*
X8255000Y12700000D02*
X8636000Y13081000D01*
X6120000Y11200000D02*
X6554555Y11634555D01*
X9779000Y12700000D02*
X9525000Y12954000D01*
X9525000Y12954000D02*
X9525000Y13525000D01*
X12065000Y12700000D02*
X11400000Y12700000D01*
X4932500Y11200000D02*
X4932500Y10212730D01*
X8636000Y13081000D02*
X8636000Y13335000D01*
X7749691Y7395539D02*
X9173539Y7395539D01*
X6554555Y11634555D02*
X6554555Y11987445D01*
X9173539Y7395539D02*
X13970000Y2599077D01*
X8826000Y13525000D02*
X8636000Y13335000D01*
X12382500Y15641440D02*
X12382500Y13017500D01*
X19462270Y16192500D02*
X12933560Y16192500D01*
X20467500Y15187270D02*
X19462270Y16192500D01*
X7267110Y12700000D02*
X8255000Y12700000D01*
X12933560Y16192500D02*
X12382500Y15641440D01*
X4932500Y11200000D02*
X6120000Y11200000D01*
X12382500Y13017500D02*
X12065000Y12700000D01*
%TO.N,SDA*%
X20467500Y13200000D02*
X21320300Y13200000D01*
X3810000Y12065000D02*
X3945000Y12200000D01*
X19620500Y16574500D02*
X12129500Y16574500D01*
X7048000Y13525000D02*
X7620000Y13525000D01*
X9017000Y6858000D02*
X7493000Y6858000D01*
X12129500Y16574500D02*
X11399900Y15844900D01*
X21590000Y14605000D02*
X19620500Y16574500D01*
X10480000Y13650000D02*
X10414000Y13716000D01*
X11399900Y15844900D02*
X11399900Y13650000D01*
X10414000Y13716000D02*
X10414000Y14224000D01*
X6223000Y12319000D02*
X6223000Y12700000D01*
X7620000Y14351000D02*
X7620000Y13525000D01*
X11430000Y1270000D02*
X11430000Y4445000D01*
X6104000Y12200000D02*
X6223000Y12319000D01*
X3945000Y12200000D02*
X4932500Y12200000D01*
X6223000Y12700000D02*
X7048000Y13525000D01*
X10414000Y14224000D02*
X10033000Y14605000D01*
X4932500Y12200000D02*
X6104000Y12200000D01*
X21320300Y13200000D02*
X21590000Y13469700D01*
X10033000Y14605000D02*
X7874000Y14605000D01*
X3810000Y10541000D02*
X3810000Y12065000D01*
X11399900Y13650000D02*
X10480000Y13650000D01*
X7874000Y14605000D02*
X7620000Y14351000D01*
X7493000Y6858000D02*
X3810000Y10541000D01*
X11430000Y4445000D02*
X9017000Y6858000D01*
X21590000Y13469700D02*
X21590000Y14605000D01*
%TO.N,Net-(JP1-C)*%
X7620000Y11875000D02*
X7620000Y10795000D01*
%TO.N,Net-(JP1-A)*%
X9525000Y11875000D02*
X9525000Y10795000D01*
%TO.N,ADDR*%
X13017500Y10032500D02*
X13145000Y10160000D01*
X13017500Y8890000D02*
X13017500Y10032500D01*
X11399900Y11142600D02*
X11430000Y11112500D01*
X11399900Y11750000D02*
X11399900Y11142600D01*
D20*
%TO.N,VOUT*%
X16510000Y1270000D02*
X16510000Y10795000D01*
X15555000Y11750000D02*
X14000100Y11750000D01*
X16510000Y10795000D02*
X15555000Y11750000D01*
D21*
%TO.N,Net-(D1-A)*%
X2070000Y17182500D02*
X2032500Y17145000D01*
X2070000Y18732500D02*
X2070000Y17182500D01*
%TO.N,Net-(JP3-A)*%
X4127500Y17145000D02*
X4762500Y17780000D01*
X3682500Y17145000D02*
X4127500Y17145000D01*
%TD*%
%TA.AperFunction,Conductor*%
%TO.N,GND*%
G36*
X25240939Y25278215D02*
G01*
X25286694Y25225411D01*
X25297900Y25173900D01*
X25297900Y16427184D01*
X25278215Y16360145D01*
X25225411Y16314390D01*
X25168656Y16304930D01*
X25168656Y16303700D01*
X23122434Y16303700D01*
X23063023Y16291883D01*
X23063020Y16291882D01*
X22995640Y16246860D01*
X22950618Y16179480D01*
X22950617Y16179477D01*
X22938800Y16120067D01*
X22938800Y16120064D01*
X22938800Y14879936D01*
X22938800Y14879934D01*
X22938799Y14879934D01*
X22950617Y14820524D01*
X22950618Y14820521D01*
X22950619Y14820520D01*
X22995640Y14753140D01*
X23054591Y14713751D01*
X23063020Y14708119D01*
X23063023Y14708118D01*
X23122433Y14696300D01*
X25168656Y14696300D01*
X25168656Y14694907D01*
X25230381Y14683207D01*
X25281096Y14635147D01*
X25297900Y14572817D01*
X25297900Y10827184D01*
X25278215Y10760145D01*
X25225411Y10714390D01*
X25168656Y10704930D01*
X25168656Y10703700D01*
X23122434Y10703700D01*
X23063023Y10691883D01*
X23063020Y10691882D01*
X22995640Y10646860D01*
X22950618Y10579480D01*
X22950617Y10579477D01*
X22938800Y10520067D01*
X22938800Y10520064D01*
X22938800Y9279936D01*
X22938800Y9279934D01*
X22938799Y9279934D01*
X22950617Y9220524D01*
X22950618Y9220521D01*
X22965557Y9198162D01*
X22995640Y9153140D01*
X23030705Y9129711D01*
X23063020Y9108119D01*
X23063023Y9108118D01*
X23122433Y9096300D01*
X25168656Y9096300D01*
X25168656Y9094907D01*
X25230381Y9083207D01*
X25281096Y9035147D01*
X25297900Y8972817D01*
X25297900Y1109276D01*
X25278215Y1042237D01*
X25225411Y996482D01*
X25156253Y986538D01*
X25092697Y1015563D01*
X25086219Y1021595D01*
X25072316Y1035498D01*
X25072314Y1035500D01*
X24984006Y1086485D01*
X24958187Y1101392D01*
X24874703Y1123761D01*
X24830892Y1135500D01*
X24699108Y1135500D01*
X24571812Y1101392D01*
X24457686Y1035500D01*
X24457683Y1035498D01*
X24364502Y942317D01*
X24364500Y942314D01*
X24298608Y828188D01*
X24264500Y700892D01*
X24264500Y569109D01*
X24298608Y441813D01*
X24324025Y397790D01*
X24364500Y327686D01*
X24364502Y327684D01*
X24378405Y313781D01*
X24411890Y252458D01*
X24406906Y182766D01*
X24365034Y126833D01*
X24299570Y102416D01*
X24290724Y102100D01*
X19855169Y102100D01*
X19788130Y121785D01*
X19742375Y174589D01*
X19732431Y243747D01*
X19761456Y307303D01*
X19782283Y326418D01*
X19827709Y359423D01*
X19960576Y492290D01*
X19960576Y492291D01*
X20071028Y644313D01*
X20156335Y811738D01*
X20214404Y990454D01*
X20226497Y1066800D01*
X19519271Y1066800D01*
X19523381Y1073919D01*
X19558000Y1203120D01*
X19558000Y1336880D01*
X19523381Y1466081D01*
X19519271Y1473200D01*
X20226497Y1473200D01*
X20214404Y1549547D01*
X20156335Y1728263D01*
X20071028Y1895688D01*
X19960576Y2047710D01*
X19960576Y2047711D01*
X19827710Y2180577D01*
X19675687Y2291029D01*
X19508262Y2376336D01*
X19329545Y2434405D01*
X19329547Y2434405D01*
X19253200Y2446497D01*
X19253200Y1739271D01*
X19246081Y1743381D01*
X19116880Y1778000D01*
X18983120Y1778000D01*
X18853919Y1743381D01*
X18846800Y1739271D01*
X18846800Y2446497D01*
X18770453Y2434405D01*
X18591737Y2376336D01*
X18424312Y2291029D01*
X18272290Y2180577D01*
X18272289Y2180577D01*
X18139423Y2047711D01*
X18139423Y2047710D01*
X18028971Y1895688D01*
X17943664Y1728263D01*
X17885595Y1549548D01*
X17877009Y1495337D01*
X17847079Y1432203D01*
X17787767Y1395273D01*
X17717904Y1396271D01*
X17659672Y1434882D01*
X17632063Y1495338D01*
X17625343Y1537770D01*
X17569723Y1708952D01*
X17569723Y1708953D01*
X17488008Y1869326D01*
X17468855Y1895688D01*
X17382213Y2014940D01*
X17254940Y2142213D01*
X17109325Y2248009D01*
X16948950Y2329725D01*
X16944459Y2331584D01*
X16945173Y2333309D01*
X16931356Y2342766D01*
X16908897Y2353022D01*
X16903029Y2362153D01*
X16894073Y2368282D01*
X16884470Y2391031D01*
X16871123Y2411800D01*
X16868756Y2428259D01*
X16866902Y2432652D01*
X16866100Y2446735D01*
X16866100Y2658005D01*
X21059500Y2658005D01*
X21059500Y2421996D01*
X21059501Y2421980D01*
X21090306Y2187990D01*
X21151394Y1960007D01*
X21241714Y1741955D01*
X21241719Y1741944D01*
X21279503Y1676502D01*
X21359727Y1537550D01*
X21359729Y1537547D01*
X21359730Y1537546D01*
X21503406Y1350303D01*
X21503412Y1350296D01*
X21670295Y1183413D01*
X21670302Y1183407D01*
X21674736Y1180005D01*
X21857550Y1039727D01*
X21988918Y963882D01*
X22061943Y921720D01*
X22061948Y921718D01*
X22061951Y921716D01*
X22280007Y831394D01*
X22507986Y770307D01*
X22741989Y739500D01*
X22741996Y739500D01*
X22978004Y739500D01*
X22978011Y739500D01*
X23212014Y770307D01*
X23439993Y831394D01*
X23658049Y921716D01*
X23862450Y1039727D01*
X24049699Y1183408D01*
X24216592Y1350301D01*
X24360273Y1537550D01*
X24478284Y1741951D01*
X24568606Y1960007D01*
X24629693Y2187986D01*
X24660500Y2421989D01*
X24660500Y2658011D01*
X24629693Y2892014D01*
X24568606Y3119993D01*
X24478284Y3338049D01*
X24478282Y3338052D01*
X24478280Y3338057D01*
X24436118Y3411082D01*
X24360273Y3542450D01*
X24216592Y3729699D01*
X24216587Y3729705D01*
X24049704Y3896588D01*
X24049697Y3896594D01*
X23862454Y4040270D01*
X23862453Y4040271D01*
X23862450Y4040273D01*
X23780957Y4087323D01*
X23658056Y4158281D01*
X23658045Y4158286D01*
X23439993Y4248606D01*
X23212010Y4309694D01*
X22978020Y4340499D01*
X22978017Y4340500D01*
X22978011Y4340500D01*
X22741989Y4340500D01*
X22741983Y4340500D01*
X22741979Y4340499D01*
X22507989Y4309694D01*
X22280006Y4248606D01*
X22061954Y4158286D01*
X22061943Y4158281D01*
X21857545Y4040270D01*
X21670302Y3896594D01*
X21670295Y3896588D01*
X21503412Y3729705D01*
X21503406Y3729698D01*
X21359730Y3542455D01*
X21241719Y3338057D01*
X21241714Y3338046D01*
X21151394Y3119994D01*
X21090306Y2892011D01*
X21059501Y2658021D01*
X21059500Y2658005D01*
X16866100Y2658005D01*
X16866100Y10841878D01*
X16866099Y10841885D01*
X16857230Y10874986D01*
X19538501Y10874986D01*
X19553237Y10800894D01*
X19553238Y10800891D01*
X19609376Y10716877D01*
X19693395Y10660737D01*
X19693396Y10660736D01*
X19767480Y10646001D01*
X20264299Y10646001D01*
X20670700Y10646001D01*
X21167515Y10646001D01*
X21241606Y10660738D01*
X21241609Y10660739D01*
X21325623Y10716877D01*
X21381763Y10800896D01*
X21381764Y10800897D01*
X21396499Y10874979D01*
X21396500Y10874982D01*
X21396500Y10996800D01*
X20670700Y10996800D01*
X20670700Y10646001D01*
X20264299Y10646001D01*
X20264300Y10646002D01*
X20264300Y10996800D01*
X19538501Y10996800D01*
X19538501Y10874986D01*
X16857230Y10874986D01*
X16841833Y10932450D01*
X16841833Y10932452D01*
X16810824Y10986159D01*
X16810823Y10986160D01*
X16794951Y11013651D01*
X16728651Y11079951D01*
X15773651Y12034951D01*
X15692450Y12081833D01*
X15692447Y12081835D01*
X15601884Y12106100D01*
X15601881Y12106100D01*
X14924489Y12106100D01*
X14857450Y12125785D01*
X14811695Y12178589D01*
X14801751Y12247747D01*
X14821386Y12298990D01*
X14839363Y12325897D01*
X14839364Y12325897D01*
X14854099Y12399979D01*
X14854100Y12399982D01*
X14854100Y12496800D01*
X13146101Y12496800D01*
X13146101Y12399986D01*
X13160837Y12325894D01*
X13160838Y12325891D01*
X13212468Y12248623D01*
X13233346Y12181946D01*
X13214862Y12114566D01*
X13212472Y12110847D01*
X13208220Y12104484D01*
X13208217Y12104477D01*
X13196400Y12045067D01*
X13196400Y12045064D01*
X13196400Y11454936D01*
X13196400Y11454934D01*
X13196399Y11454934D01*
X13208217Y11395524D01*
X13208218Y11395521D01*
X13222454Y11374215D01*
X13253240Y11328140D01*
X13290987Y11302919D01*
X13320620Y11283119D01*
X13320623Y11283118D01*
X13380033Y11271300D01*
X13380036Y11271300D01*
X14620166Y11271300D01*
X14679576Y11283118D01*
X14679576Y11283119D01*
X14679580Y11283119D01*
X14746960Y11328140D01*
X14754078Y11338794D01*
X14807691Y11383597D01*
X14857179Y11393900D01*
X15356136Y11393900D01*
X15423175Y11374215D01*
X15443817Y11357581D01*
X16117581Y10683817D01*
X16151066Y10622494D01*
X16153900Y10596136D01*
X16153900Y10129950D01*
X16134215Y10062911D01*
X16081411Y10017156D01*
X16012253Y10007212D01*
X15967901Y10022562D01*
X15942421Y10037273D01*
X15942422Y10037273D01*
X15910394Y10045855D01*
X15814313Y10071600D01*
X15709461Y10071600D01*
X15642422Y10091285D01*
X15621780Y10107919D01*
X15435019Y10294680D01*
X15401534Y10356003D01*
X15398700Y10382361D01*
X15398700Y10466771D01*
X15383728Y10561302D01*
X15383727Y10561304D01*
X15383727Y10561305D01*
X15325671Y10675247D01*
X15325668Y10675250D01*
X15325666Y10675253D01*
X15235252Y10765667D01*
X15235248Y10765670D01*
X15235247Y10765671D01*
X15121305Y10823727D01*
X15121304Y10823728D01*
X15121301Y10823729D01*
X15121302Y10823729D01*
X15026770Y10838700D01*
X14563230Y10838700D01*
X14468698Y10823729D01*
X14354754Y10765672D01*
X14354747Y10765667D01*
X14264333Y10675253D01*
X14264328Y10675246D01*
X14206271Y10561302D01*
X14191300Y10466771D01*
X14191300Y9853230D01*
X14191299Y9853230D01*
X14206271Y9758699D01*
X14264328Y9644755D01*
X14264333Y9644748D01*
X14354747Y9554334D01*
X14354750Y9554332D01*
X14354753Y9554329D01*
X14468695Y9496273D01*
X14468696Y9496273D01*
X14468698Y9496272D01*
X14468697Y9496272D01*
X14563229Y9481300D01*
X14563230Y9481300D01*
X15026769Y9481300D01*
X15026770Y9481300D01*
X15121305Y9496273D01*
X15121305Y9496274D01*
X15130383Y9497711D01*
X15199676Y9488756D01*
X15253128Y9443760D01*
X15269555Y9407333D01*
X15278625Y9373484D01*
X15278628Y9373477D01*
X15344937Y9258625D01*
X15344939Y9258622D01*
X15344940Y9258621D01*
X15438721Y9164840D01*
X15553579Y9098527D01*
X15681687Y9064200D01*
X15681690Y9064200D01*
X15814310Y9064200D01*
X15814313Y9064200D01*
X15942421Y9098527D01*
X15967900Y9113238D01*
X16035798Y9129711D01*
X16101825Y9106860D01*
X16145017Y9051939D01*
X16153900Y9005851D01*
X16153900Y2446735D01*
X16134215Y2379696D01*
X16081411Y2333941D01*
X16075516Y2331645D01*
X16075541Y2331584D01*
X16071049Y2329725D01*
X15910674Y2248009D01*
X15828066Y2187990D01*
X15765060Y2142213D01*
X15765058Y2142211D01*
X15765057Y2142211D01*
X15637789Y2014943D01*
X15637789Y2014942D01*
X15637787Y2014940D01*
X15597876Y1960007D01*
X15531991Y1869326D01*
X15450276Y1708953D01*
X15450275Y1708950D01*
X15394657Y1537772D01*
X15371886Y1394000D01*
X15366500Y1359995D01*
X15366500Y1180005D01*
X15372949Y1139289D01*
X15394657Y1002229D01*
X15450275Y831051D01*
X15450276Y831048D01*
X15496922Y739502D01*
X15531991Y670675D01*
X15637787Y525060D01*
X15765060Y397787D01*
X15863291Y326418D01*
X15905956Y271088D01*
X15911935Y201474D01*
X15879329Y139679D01*
X15818490Y105322D01*
X15790405Y102100D01*
X14689595Y102100D01*
X14622556Y121785D01*
X14576801Y174589D01*
X14566857Y243747D01*
X14595882Y307303D01*
X14616709Y326418D01*
X14714940Y397787D01*
X14842213Y525060D01*
X14948009Y670675D01*
X15029723Y831048D01*
X15085343Y1002230D01*
X15113500Y1180005D01*
X15113500Y1359995D01*
X15085343Y1537770D01*
X15029723Y1708952D01*
X15029723Y1708953D01*
X14948008Y1869326D01*
X14928855Y1895688D01*
X14842213Y2014940D01*
X14714940Y2142213D01*
X14569325Y2248009D01*
X14408956Y2329722D01*
X14368810Y2342766D01*
X14348280Y2349437D01*
X14290606Y2388874D01*
X14263408Y2453233D01*
X14262600Y2467367D01*
X14262600Y2637597D01*
X14262600Y2637599D01*
X14242660Y2712016D01*
X14242660Y2712017D01*
X14204139Y2778737D01*
X9353199Y7629678D01*
X9286479Y7668199D01*
X9286478Y7668200D01*
X9286477Y7668200D01*
X9286477Y7668201D01*
X9249270Y7678169D01*
X9249269Y7678170D01*
X9212063Y7688139D01*
X9212061Y7688139D01*
X7922252Y7688139D01*
X7855213Y7707824D01*
X7834571Y7724458D01*
X6735339Y8823690D01*
X12513799Y8823690D01*
X12548127Y8695578D01*
X12548128Y8695577D01*
X12614437Y8580725D01*
X12614439Y8580722D01*
X12614440Y8580721D01*
X12708221Y8486940D01*
X12823079Y8420627D01*
X12951187Y8386300D01*
X12951190Y8386300D01*
X13083810Y8386300D01*
X13083813Y8386300D01*
X13211921Y8420627D01*
X13326779Y8486940D01*
X13420560Y8580721D01*
X13486873Y8695579D01*
X13521200Y8823687D01*
X13521200Y8956313D01*
X13486873Y9084421D01*
X13447198Y9153141D01*
X13420562Y9199276D01*
X13420561Y9199277D01*
X13420560Y9199279D01*
X13346418Y9273421D01*
X13331713Y9300352D01*
X13315123Y9326167D01*
X13314231Y9332370D01*
X13312934Y9334745D01*
X13310100Y9361102D01*
X13310100Y9364835D01*
X13329785Y9431874D01*
X13382589Y9477629D01*
X13414696Y9487307D01*
X13471305Y9496273D01*
X13585247Y9554329D01*
X13675671Y9644753D01*
X13733727Y9758695D01*
X13748700Y9853230D01*
X13748700Y10466770D01*
X13745699Y10485720D01*
X13733728Y10561302D01*
X13733727Y10561304D01*
X13733727Y10561305D01*
X13675671Y10675247D01*
X13675668Y10675250D01*
X13675666Y10675253D01*
X13585252Y10765667D01*
X13585248Y10765670D01*
X13585247Y10765671D01*
X13471305Y10823727D01*
X13471304Y10823728D01*
X13471301Y10823729D01*
X13471302Y10823729D01*
X13376770Y10838700D01*
X12913230Y10838700D01*
X12818698Y10823729D01*
X12704754Y10765672D01*
X12704747Y10765667D01*
X12614333Y10675253D01*
X12614328Y10675246D01*
X12556271Y10561302D01*
X12541300Y10466771D01*
X12541300Y9853230D01*
X12541299Y9853230D01*
X12556271Y9758699D01*
X12556272Y9758696D01*
X12556273Y9758695D01*
X12614329Y9644753D01*
X12688582Y9570500D01*
X12703288Y9543569D01*
X12719877Y9517755D01*
X12720768Y9511556D01*
X12722066Y9509179D01*
X12724900Y9482820D01*
X12724900Y9361102D01*
X12705215Y9294063D01*
X12688582Y9273421D01*
X12614437Y9199276D01*
X12548128Y9084424D01*
X12548127Y9084423D01*
X12534924Y9035147D01*
X12513800Y8956313D01*
X12513800Y8956311D01*
X12513800Y8823690D01*
X12513799Y8823690D01*
X6735339Y8823690D01*
X5261419Y10297610D01*
X5246715Y10324538D01*
X5230123Y10350356D01*
X5229231Y10356557D01*
X5227934Y10358933D01*
X5225100Y10385291D01*
X5225100Y10572300D01*
X5244785Y10639339D01*
X5297589Y10685094D01*
X5349100Y10696300D01*
X5627566Y10696300D01*
X5686976Y10708118D01*
X5686977Y10708119D01*
X5686980Y10708119D01*
X5754360Y10753140D01*
X5799381Y10820520D01*
X5799382Y10820523D01*
X5803661Y10830852D01*
X5847501Y10885256D01*
X5913795Y10907321D01*
X5918222Y10907400D01*
X6158520Y10907400D01*
X6158521Y10907400D01*
X6158522Y10907400D01*
X6198377Y10918079D01*
X6232940Y10927340D01*
X6299660Y10965861D01*
X6788694Y11454895D01*
X6788906Y11455264D01*
X6789165Y11455511D01*
X6793642Y11461344D01*
X6794550Y11460647D01*
X6839465Y11503481D01*
X6908071Y11516711D01*
X6972938Y11490750D01*
X7006780Y11449568D01*
X7014329Y11434753D01*
X7014331Y11434751D01*
X7014333Y11434748D01*
X7104747Y11344334D01*
X7104750Y11344332D01*
X7104753Y11344329D01*
X7186026Y11302919D01*
X7236823Y11254945D01*
X7253618Y11187124D01*
X7231081Y11120989D01*
X7217420Y11104760D01*
X7216944Y11104285D01*
X7216937Y11104276D01*
X7150628Y10989424D01*
X7150627Y10989423D01*
X7144314Y10965862D01*
X7116300Y10861313D01*
X7116300Y10861311D01*
X7116300Y10728690D01*
X7116299Y10728690D01*
X7150627Y10600578D01*
X7150628Y10600577D01*
X7216937Y10485725D01*
X7216939Y10485722D01*
X7216940Y10485721D01*
X7310721Y10391940D01*
X7425579Y10325627D01*
X7553687Y10291300D01*
X7553690Y10291300D01*
X7686310Y10291300D01*
X7686313Y10291300D01*
X7814421Y10325627D01*
X7929279Y10391940D01*
X8023060Y10485721D01*
X8089373Y10600579D01*
X8123700Y10728687D01*
X8123700Y10861313D01*
X8089373Y10989421D01*
X8023060Y11104279D01*
X8022586Y11104753D01*
X8022314Y11105250D01*
X8018114Y11110724D01*
X8018967Y11111380D01*
X7989101Y11166076D01*
X7994085Y11235768D01*
X8035957Y11291701D01*
X8053964Y11302914D01*
X8135247Y11344329D01*
X8225671Y11434753D01*
X8283727Y11548695D01*
X8285332Y11558825D01*
X8298700Y11643230D01*
X8298700Y12106771D01*
X8283728Y12201301D01*
X8283727Y12201303D01*
X8283727Y12201305D01*
X8262024Y12243899D01*
X8249129Y12312565D01*
X8275405Y12377306D01*
X8332512Y12417563D01*
X8340400Y12419962D01*
X8367940Y12427340D01*
X8434660Y12465861D01*
X8870138Y12901339D01*
X8884522Y12926254D01*
X8909388Y12949963D01*
X8934171Y12973991D01*
X8934700Y12974098D01*
X8935089Y12974468D01*
X8968853Y12980977D01*
X9002666Y12987786D01*
X9003276Y12987612D01*
X9003696Y12987692D01*
X9037033Y12979751D01*
X9042740Y12977522D01*
X9123695Y12936273D01*
X9165105Y12929715D01*
X9177589Y12924837D01*
X9195050Y12911340D01*
X9214995Y12901885D01*
X9222153Y12890389D01*
X9232869Y12882106D01*
X9240261Y12861311D01*
X9248405Y12848232D01*
X9249228Y12848572D01*
X9251283Y12843611D01*
X9251928Y12842575D01*
X9252240Y12841431D01*
X9252338Y12841063D01*
X9252339Y12841062D01*
X9252340Y12841060D01*
X9290861Y12774340D01*
X9290863Y12774338D01*
X9374820Y12690381D01*
X9408305Y12629058D01*
X9403321Y12559366D01*
X9361449Y12503433D01*
X9295985Y12479016D01*
X9287139Y12478700D01*
X9218230Y12478700D01*
X9123698Y12463729D01*
X9009754Y12405672D01*
X9009747Y12405667D01*
X8919333Y12315253D01*
X8919328Y12315246D01*
X8861271Y12201302D01*
X8846300Y12106771D01*
X8846300Y11643230D01*
X8846299Y11643230D01*
X8861271Y11548699D01*
X8861272Y11548696D01*
X8861273Y11548695D01*
X8875071Y11521615D01*
X8919328Y11434755D01*
X8919333Y11434748D01*
X9009747Y11344334D01*
X9009750Y11344332D01*
X9009753Y11344329D01*
X9091026Y11302919D01*
X9141823Y11254945D01*
X9158618Y11187124D01*
X9136081Y11120989D01*
X9122420Y11104760D01*
X9121944Y11104285D01*
X9121937Y11104276D01*
X9055628Y10989424D01*
X9055627Y10989423D01*
X9049314Y10965862D01*
X9021300Y10861313D01*
X9021300Y10861311D01*
X9021300Y10728690D01*
X9021299Y10728690D01*
X9055627Y10600578D01*
X9055628Y10600577D01*
X9121937Y10485725D01*
X9121939Y10485722D01*
X9121940Y10485721D01*
X9215721Y10391940D01*
X9330579Y10325627D01*
X9458687Y10291300D01*
X9458690Y10291300D01*
X9591310Y10291300D01*
X9591313Y10291300D01*
X9719421Y10325627D01*
X9834279Y10391940D01*
X9928060Y10485721D01*
X9994373Y10600579D01*
X10028700Y10728687D01*
X10028700Y10861313D01*
X9994373Y10989421D01*
X9928060Y11104279D01*
X9927586Y11104753D01*
X9927314Y11105250D01*
X9923114Y11110724D01*
X9923967Y11111380D01*
X9894101Y11166076D01*
X9899085Y11235768D01*
X9940957Y11291701D01*
X9958964Y11302914D01*
X10040247Y11344329D01*
X10130671Y11434753D01*
X10188727Y11548695D01*
X10190332Y11558825D01*
X10203700Y11643230D01*
X10203700Y12106771D01*
X10188728Y12201301D01*
X10188727Y12201303D01*
X10188727Y12201305D01*
X10175579Y12227108D01*
X10175072Y12229812D01*
X10173272Y12231889D01*
X10168664Y12263937D01*
X10162685Y12295776D01*
X10163719Y12298325D01*
X10163328Y12301047D01*
X10176780Y12330505D01*
X10188962Y12360516D01*
X10191210Y12362101D01*
X10192353Y12364603D01*
X10219600Y12382114D01*
X10246069Y12400772D01*
X10249524Y12401345D01*
X10251131Y12402377D01*
X10286066Y12407400D01*
X10500493Y12407400D01*
X10567532Y12387715D01*
X10603596Y12352290D01*
X10608118Y12345522D01*
X10608119Y12345520D01*
X10642567Y12293963D01*
X10663444Y12227288D01*
X10644959Y12159907D01*
X10642579Y12156205D01*
X10637590Y12148737D01*
X10608018Y12104480D01*
X10608017Y12104477D01*
X10596200Y12045067D01*
X10596200Y12045064D01*
X10596200Y11454936D01*
X10596200Y11454934D01*
X10596199Y11454934D01*
X10608017Y11395524D01*
X10608018Y11395521D01*
X10622254Y11374215D01*
X10653040Y11328140D01*
X10690787Y11302919D01*
X10720420Y11283119D01*
X10720423Y11283118D01*
X10779833Y11271300D01*
X10779836Y11271300D01*
X10802300Y11271300D01*
X10869339Y11251615D01*
X10915094Y11198811D01*
X10926300Y11147300D01*
X10926300Y11046190D01*
X10926299Y11046190D01*
X10926300Y11046187D01*
X10958145Y10927340D01*
X10960628Y10918077D01*
X11026937Y10803225D01*
X11026939Y10803222D01*
X11026940Y10803221D01*
X11120721Y10709440D01*
X11120722Y10709439D01*
X11120724Y10709438D01*
X11178150Y10676284D01*
X11235579Y10643127D01*
X11363687Y10608800D01*
X11363690Y10608800D01*
X11496310Y10608800D01*
X11496313Y10608800D01*
X11624421Y10643127D01*
X11739279Y10709440D01*
X11833060Y10803221D01*
X11899373Y10918079D01*
X11933700Y11046187D01*
X11933700Y11152377D01*
X11953385Y11219416D01*
X12006189Y11265171D01*
X12033509Y11273994D01*
X12079375Y11283118D01*
X12079375Y11283119D01*
X12079380Y11283119D01*
X12146760Y11328140D01*
X12191781Y11395520D01*
X12193309Y11403200D01*
X12203600Y11454934D01*
X12203600Y12045067D01*
X12191782Y12104477D01*
X12191781Y12104479D01*
X12191781Y12104480D01*
X12157332Y12156038D01*
X12136455Y12222713D01*
X12146638Y12274184D01*
X12151091Y12284474D01*
X12191881Y12345520D01*
X12203700Y12404936D01*
X12203700Y12406011D01*
X12209339Y12419038D01*
X12223582Y12436153D01*
X12233903Y12455882D01*
X12241162Y12462364D01*
X12244657Y12465860D01*
X12244660Y12465861D01*
X12616639Y12837840D01*
X12655160Y12904560D01*
X12656977Y12911340D01*
X12671585Y12965860D01*
X12671586Y12965860D01*
X12671586Y12965867D01*
X12675100Y12978978D01*
X12675100Y14410164D01*
X12694785Y14477203D01*
X12747589Y14522958D01*
X12816747Y14532902D01*
X12842435Y14526345D01*
X12867131Y14517134D01*
X12924163Y14511001D01*
X12924180Y14511000D01*
X12991800Y14511000D01*
X12991800Y15116000D01*
X12994350Y15124686D01*
X12993062Y15133647D01*
X13004040Y15157688D01*
X13011485Y15183039D01*
X13018325Y15188967D01*
X13022087Y15197203D01*
X13044321Y15211493D01*
X13064289Y15228794D01*
X13074803Y15231082D01*
X13080865Y15234977D01*
X13115800Y15240000D01*
X13274200Y15240000D01*
X13341239Y15220315D01*
X13386994Y15167511D01*
X13398200Y15116000D01*
X13398200Y14511000D01*
X13465820Y14511000D01*
X13465831Y14511001D01*
X13506742Y14515400D01*
X13522149Y14512621D01*
X13537647Y14514849D01*
X13555831Y14506545D01*
X13575502Y14502996D01*
X13586960Y14492329D01*
X13601203Y14485824D01*
X13612010Y14469007D01*
X13626640Y14455387D01*
X13631017Y14439432D01*
X13638977Y14427046D01*
X13644000Y14392111D01*
X13644000Y14252700D01*
X13624315Y14185661D01*
X13571511Y14139906D01*
X13520000Y14128700D01*
X13380034Y14128700D01*
X13320623Y14116883D01*
X13320620Y14116882D01*
X13253240Y14071860D01*
X13208218Y14004480D01*
X13208217Y14004477D01*
X13196400Y13945067D01*
X13196400Y13945064D01*
X13196400Y13354936D01*
X13196400Y13354934D01*
X13196399Y13354934D01*
X13208217Y13295524D01*
X13208219Y13295520D01*
X13212470Y13289157D01*
X13233346Y13222479D01*
X13214860Y13155099D01*
X13212469Y13151379D01*
X13160836Y13074104D01*
X13160835Y13074104D01*
X13146100Y13000022D01*
X13146100Y12903200D01*
X14854099Y12903200D01*
X14854099Y13000015D01*
X14839362Y13074107D01*
X14787731Y13151377D01*
X14766853Y13218055D01*
X14785337Y13285435D01*
X14787732Y13289161D01*
X14788319Y13290039D01*
X14791981Y13295520D01*
X14799040Y13331006D01*
X14803800Y13354934D01*
X14803800Y13945067D01*
X14791982Y14004477D01*
X14791981Y14004480D01*
X14789625Y14008006D01*
X14746960Y14071860D01*
X14700653Y14102801D01*
X14679579Y14116882D01*
X14679576Y14116883D01*
X14620166Y14128700D01*
X14620164Y14128700D01*
X14480200Y14128700D01*
X14471514Y14131251D01*
X14462553Y14129962D01*
X14438512Y14140941D01*
X14413161Y14148385D01*
X14407233Y14155226D01*
X14398997Y14158987D01*
X14384707Y14181222D01*
X14367406Y14201189D01*
X14365118Y14211704D01*
X14361223Y14217765D01*
X14356200Y14252700D01*
X14356200Y14296236D01*
X14375885Y14363275D01*
X14392519Y14383917D01*
X14533583Y14524981D01*
X14594906Y14558466D01*
X14621264Y14561300D01*
X15021640Y14561300D01*
X15034508Y14562508D01*
X15050600Y14564016D01*
X15050604Y14564018D01*
X15050607Y14564018D01*
X15109137Y14584499D01*
X15172581Y14606699D01*
X15276560Y14683440D01*
X15353301Y14787419D01*
X15358003Y14800858D01*
X15398726Y14857632D01*
X15463679Y14883378D01*
X15475044Y14883900D01*
X15784899Y14883900D01*
X15851938Y14864215D01*
X15872580Y14847581D01*
X15883221Y14836940D01*
X15883222Y14836939D01*
X15883224Y14836938D01*
X15911661Y14820520D01*
X15998079Y14770627D01*
X16126187Y14736300D01*
X16141236Y14736300D01*
X16208275Y14716615D01*
X16228917Y14699981D01*
X18692481Y12236418D01*
X18725966Y12175095D01*
X18728800Y12148737D01*
X18728800Y12133690D01*
X18728799Y12133690D01*
X18763127Y12005578D01*
X18763128Y12005577D01*
X18829437Y11890725D01*
X18829439Y11890722D01*
X18829440Y11890721D01*
X18923221Y11796940D01*
X19038079Y11730627D01*
X19166187Y11696300D01*
X19166190Y11696300D01*
X19298810Y11696300D01*
X19298813Y11696300D01*
X19395370Y11722173D01*
X19465218Y11720510D01*
X19523080Y11681348D01*
X19550585Y11617120D01*
X19549080Y11578208D01*
X19538500Y11525016D01*
X19538500Y11403200D01*
X21396499Y11403200D01*
X21396499Y11525015D01*
X21381762Y11599107D01*
X21330131Y11676377D01*
X21309253Y11743055D01*
X21327737Y11810435D01*
X21330132Y11814161D01*
X21334381Y11820520D01*
X21346200Y11879936D01*
X21346200Y12520064D01*
X21346200Y12520067D01*
X21334382Y12579477D01*
X21334381Y12579479D01*
X21334381Y12579480D01*
X21299881Y12631113D01*
X21295908Y12643804D01*
X21287720Y12654285D01*
X21285670Y12676498D01*
X21279005Y12697786D01*
X21282381Y12712162D01*
X21281302Y12723859D01*
X21290184Y12745386D01*
X21292953Y12757175D01*
X21296090Y12763214D01*
X21334381Y12820520D01*
X21339661Y12847065D01*
X21347802Y12862731D01*
X21360260Y12875714D01*
X21368601Y12891658D01*
X21384622Y12901100D01*
X21396180Y12913142D01*
X21411126Y12916718D01*
X21425746Y12925332D01*
X21426542Y12925546D01*
X21433240Y12927340D01*
X21499960Y12965861D01*
X21824138Y13290039D01*
X21827295Y13295509D01*
X21827305Y13295518D01*
X21827302Y13295520D01*
X21846370Y13328547D01*
X21862660Y13356761D01*
X21882600Y13431178D01*
X21882600Y14643522D01*
X21871989Y14683124D01*
X21866340Y14704207D01*
X21862660Y14717939D01*
X21862660Y14717940D01*
X21824139Y14784660D01*
X19800160Y16808639D01*
X19733440Y16847160D01*
X19733439Y16847161D01*
X19733438Y16847161D01*
X19733438Y16847162D01*
X19696231Y16857130D01*
X19696230Y16857131D01*
X19659024Y16867100D01*
X19659022Y16867100D01*
X12090978Y16867100D01*
X12090976Y16867100D01*
X12053769Y16857131D01*
X12053769Y16857130D01*
X12041366Y16853807D01*
X12016558Y16847160D01*
X11983202Y16827900D01*
X11983200Y16827899D01*
X11949842Y16808640D01*
X11949836Y16808636D01*
X11165763Y16024563D01*
X11165761Y16024560D01*
X11128155Y15959426D01*
X11128154Y15959425D01*
X11127240Y15957840D01*
X11127240Y15957839D01*
X11107300Y15883422D01*
X11107300Y15829498D01*
X11105733Y15819735D01*
X11094783Y15796761D01*
X11087615Y15772349D01*
X11080005Y15765756D01*
X11075672Y15756663D01*
X11054038Y15743255D01*
X11034811Y15726594D01*
X11024845Y15725162D01*
X11016284Y15719855D01*
X10990838Y15720272D01*
X10965653Y15716650D01*
X10951207Y15719613D01*
X10896271Y15734333D01*
X10861313Y15743700D01*
X10728687Y15743700D01*
X10654055Y15723702D01*
X10600577Y15709373D01*
X10600576Y15709372D01*
X10485724Y15643063D01*
X10485719Y15643059D01*
X10475080Y15632419D01*
X10413757Y15598934D01*
X10387399Y15596100D01*
X9043601Y15596100D01*
X8976562Y15615785D01*
X8955920Y15632419D01*
X8945280Y15643059D01*
X8945275Y15643063D01*
X8830423Y15709372D01*
X8830422Y15709373D01*
X8776945Y15723702D01*
X8702313Y15743700D01*
X8569687Y15743700D01*
X8495055Y15723702D01*
X8441577Y15709373D01*
X8441576Y15709372D01*
X8326724Y15643063D01*
X8326719Y15643059D01*
X8316080Y15632419D01*
X8254757Y15598934D01*
X8228399Y15596100D01*
X6811116Y15596100D01*
X6722068Y15572240D01*
X6722065Y15572239D01*
X6720550Y15571834D01*
X6639349Y15524951D01*
X6639346Y15524949D01*
X6573049Y15458651D01*
X6573047Y15458649D01*
X6345480Y15231082D01*
X6113908Y14999511D01*
X6065052Y14950655D01*
X6065049Y14950651D01*
X6018165Y14869448D01*
X5993900Y14778885D01*
X5992839Y14770820D01*
X5991488Y14770998D01*
X5974215Y14712171D01*
X5921411Y14666416D01*
X5852253Y14656472D01*
X5802641Y14679129D01*
X5800778Y14676339D01*
X5706604Y14739264D01*
X5706603Y14739265D01*
X5632521Y14754000D01*
X5135700Y14754000D01*
X5135700Y14324000D01*
X5116015Y14256961D01*
X5063211Y14211206D01*
X5011700Y14200000D01*
X4932500Y14200000D01*
X4932500Y14120800D01*
X4912815Y14053761D01*
X4860011Y14008006D01*
X4808500Y13996800D01*
X4003501Y13996800D01*
X4003501Y13874984D01*
X4015347Y13815422D01*
X4009118Y13745831D01*
X3966253Y13690654D01*
X3900363Y13667412D01*
X3861636Y13671459D01*
X3741313Y13703700D01*
X3608687Y13703700D01*
X3531822Y13683104D01*
X3480577Y13669373D01*
X3480576Y13669372D01*
X3365724Y13603063D01*
X3365719Y13603059D01*
X3271941Y13509281D01*
X3271937Y13509276D01*
X3205628Y13394424D01*
X3205627Y13394423D01*
X3195448Y13356433D01*
X3171300Y13266313D01*
X3171300Y13266311D01*
X3171300Y13251264D01*
X3151615Y13184225D01*
X3134981Y13163583D01*
X2890051Y12918654D01*
X2890049Y12918651D01*
X2843165Y12837448D01*
X2818900Y12746885D01*
X2818900Y10113116D01*
X2843165Y10022553D01*
X2858025Y9996815D01*
X2890049Y9941349D01*
X2890051Y9941347D01*
X8497581Y4333817D01*
X8531066Y4272494D01*
X8533900Y4246136D01*
X8533900Y2446735D01*
X8514215Y2379696D01*
X8461411Y2333941D01*
X8455516Y2331645D01*
X8455541Y2331584D01*
X8451049Y2329725D01*
X8290674Y2248009D01*
X8208066Y2187990D01*
X8145060Y2142213D01*
X8145058Y2142211D01*
X8145057Y2142211D01*
X8017789Y2014943D01*
X8017789Y2014942D01*
X8017787Y2014940D01*
X7977876Y1960007D01*
X7911991Y1869326D01*
X7830276Y1708953D01*
X7830275Y1708950D01*
X7774657Y1537772D01*
X7767936Y1495338D01*
X7738006Y1432204D01*
X7678694Y1395273D01*
X7608832Y1396271D01*
X7550599Y1434882D01*
X7522990Y1495339D01*
X7514404Y1549547D01*
X7456335Y1728263D01*
X7371028Y1895688D01*
X7260576Y2047710D01*
X7260576Y2047711D01*
X7127710Y2180577D01*
X6975687Y2291029D01*
X6808262Y2376336D01*
X6629545Y2434405D01*
X6629547Y2434405D01*
X6553200Y2446497D01*
X6553200Y1739271D01*
X6546081Y1743381D01*
X6416880Y1778000D01*
X6283120Y1778000D01*
X6153919Y1743381D01*
X6146800Y1739271D01*
X6146800Y2446497D01*
X6070453Y2434405D01*
X5891737Y2376336D01*
X5724312Y2291029D01*
X5572290Y2180577D01*
X5572289Y2180577D01*
X5439423Y2047711D01*
X5439423Y2047710D01*
X5328971Y1895688D01*
X5243664Y1728263D01*
X5185595Y1549547D01*
X5173503Y1473200D01*
X5880729Y1473200D01*
X5876619Y1466081D01*
X5842000Y1336880D01*
X5842000Y1203120D01*
X5876619Y1073919D01*
X5880729Y1066800D01*
X5173503Y1066800D01*
X5185595Y990454D01*
X5243664Y811738D01*
X5328971Y644313D01*
X5439423Y492291D01*
X5439423Y492290D01*
X5572290Y359423D01*
X5617717Y326418D01*
X5660382Y271087D01*
X5666361Y201474D01*
X5633755Y139679D01*
X5572916Y105322D01*
X5544831Y102100D01*
X226100Y102100D01*
X159061Y121785D01*
X113306Y174589D01*
X102100Y226100D01*
X102100Y2658005D01*
X739500Y2658005D01*
X739500Y2421996D01*
X739501Y2421980D01*
X770306Y2187990D01*
X831394Y1960007D01*
X921714Y1741955D01*
X921719Y1741944D01*
X959503Y1676502D01*
X1039727Y1537550D01*
X1039729Y1537547D01*
X1039730Y1537546D01*
X1183406Y1350303D01*
X1183412Y1350296D01*
X1350295Y1183413D01*
X1350302Y1183407D01*
X1354736Y1180005D01*
X1537550Y1039727D01*
X1668918Y963882D01*
X1741943Y921720D01*
X1741948Y921718D01*
X1741951Y921716D01*
X1960007Y831394D01*
X2187986Y770307D01*
X2421989Y739500D01*
X2421996Y739500D01*
X2658004Y739500D01*
X2658011Y739500D01*
X2892014Y770307D01*
X3119993Y831394D01*
X3338049Y921716D01*
X3542450Y1039727D01*
X3729699Y1183408D01*
X3896592Y1350301D01*
X4007883Y1495338D01*
X4020379Y1511623D01*
X4026934Y1520168D01*
X4040273Y1537550D01*
X4158284Y1741951D01*
X4248606Y1960007D01*
X4309693Y2187986D01*
X4340500Y2421989D01*
X4340500Y2658011D01*
X4309693Y2892014D01*
X4248606Y3119993D01*
X4158284Y3338049D01*
X4158282Y3338052D01*
X4158280Y3338057D01*
X4116118Y3411082D01*
X4040273Y3542450D01*
X3896592Y3729699D01*
X3896587Y3729705D01*
X3729704Y3896588D01*
X3729697Y3896594D01*
X3542454Y4040270D01*
X3542453Y4040271D01*
X3542450Y4040273D01*
X3460957Y4087323D01*
X3338056Y4158281D01*
X3338045Y4158286D01*
X3119993Y4248606D01*
X2892010Y4309694D01*
X2658020Y4340499D01*
X2658017Y4340500D01*
X2658011Y4340500D01*
X2421989Y4340500D01*
X2421983Y4340500D01*
X2421979Y4340499D01*
X2187989Y4309694D01*
X1960006Y4248606D01*
X1741954Y4158286D01*
X1741943Y4158281D01*
X1537545Y4040270D01*
X1350302Y3896594D01*
X1350295Y3896588D01*
X1183412Y3729705D01*
X1183406Y3729698D01*
X1039730Y3542455D01*
X921719Y3338057D01*
X921714Y3338046D01*
X831394Y3119994D01*
X770306Y2892011D01*
X739501Y2658021D01*
X739500Y2658005D01*
X102100Y2658005D01*
X102100Y8972817D01*
X121785Y9039856D01*
X174589Y9085611D01*
X231344Y9095066D01*
X231344Y9096300D01*
X2277566Y9096300D01*
X2336976Y9108118D01*
X2336977Y9108119D01*
X2336980Y9108119D01*
X2404360Y9153140D01*
X2449381Y9220520D01*
X2461200Y9279936D01*
X2461200Y10520064D01*
X2461200Y10520067D01*
X2449382Y10579477D01*
X2449381Y10579480D01*
X2438252Y10596136D01*
X2404360Y10646860D01*
X2336980Y10691881D01*
X2336979Y10691882D01*
X2336976Y10691883D01*
X2277566Y10703700D01*
X2277564Y10703700D01*
X237436Y10703700D01*
X231344Y10703700D01*
X231344Y10705090D01*
X169598Y10716805D01*
X118892Y10764875D01*
X102100Y10827184D01*
X102100Y14525022D01*
X4003500Y14525022D01*
X4003500Y14403200D01*
X4729300Y14403200D01*
X4729300Y14754000D01*
X4232485Y14754000D01*
X4158393Y14739263D01*
X4158390Y14739262D01*
X4074376Y14683124D01*
X4018236Y14599105D01*
X4018235Y14599104D01*
X4003500Y14525022D01*
X102100Y14525022D01*
X102100Y14572817D01*
X121785Y14639856D01*
X174589Y14685611D01*
X231344Y14695066D01*
X231344Y14696300D01*
X2277566Y14696300D01*
X2336976Y14708118D01*
X2336977Y14708119D01*
X2336980Y14708119D01*
X2404360Y14753140D01*
X2449381Y14820520D01*
X2452647Y14836938D01*
X2461200Y14879934D01*
X2461200Y16120067D01*
X2449382Y16179477D01*
X2449381Y16179480D01*
X2412900Y16234079D01*
X2404360Y16246860D01*
X2361516Y16275487D01*
X2316711Y16329099D01*
X2308004Y16398424D01*
X2338158Y16461451D01*
X2374108Y16489071D01*
X2472747Y16539329D01*
X2563171Y16629753D01*
X2621227Y16743695D01*
X2622885Y16754159D01*
X2636200Y16838230D01*
X2636200Y17451771D01*
X2621228Y17546302D01*
X2621227Y17546304D01*
X2621227Y17546305D01*
X2563171Y17660247D01*
X2563168Y17660250D01*
X2563166Y17660253D01*
X2472752Y17750667D01*
X2472747Y17750671D01*
X2430303Y17772298D01*
X2419239Y17782748D01*
X2405397Y17789069D01*
X2394354Y17806252D01*
X2379508Y17820274D01*
X2375267Y17835953D01*
X2367623Y17847847D01*
X2362600Y17882782D01*
X2362600Y17963765D01*
X2382285Y18030804D01*
X2430304Y18074249D01*
X2540155Y18130220D01*
X2634780Y18224845D01*
X2695532Y18344078D01*
X2700385Y18374718D01*
X2708765Y18427625D01*
X2738694Y18490759D01*
X2798005Y18527691D01*
X2867868Y18526693D01*
X2926101Y18488083D01*
X2954215Y18424120D01*
X2954528Y18421482D01*
X2959555Y18374721D01*
X2959556Y18374718D01*
X3007060Y18247356D01*
X3088528Y18138529D01*
X3197352Y18057063D01*
X3306132Y18016490D01*
X3362065Y17974618D01*
X3386482Y17909154D01*
X3371630Y17840881D01*
X3322225Y17791476D01*
X3319094Y17789824D01*
X3242254Y17750672D01*
X3242247Y17750667D01*
X3151833Y17660253D01*
X3151828Y17660246D01*
X3093771Y17546302D01*
X3078800Y17451771D01*
X3078800Y16838230D01*
X3078799Y16838230D01*
X3093771Y16743699D01*
X3151828Y16629755D01*
X3151833Y16629748D01*
X3242247Y16539334D01*
X3242250Y16539332D01*
X3242253Y16539329D01*
X3356195Y16481273D01*
X3356196Y16481273D01*
X3356198Y16481272D01*
X3356197Y16481272D01*
X3450729Y16466300D01*
X3450730Y16466300D01*
X3914270Y16466300D01*
X4008801Y16481272D01*
X4008802Y16481273D01*
X4008805Y16481273D01*
X4122747Y16539329D01*
X4213171Y16629753D01*
X4271227Y16743695D01*
X4272885Y16754159D01*
X4286200Y16838230D01*
X4286200Y16838540D01*
X4286233Y16838654D01*
X4286583Y16843093D01*
X4287515Y16843020D01*
X4305885Y16905579D01*
X4322515Y16926217D01*
X4636279Y17239982D01*
X4697602Y17273466D01*
X4723960Y17276300D01*
X4828810Y17276300D01*
X4828813Y17276300D01*
X4956921Y17310627D01*
X5071779Y17376940D01*
X5165560Y17470721D01*
X5231873Y17585579D01*
X5266200Y17713687D01*
X5266200Y17846313D01*
X5231873Y17974421D01*
X5198716Y18031850D01*
X5165562Y18089276D01*
X5165558Y18089281D01*
X5071780Y18183059D01*
X5071775Y18183063D01*
X4956923Y18249372D01*
X4956922Y18249373D01*
X4924894Y18257955D01*
X4828813Y18283700D01*
X4696187Y18283700D01*
X4600106Y18257955D01*
X4568078Y18249373D01*
X4504370Y18212591D01*
X4436470Y18196119D01*
X4370443Y18218972D01*
X4327253Y18273894D01*
X4320612Y18343447D01*
X4326190Y18363314D01*
X4330444Y18374721D01*
X4336499Y18431045D01*
X4336500Y18431046D01*
X4336500Y18529300D01*
X3769000Y18529300D01*
X3701961Y18548985D01*
X3656206Y18601789D01*
X3645000Y18653300D01*
X3645000Y18732500D01*
X3565800Y18732500D01*
X3498761Y18752185D01*
X3453006Y18804989D01*
X3441800Y18856500D01*
X3441800Y18935700D01*
X3848200Y18935700D01*
X4336500Y18935700D01*
X4336500Y19033954D01*
X4336499Y19033956D01*
X4330444Y19090280D01*
X4330443Y19090283D01*
X4282939Y19217645D01*
X4201471Y19326472D01*
X4092643Y19407940D01*
X4092645Y19407940D01*
X3965282Y19455444D01*
X3965279Y19455445D01*
X3908955Y19461500D01*
X3848200Y19461500D01*
X3848200Y18935700D01*
X3441800Y18935700D01*
X3441800Y19461500D01*
X3381044Y19461500D01*
X3324720Y19455445D01*
X3324717Y19455444D01*
X3197355Y19407940D01*
X3088528Y19326472D01*
X3007060Y19217645D01*
X2959556Y19090283D01*
X2959553Y19090272D01*
X2954527Y19043519D01*
X2927789Y18978968D01*
X2870397Y18939120D01*
X2800572Y18936626D01*
X2740483Y18972278D01*
X2709208Y19034758D01*
X2708765Y19037376D01*
X2695533Y19120918D01*
X2695532Y19120920D01*
X2695532Y19120922D01*
X2634780Y19240155D01*
X2634778Y19240157D01*
X2634775Y19240161D01*
X2540160Y19334776D01*
X2540156Y19334779D01*
X2540155Y19334780D01*
X2420922Y19395532D01*
X2420920Y19395533D01*
X2420917Y19395534D01*
X2322003Y19411200D01*
X2321998Y19411200D01*
X1818002Y19411200D01*
X1817997Y19411200D01*
X1719082Y19395534D01*
X1599843Y19334779D01*
X1599839Y19334776D01*
X1505224Y19240161D01*
X1505221Y19240157D01*
X1444466Y19120918D01*
X1428800Y19022004D01*
X1428800Y18442997D01*
X1444466Y18344083D01*
X1444467Y18344080D01*
X1444468Y18344078D01*
X1505220Y18224845D01*
X1505221Y18224844D01*
X1505224Y18224840D01*
X1599839Y18130225D01*
X1599842Y18130223D01*
X1599845Y18130220D01*
X1709695Y18074249D01*
X1720758Y18063801D01*
X1734603Y18057478D01*
X1745643Y18040299D01*
X1760491Y18026276D01*
X1764732Y18010595D01*
X1772377Y17998700D01*
X1777400Y17963765D01*
X1777400Y17920995D01*
X1757715Y17853956D01*
X1709695Y17810510D01*
X1706195Y17808728D01*
X1706195Y17808727D01*
X1701338Y17806252D01*
X1592251Y17750670D01*
X1592247Y17750667D01*
X1501833Y17660253D01*
X1501828Y17660246D01*
X1443771Y17546302D01*
X1428800Y17451771D01*
X1428800Y16838230D01*
X1428799Y16838230D01*
X1443771Y16743699D01*
X1501828Y16629755D01*
X1501833Y16629748D01*
X1592247Y16539334D01*
X1592251Y16539331D01*
X1592253Y16539329D01*
X1594500Y16538185D01*
X1596734Y16536074D01*
X1600145Y16533596D01*
X1599824Y16533156D01*
X1645295Y16490212D01*
X1662091Y16422392D01*
X1639555Y16356256D01*
X1584840Y16312804D01*
X1538205Y16303700D01*
X231344Y16303700D01*
X231344Y16305090D01*
X169598Y16316805D01*
X118892Y16364875D01*
X102100Y16427184D01*
X102100Y22978005D01*
X739500Y22978005D01*
X739500Y22741996D01*
X739501Y22741980D01*
X770306Y22507990D01*
X831394Y22280007D01*
X921714Y22061955D01*
X921719Y22061944D01*
X992677Y21939043D01*
X1039727Y21857550D01*
X1039729Y21857547D01*
X1039730Y21857546D01*
X1183406Y21670303D01*
X1183412Y21670296D01*
X1350295Y21503413D01*
X1350301Y21503408D01*
X1537550Y21359727D01*
X1668918Y21283882D01*
X1741943Y21241720D01*
X1741948Y21241718D01*
X1741951Y21241716D01*
X1960007Y21151394D01*
X2187986Y21090307D01*
X2421989Y21059500D01*
X2421996Y21059500D01*
X2658004Y21059500D01*
X2658011Y21059500D01*
X2892014Y21090307D01*
X3119993Y21151394D01*
X3338049Y21241716D01*
X3542450Y21359727D01*
X3729699Y21503408D01*
X3896592Y21670301D01*
X4040273Y21857550D01*
X4158284Y22061951D01*
X4248606Y22280007D01*
X4309693Y22507986D01*
X4340500Y22741989D01*
X4340500Y22978005D01*
X21059500Y22978005D01*
X21059500Y22741996D01*
X21059501Y22741980D01*
X21090306Y22507990D01*
X21151394Y22280007D01*
X21241714Y22061955D01*
X21241719Y22061944D01*
X21312677Y21939043D01*
X21359727Y21857550D01*
X21359729Y21857547D01*
X21359730Y21857546D01*
X21503406Y21670303D01*
X21503412Y21670296D01*
X21670295Y21503413D01*
X21670301Y21503408D01*
X21857550Y21359727D01*
X21988918Y21283882D01*
X22061943Y21241720D01*
X22061948Y21241718D01*
X22061951Y21241716D01*
X22280007Y21151394D01*
X22507986Y21090307D01*
X22741989Y21059500D01*
X22741996Y21059500D01*
X22978004Y21059500D01*
X22978011Y21059500D01*
X23212014Y21090307D01*
X23439993Y21151394D01*
X23658049Y21241716D01*
X23862450Y21359727D01*
X24049699Y21503408D01*
X24216592Y21670301D01*
X24360273Y21857550D01*
X24478284Y22061951D01*
X24568606Y22280007D01*
X24629693Y22507986D01*
X24660500Y22741989D01*
X24660500Y22978011D01*
X24629693Y23212014D01*
X24568606Y23439993D01*
X24478284Y23658049D01*
X24478282Y23658052D01*
X24478280Y23658057D01*
X24436118Y23731082D01*
X24360273Y23862450D01*
X24216592Y24049699D01*
X24216587Y24049705D01*
X24049704Y24216588D01*
X24049697Y24216594D01*
X23862454Y24360270D01*
X23862453Y24360271D01*
X23862450Y24360273D01*
X23770324Y24413462D01*
X23658056Y24478281D01*
X23658045Y24478286D01*
X23439993Y24568606D01*
X23212010Y24629694D01*
X22978020Y24660499D01*
X22978017Y24660500D01*
X22978011Y24660500D01*
X22741989Y24660500D01*
X22741983Y24660500D01*
X22741979Y24660499D01*
X22507989Y24629694D01*
X22280006Y24568606D01*
X22061954Y24478286D01*
X22061943Y24478281D01*
X21857545Y24360270D01*
X21670302Y24216594D01*
X21670295Y24216588D01*
X21503412Y24049705D01*
X21503406Y24049698D01*
X21359730Y23862455D01*
X21241719Y23658057D01*
X21241714Y23658046D01*
X21151394Y23439994D01*
X21090306Y23212011D01*
X21059501Y22978021D01*
X21059500Y22978005D01*
X4340500Y22978005D01*
X4340500Y22978011D01*
X4309693Y23212014D01*
X4248606Y23439993D01*
X4158284Y23658049D01*
X4158282Y23658052D01*
X4158280Y23658057D01*
X4116118Y23731082D01*
X4040273Y23862450D01*
X3896592Y24049699D01*
X3896587Y24049705D01*
X3729704Y24216588D01*
X3729697Y24216594D01*
X3542454Y24360270D01*
X3542453Y24360271D01*
X3542450Y24360273D01*
X3450324Y24413462D01*
X3338056Y24478281D01*
X3338045Y24478286D01*
X3119993Y24568606D01*
X2892010Y24629694D01*
X2658020Y24660499D01*
X2658017Y24660500D01*
X2658011Y24660500D01*
X2421989Y24660500D01*
X2421983Y24660500D01*
X2421979Y24660499D01*
X2187989Y24629694D01*
X1960006Y24568606D01*
X1741954Y24478286D01*
X1741943Y24478281D01*
X1537545Y24360270D01*
X1350302Y24216594D01*
X1350295Y24216588D01*
X1183412Y24049705D01*
X1183406Y24049698D01*
X1039730Y23862455D01*
X921719Y23658057D01*
X921714Y23658046D01*
X831394Y23439994D01*
X770306Y23212011D01*
X739501Y22978021D01*
X739500Y22978005D01*
X102100Y22978005D01*
X102100Y24290724D01*
X121785Y24357763D01*
X174589Y24403518D01*
X243747Y24413462D01*
X307303Y24384437D01*
X313781Y24378405D01*
X327686Y24364500D01*
X441814Y24298608D01*
X569108Y24264500D01*
X569110Y24264500D01*
X700890Y24264500D01*
X700892Y24264500D01*
X828186Y24298608D01*
X942314Y24364500D01*
X1035500Y24457686D01*
X1101392Y24571814D01*
X1135500Y24699108D01*
X1135500Y24830892D01*
X1101392Y24958186D01*
X1035500Y25072314D01*
X1021595Y25086219D01*
X988110Y25147542D01*
X993094Y25217234D01*
X1034966Y25273167D01*
X1100430Y25297584D01*
X1109276Y25297900D01*
X25173900Y25297900D01*
X25240939Y25278215D01*
G37*
%TD.AperFunction*%
%TD*%
M02*
