%TF.GenerationSoftware,KiCad,Pcbnew,9.0.7*%
%TF.CreationDate,2026-03-30T14:18:12-06:00*%
%TF.ProjectId,MCP4725_Breakout_Qwiic,4d435034-3732-4355-9f42-7265616b6f75,v10*%
%TF.SameCoordinates,Original*%
%TF.FileFunction,Soldermask,Top*%
%TF.FilePolarity,Negative*%
%FSLAX46Y46*%
G04 Gerber Fmt 4.6, Leading zero omitted, Abs format (unit mm)*
G04 Created by KiCad (PCBNEW 9.0.7) date 2026-03-30 14:18:12*
%MOMM*%
%LPD*%
G01*
G04 APERTURE LIST*
G04 Aperture macros list*
%AMRoundRect*
0 Rectangle with rounded corners*
0 $1 Rounding radius*
0 $2 $3 $4 $5 $6 $7 $8 $9 X,Y pos of 4 corners*
0 Add a 4 corners polygon primitive as box body*
4,1,4,$2,$3,$4,$5,$6,$7,$8,$9,$2,$3,0*
0 Add four circle primitives for the rounded corners*
1,1,$1+$1,$2,$3*
1,1,$1+$1,$4,$5*
1,1,$1+$1,$6,$7*
1,1,$1+$1,$8,$9*
0 Add four rect primitives between the rounded corners*
20,1,$1+$1,$2,$3,$4,$5,0*
20,1,$1+$1,$4,$5,$6,$7,0*
20,1,$1+$1,$6,$7,$8,$9,0*
20,1,$1+$1,$8,$9,$2,$3,0*%
G04 Aperture macros list end*
%ADD10RoundRect,0.263500X-0.263500X-0.338500X0.263500X-0.338500X0.263500X0.338500X-0.263500X0.338500X0*%
%ADD11C,2.133600*%
%ADD12C,3.354000*%
%ADD13C,0.754000*%
%ADD14RoundRect,0.127000X0.600000X-0.275000X0.600000X0.275000X-0.600000X0.275000X-0.600000X-0.275000X0*%
%ADD15RoundRect,0.127000X-0.675000X0.300000X-0.675000X-0.300000X0.675000X-0.300000X0.675000X0.300000X0*%
%ADD16RoundRect,0.127000X-1.000000X0.600000X-1.000000X-0.600000X1.000000X-0.600000X1.000000X0.600000X0*%
%ADD17RoundRect,0.263500X-0.338500X0.263500X-0.338500X-0.263500X0.338500X-0.263500X0.338500X0.263500X0*%
%ADD18RoundRect,0.127000X0.675000X-0.300000X0.675000X0.300000X-0.675000X0.300000X-0.675000X-0.300000X0*%
%ADD19RoundRect,0.127000X1.000000X-0.600000X1.000000X0.600000X-1.000000X0.600000X-1.000000X-0.600000X0*%
%ADD20RoundRect,0.288500X0.288500X0.313500X-0.288500X0.313500X-0.288500X-0.313500X0.288500X-0.313500X0*%
%ADD21RoundRect,0.282250X0.282250X0.319750X-0.282250X0.319750X-0.282250X-0.319750X0.282250X-0.319750X0*%
G04 APERTURE END LIST*
D10*
%TO.C,R2*%
X2032500Y17145000D03*
X3682500Y17145000D03*
%TD*%
D11*
%TO.C,J2*%
X6350000Y1270000D03*
X8890000Y1270000D03*
X11430000Y1270000D03*
X13970000Y1270000D03*
%TD*%
D12*
%TO.C,ST2*%
X2540000Y2540000D03*
%TD*%
%TO.C,ST4*%
X22860000Y2540000D03*
%TD*%
D13*
%TO.C,FID3*%
X24765000Y635000D03*
%TD*%
D14*
%TO.C,U2*%
X14000100Y11750000D03*
X14000100Y12700000D03*
X14000100Y13650000D03*
X11399900Y13650000D03*
X11400000Y12700000D03*
X11399900Y11750000D03*
%TD*%
D15*
%TO.C,J4*%
X4932500Y14200000D03*
X4932500Y13200000D03*
X4932500Y12200000D03*
X4932500Y11200000D03*
D16*
X1257500Y9900000D03*
X1257500Y15500000D03*
%TD*%
D11*
%TO.C,J1*%
X16510000Y1270000D03*
X19050000Y1270000D03*
%TD*%
D10*
%TO.C,R1*%
X13145000Y10160000D03*
X14795000Y10160000D03*
%TD*%
D13*
%TO.C,FID2*%
X635000Y24765000D03*
%TD*%
D17*
%TO.C,R4*%
X7620000Y13525000D03*
X7620000Y11875000D03*
%TD*%
D18*
%TO.C,J3*%
X20467500Y11200000D03*
X20467500Y12200000D03*
X20467500Y13200000D03*
X20467500Y14200000D03*
D19*
X24142500Y15500000D03*
X24142500Y9900000D03*
%TD*%
D20*
%TO.C,C1*%
X14745000Y15240000D03*
X13195000Y15240000D03*
%TD*%
D21*
%TO.C,D1*%
X3645000Y18732500D03*
X2070000Y18732500D03*
%TD*%
D17*
%TO.C,R5*%
X9525000Y13525000D03*
X9525000Y11875000D03*
%TD*%
D12*
%TO.C,ST1*%
X2540000Y22860000D03*
%TD*%
%TO.C,ST3*%
X22860000Y22860000D03*
%TD*%
M02*
