%TF.GenerationSoftware,KiCad,Pcbnew,9.0.7*%
%TF.CreationDate,2026-03-30T14:18:12-06:00*%
%TF.ProjectId,MCP4725_Breakout_Qwiic,4d435034-3732-4355-9f42-7265616b6f75,v10*%
%TF.SameCoordinates,Original*%
%TF.FileFunction,Legend,Top*%
%TF.FilePolarity,Positive*%
%FSLAX46Y46*%
G04 Gerber Fmt 4.6, Leading zero omitted, Abs format (unit mm)*
G04 Created by KiCad (PCBNEW 9.0.7) date 2026-03-30 14:18:12*
%MOMM*%
%LPD*%
G01*
G04 APERTURE LIST*
%ADD10C,0.120000*%
%ADD11C,0.000000*%
%ADD12C,0.203200*%
%ADD13C,0.200000*%
G04 APERTURE END LIST*
D10*
%TO.C,R2*%
X2620242Y17667500D02*
X3094758Y17667500D01*
X2620242Y16622500D02*
X3094758Y16622500D01*
D11*
%TO.C,G\u002A\u002A\u002A*%
G36*
X1271829Y8144896D02*
G01*
X1310199Y8132276D01*
X1344998Y8109932D01*
X1354090Y8102156D01*
X1385191Y8067838D01*
X1407175Y8028449D01*
X1420459Y7982782D01*
X1425458Y7929630D01*
X1424833Y7896881D01*
X1422852Y7867974D01*
X1419684Y7846459D01*
X1414129Y7827647D01*
X1404984Y7806854D01*
X1398383Y7793646D01*
X1372487Y7752517D01*
X1341564Y7721930D01*
X1304379Y7701068D01*
X1259699Y7689113D01*
X1236553Y7686400D01*
X1211604Y7686580D01*
X1185897Y7689941D01*
X1178234Y7691768D01*
X1132069Y7710406D01*
X1094145Y7737786D01*
X1064649Y7773647D01*
X1043770Y7817728D01*
X1031695Y7869770D01*
X1029029Y7898475D01*
X1029952Y7956569D01*
X1039485Y8006870D01*
X1057993Y8050411D01*
X1085841Y8088227D01*
X1101472Y8103610D01*
X1135659Y8128226D01*
X1173472Y8142958D01*
X1217422Y8148711D01*
X1226972Y8148864D01*
X1271829Y8144896D01*
G37*
G36*
X3029280Y8731625D02*
G01*
X3192416Y8731618D01*
X3344303Y8731603D01*
X3485355Y8731578D01*
X3615988Y8731539D01*
X3736616Y8731485D01*
X3847654Y8731413D01*
X3949515Y8731321D01*
X4042616Y8731205D01*
X4127369Y8731064D01*
X4204190Y8730894D01*
X4273494Y8730694D01*
X4335695Y8730461D01*
X4391207Y8730191D01*
X4440445Y8729884D01*
X4483824Y8729535D01*
X4521759Y8729144D01*
X4554663Y8728706D01*
X4582952Y8728220D01*
X4607040Y8727682D01*
X4627341Y8727091D01*
X4644271Y8726444D01*
X4658243Y8725739D01*
X4669673Y8724972D01*
X4678974Y8724142D01*
X4686563Y8723245D01*
X4692852Y8722279D01*
X4698257Y8721243D01*
X4702412Y8720316D01*
X4800542Y8691544D01*
X4892291Y8652838D01*
X4977189Y8604556D01*
X5054769Y8547059D01*
X5124560Y8480705D01*
X5186093Y8405853D01*
X5238901Y8322862D01*
X5250918Y8300433D01*
X5288658Y8217227D01*
X5315564Y8133842D01*
X5332221Y8047837D01*
X5339217Y7956770D01*
X5339526Y7931734D01*
X5334107Y7831366D01*
X5317777Y7736132D01*
X5290430Y7645765D01*
X5251957Y7559996D01*
X5202252Y7478559D01*
X5141207Y7401184D01*
X5115126Y7372908D01*
X5046870Y7308684D01*
X4974809Y7254646D01*
X4897484Y7209984D01*
X4813438Y7173889D01*
X4721213Y7145548D01*
X4694555Y7139083D01*
X4635983Y7125613D01*
X3185115Y7123804D01*
X1734248Y7121996D01*
X1734248Y7753190D01*
X1734248Y8381366D01*
X1783730Y8381366D01*
X1950727Y7920996D01*
X2117724Y7460627D01*
X2269101Y7460523D01*
X2420479Y7460419D01*
X2507046Y7739723D01*
X2524374Y7795464D01*
X2540708Y7847687D01*
X2555686Y7895256D01*
X2568946Y7937036D01*
X2580125Y7971892D01*
X2588861Y7998687D01*
X2594793Y8016287D01*
X2597557Y8023556D01*
X2597621Y8023647D01*
X2600123Y8018981D01*
X2605773Y8003837D01*
X2614218Y7979293D01*
X2625105Y7946430D01*
X2638081Y7906328D01*
X2652795Y7860068D01*
X2668893Y7808730D01*
X2686022Y7753394D01*
X2688802Y7744350D01*
X2775974Y7460434D01*
X2926985Y7460426D01*
X3077997Y7460419D01*
X3245542Y7918500D01*
X3246968Y7922402D01*
X3455360Y7922402D01*
X3455360Y7460419D01*
X3606335Y7460419D01*
X3757310Y7460419D01*
X3757310Y7922402D01*
X3757310Y8384385D01*
X3817700Y8384385D01*
X3817700Y7922402D01*
X3817700Y7460419D01*
X3968675Y7460419D01*
X4119649Y7460419D01*
X4119649Y7919383D01*
X4183076Y7919383D01*
X4183661Y7871013D01*
X4185819Y7831654D01*
X4190181Y7798278D01*
X4197378Y7767854D01*
X4208039Y7737354D01*
X4222796Y7703748D01*
X4231899Y7684850D01*
X4267371Y7626015D01*
X4312008Y7574902D01*
X4365232Y7532099D01*
X4406747Y7507672D01*
X4462294Y7482174D01*
X4515206Y7464754D01*
X4569464Y7454502D01*
X4629051Y7450509D01*
X4657120Y7450486D01*
X4714490Y7451361D01*
X4716123Y7572906D01*
X4717755Y7694451D01*
X4664370Y7697003D01*
X4621207Y7702137D01*
X4586472Y7713631D01*
X4557745Y7732533D01*
X4539661Y7751033D01*
X4514022Y7789772D01*
X4496223Y7834222D01*
X4486199Y7882198D01*
X4483882Y7931518D01*
X4489206Y7979999D01*
X4502105Y8025456D01*
X4522512Y8065708D01*
X4550240Y8098461D01*
X4579580Y8121002D01*
X4609665Y8134889D01*
X4644401Y8141555D01*
X4670830Y8142693D01*
X4717755Y8142825D01*
X4716122Y8268134D01*
X4714490Y8393443D01*
X4639003Y8392473D01*
X4578895Y8389412D01*
X4526101Y8381279D01*
X4476590Y8367142D01*
X4426329Y8346070D01*
X4415560Y8340805D01*
X4367026Y8311156D01*
X4320483Y8272638D01*
X4278919Y8228199D01*
X4245327Y8180786D01*
X4235794Y8163620D01*
X4216794Y8124068D01*
X4202779Y8088011D01*
X4193074Y8052324D01*
X4187006Y8013879D01*
X4183899Y7969552D01*
X4183076Y7919383D01*
X4119649Y7919383D01*
X4119649Y7922402D01*
X4119649Y8384385D01*
X3968675Y8384385D01*
X3817700Y8384385D01*
X3757310Y8384385D01*
X3606335Y8384385D01*
X3455360Y8384385D01*
X3455360Y7922402D01*
X3246968Y7922402D01*
X3271526Y7989587D01*
X3296276Y8057392D01*
X3319482Y8121060D01*
X3340836Y8179738D01*
X3360028Y8232571D01*
X3376747Y8278704D01*
X3390683Y8317284D01*
X3401528Y8347457D01*
X3408970Y8368367D01*
X3412701Y8379162D01*
X3413087Y8380482D01*
X3407322Y8381563D01*
X3391118Y8382530D01*
X3366116Y8383337D01*
X3333956Y8383943D01*
X3296276Y8384303D01*
X3266276Y8384385D01*
X3119464Y8384385D01*
X3032953Y8089984D01*
X3015902Y8032077D01*
X2999692Y7977253D01*
X2984676Y7926691D01*
X2971208Y7881568D01*
X2959639Y7843061D01*
X2950324Y7812349D01*
X2943613Y7790609D01*
X2939861Y7779017D01*
X2939460Y7777927D01*
X2938121Y7774908D01*
X2936679Y7773173D01*
X2934917Y7773401D01*
X2932621Y7776271D01*
X2929577Y7782463D01*
X2925569Y7792655D01*
X2920382Y7807528D01*
X2913802Y7827759D01*
X2905614Y7854029D01*
X2895603Y7887016D01*
X2883554Y7927400D01*
X2869252Y7975859D01*
X2852482Y8033074D01*
X2833030Y8099722D01*
X2810681Y8176484D01*
X2785219Y8264038D01*
X2780078Y8281722D01*
X2751109Y8381366D01*
X2605416Y8382982D01*
X2459723Y8384598D01*
X2444670Y8334670D01*
X2439789Y8318213D01*
X2432009Y8291638D01*
X2421760Y8256438D01*
X2409477Y8214104D01*
X2395592Y8166127D01*
X2380536Y8114000D01*
X2364743Y8059214D01*
X2355783Y8028084D01*
X2340324Y7974545D01*
X2325789Y7924587D01*
X2312534Y7879410D01*
X2300917Y7840209D01*
X2291292Y7808182D01*
X2284018Y7784526D01*
X2279449Y7770438D01*
X2278044Y7766901D01*
X2275649Y7771639D01*
X2270212Y7786925D01*
X2262060Y7811709D01*
X2251520Y7844941D01*
X2238920Y7885569D01*
X2224587Y7932544D01*
X2208850Y7984816D01*
X2192035Y8041333D01*
X2184498Y8066873D01*
X2167252Y8125323D01*
X2150943Y8180336D01*
X2135903Y8230810D01*
X2122465Y8275644D01*
X2110960Y8313736D01*
X2101720Y8343983D01*
X2095078Y8365286D01*
X2091364Y8376541D01*
X2090771Y8377985D01*
X2084327Y8380245D01*
X2067866Y8381877D01*
X2040914Y8382896D01*
X2002998Y8383317D01*
X1953644Y8383155D01*
X1935208Y8382981D01*
X1783730Y8381366D01*
X1734248Y8381366D01*
X1734248Y8384385D01*
X1580253Y8384385D01*
X1426259Y8384385D01*
X1426259Y8325711D01*
X1426259Y8267037D01*
X1394554Y8297944D01*
X1347425Y8336942D01*
X1295190Y8366252D01*
X1263206Y8378934D01*
X1232093Y8386571D01*
X1192898Y8391453D01*
X1149310Y8393531D01*
X1105021Y8392752D01*
X1063719Y8389066D01*
X1029093Y8382422D01*
X1028208Y8382179D01*
X962445Y8357958D01*
X903183Y8323689D01*
X850997Y8279849D01*
X806459Y8226913D01*
X772438Y8170001D01*
X749730Y8114037D01*
X733245Y8050679D01*
X723492Y7983173D01*
X720982Y7914765D01*
X724312Y7863467D01*
X730862Y7814918D01*
X739000Y7774299D01*
X749887Y7737468D01*
X764682Y7700285D01*
X778008Y7671784D01*
X812141Y7614480D01*
X854624Y7564104D01*
X903950Y7522183D01*
X955218Y7491852D01*
X1021061Y7466492D01*
X1090307Y7452136D01*
X1152981Y7448341D01*
X1219160Y7453625D01*
X1279794Y7469377D01*
X1334497Y7495452D01*
X1382881Y7531700D01*
X1390494Y7538907D01*
X1426259Y7573903D01*
X1426259Y7348069D01*
X1426259Y7122236D01*
X1279814Y7123251D01*
X1237482Y7123627D01*
X1197892Y7124135D01*
X1163065Y7124736D01*
X1135025Y7125392D01*
X1115794Y7126065D01*
X1109212Y7126471D01*
X1014213Y7140955D01*
X922387Y7166380D01*
X834650Y7202065D01*
X751918Y7247330D01*
X675105Y7301492D01*
X605127Y7363871D01*
X542900Y7433787D01*
X489339Y7510557D01*
X445359Y7593502D01*
X428987Y7632531D01*
X399372Y7723762D01*
X380275Y7816225D01*
X371965Y7908109D01*
X374684Y7997301D01*
X389742Y8097563D01*
X415382Y8192032D01*
X451703Y8280916D01*
X498804Y8364420D01*
X556785Y8442750D01*
X621662Y8512205D01*
X695157Y8575432D01*
X773850Y8628175D01*
X858653Y8670938D01*
X950478Y8704223D01*
X989797Y8715101D01*
X1054861Y8731627D01*
X2854481Y8731627D01*
X3029280Y8731625D01*
G37*
%TO.C,kibuzzard-69B46E2F*%
G36*
X11483219Y4082103D02*
G01*
X11372203Y4135894D01*
X11483219Y4189685D01*
X11483219Y4082103D01*
G37*
G36*
X11500243Y3490114D02*
G01*
X11561617Y3448054D01*
X11603247Y3386538D01*
X11617124Y3314149D01*
X11617124Y3221445D01*
X11236009Y3221445D01*
X11236009Y3313004D01*
X11250029Y3386252D01*
X11292089Y3448054D01*
X11353891Y3490114D01*
X11427139Y3504134D01*
X11500243Y3490114D01*
G37*
G36*
X12227520Y3116152D02*
G01*
X12227520Y2669800D01*
X12227520Y2372232D01*
X12227520Y1990734D01*
X10632480Y1990734D01*
X10632480Y2372232D01*
X10632480Y2659499D01*
X11013977Y2659499D01*
X11021671Y2586125D01*
X11044751Y2521652D01*
X11083219Y2466080D01*
X11133386Y2423480D01*
X11191564Y2397919D01*
X11257754Y2389399D01*
X11332146Y2398555D01*
X11393948Y2426023D01*
X11443162Y2471803D01*
X11479785Y2535894D01*
X11495379Y2579242D01*
X11510114Y2633748D01*
X11537010Y2723591D01*
X11572489Y2753348D01*
X11625708Y2732747D01*
X11642303Y2665222D01*
X11631431Y2620014D01*
X11589657Y2573662D01*
X11547946Y2522033D01*
X11540316Y2472438D01*
X11566767Y2424878D01*
X11640014Y2376810D01*
X11714406Y2405422D01*
X11722418Y2412289D01*
X11738441Y2424878D01*
X11758469Y2444907D01*
X11780787Y2472375D01*
X11802532Y2507854D01*
X11821416Y2551917D01*
X11834006Y2605708D01*
X11839156Y2669800D01*
X11830572Y2745908D01*
X11801388Y2824306D01*
X11750458Y2894692D01*
X11673205Y2944478D01*
X11623705Y2959070D01*
X11569056Y2963934D01*
X11483505Y2953205D01*
X11421416Y2921016D01*
X11377926Y2870801D01*
X11348169Y2805994D01*
X11330429Y2732747D01*
X11316123Y2662933D01*
X11296094Y2617725D01*
X11258898Y2597697D01*
X11223991Y2616009D01*
X11209685Y2658355D01*
X11213691Y2696123D01*
X11222275Y2718441D01*
X11235436Y2734464D01*
X11246309Y2747625D01*
X11267482Y2824306D01*
X11211974Y2891831D01*
X11141588Y2919299D01*
X11082647Y2878097D01*
X11044497Y2818711D01*
X11021607Y2745845D01*
X11013977Y2659499D01*
X10632480Y2659499D01*
X10632480Y3314149D01*
X11026567Y3314149D01*
X11026567Y3117296D01*
X11034006Y3056638D01*
X11059757Y3024592D01*
X11091230Y3013720D01*
X11129571Y3012003D01*
X11721273Y3012003D01*
X11761903Y3014864D01*
X11793948Y3026881D01*
X11818555Y3058355D01*
X11826567Y3116152D01*
X11826567Y3310715D01*
X11819163Y3391187D01*
X11796953Y3465508D01*
X11759936Y3533677D01*
X11708112Y3595694D01*
X11645844Y3647268D01*
X11577496Y3684106D01*
X11503069Y3706209D01*
X11422561Y3713577D01*
X11344163Y3706209D01*
X11271488Y3684106D01*
X11204535Y3647268D01*
X11143305Y3595694D01*
X11092232Y3533891D01*
X11055751Y3466366D01*
X11033863Y3393119D01*
X11026567Y3314149D01*
X10632480Y3314149D01*
X10632480Y4137039D01*
X11026567Y4137039D01*
X11043162Y4080959D01*
X11087225Y4040901D01*
X11682361Y3753634D01*
X11763047Y3738755D01*
X11818555Y3802847D01*
X11835150Y3886395D01*
X11771631Y3943619D01*
X11661760Y3996266D01*
X11661760Y4277811D01*
X11770486Y4330458D01*
X11836295Y4386538D01*
X11819700Y4471230D01*
X11763619Y4534750D01*
X11682361Y4519299D01*
X11088369Y4232031D01*
X11042017Y4192833D01*
X11026567Y4137039D01*
X10632480Y4137039D01*
X10632480Y4545622D01*
X10632480Y4831745D01*
X10636320Y4909916D01*
X10647804Y4987334D01*
X10666821Y5063253D01*
X10693187Y5136943D01*
X10726650Y5207694D01*
X10766886Y5274824D01*
X10813508Y5337687D01*
X10866068Y5395677D01*
X10924058Y5448237D01*
X10986921Y5494859D01*
X11054052Y5535095D01*
X11124802Y5568558D01*
X11198492Y5594925D01*
X11274412Y5613941D01*
X11351829Y5625425D01*
X11430000Y5629266D01*
X11508171Y5625425D01*
X11585588Y5613941D01*
X11661508Y5594925D01*
X11735198Y5568558D01*
X11805948Y5535095D01*
X11873079Y5494859D01*
X11935942Y5448237D01*
X11993932Y5395677D01*
X12046492Y5337687D01*
X12093114Y5274824D01*
X12133350Y5207694D01*
X12166813Y5136943D01*
X12193179Y5063253D01*
X12212196Y4987334D01*
X12223680Y4909916D01*
X12227520Y4831745D01*
X12227520Y4545622D01*
X12227520Y4386538D01*
X12227520Y3116152D01*
G37*
%TO.C,kibuzzard-69BC04C8*%
G36*
X3284396Y20395633D02*
G01*
X3355926Y20345275D01*
X3349632Y20261727D01*
X3144768Y19671170D01*
X3109002Y19617951D01*
X3045197Y19600211D01*
X2996556Y19610511D01*
X2964510Y19636263D01*
X2949632Y19660297D01*
X2943337Y19676892D01*
X2835755Y20029396D01*
X2728172Y19678036D01*
X2691263Y19619667D01*
X2626313Y19600211D01*
X2569088Y19616806D01*
X2538187Y19646563D01*
X2527886Y19671170D01*
X2321878Y20261727D01*
X2316727Y20346420D01*
X2388258Y20394489D01*
X2473523Y20399639D01*
X2519875Y20329253D01*
X2638902Y19981327D01*
X2732750Y20323530D01*
X2767657Y20381041D01*
X2833466Y20400211D01*
X2866656Y20397350D01*
X2891835Y20387622D01*
X2909574Y20375032D01*
X2922164Y20360154D01*
X2929603Y20345848D01*
X2935325Y20331541D01*
X2938759Y20322386D01*
X3032607Y19979038D01*
X3151634Y20329253D01*
X3197986Y20400211D01*
X3284396Y20395633D01*
G37*
G36*
X2033180Y20395633D02*
G01*
X2081534Y20381899D01*
X2129603Y20359582D01*
X2175383Y20329253D01*
X2216155Y20288766D01*
X2249202Y20235976D01*
X2271091Y20174031D01*
X2278387Y20106077D01*
X2271234Y20038408D01*
X2249775Y19977321D01*
X2217014Y19925390D01*
X2175955Y19885190D01*
X2129603Y19854861D01*
X2080962Y19832543D01*
X2032178Y19818809D01*
X1985397Y19814231D01*
X1862936Y19814231D01*
X1862936Y19704360D01*
X1861220Y19664875D01*
X1850347Y19633974D01*
X1818301Y19608222D01*
X1757643Y19600211D01*
X1698129Y19608222D01*
X1666084Y19634546D01*
X1655211Y19666019D01*
X1653494Y19705504D01*
X1653494Y20023673D01*
X1862936Y20023673D01*
X1986541Y20023673D01*
X2043194Y20044274D01*
X2070089Y20107221D01*
X2045483Y20166735D01*
X1985397Y20190769D01*
X1862936Y20190769D01*
X1862936Y20023673D01*
X1653494Y20023673D01*
X1653494Y20296062D01*
X1655211Y20334403D01*
X1666084Y20365876D01*
X1698129Y20392200D01*
X1758788Y20400211D01*
X1986541Y20400211D01*
X2033180Y20395633D01*
G37*
G36*
X3800132Y20395633D02*
G01*
X3848058Y20381899D01*
X3895840Y20359582D01*
X3941906Y20329253D01*
X3982965Y20288766D01*
X4015726Y20235976D01*
X4037185Y20174031D01*
X4044338Y20106077D01*
X4033148Y20020367D01*
X3999576Y19946356D01*
X3943623Y19884045D01*
X4026026Y19774174D01*
X4056928Y19695204D01*
X4001992Y19627679D01*
X3920733Y19596205D01*
X3856642Y19649424D01*
X3734181Y19815376D01*
X3627743Y19815376D01*
X3627743Y19704360D01*
X3626026Y19664875D01*
X3615154Y19633974D01*
X3583108Y19608222D01*
X3522450Y19600211D01*
X3462936Y19608222D01*
X3430891Y19634546D01*
X3420018Y19666019D01*
X3418301Y19705504D01*
X3418301Y20023673D01*
X3627743Y20023673D01*
X3753637Y20023673D01*
X3808573Y20044274D01*
X3834896Y20107221D01*
X3810290Y20166735D01*
X3751348Y20190769D01*
X3627743Y20190769D01*
X3627743Y20023673D01*
X3418301Y20023673D01*
X3418301Y20296062D01*
X3420018Y20334403D01*
X3430891Y20365876D01*
X3462936Y20392200D01*
X3523594Y20400211D01*
X3753637Y20400211D01*
X3800132Y20395633D01*
G37*
D12*
%TO.C,U2*%
X12270600Y13970000D02*
X13129400Y13970000D01*
X13129400Y11430000D02*
X12270600Y11430000D01*
D13*
X13816000Y11099800D02*
G75*
G02*
X13616000Y11099800I-100000J0D01*
G01*
X13616000Y11099800D02*
G75*
G02*
X13816000Y11099800I100000J0D01*
G01*
D11*
%TO.C,kibuzzard-69B46D94*%
G36*
X6424249Y4410669D02*
G01*
X6485622Y4368609D01*
X6527253Y4307092D01*
X6541130Y4234703D01*
X6541130Y4141999D01*
X6160014Y4141999D01*
X6160014Y4233559D01*
X6174034Y4306806D01*
X6216094Y4368609D01*
X6277897Y4410669D01*
X6351144Y4424689D01*
X6424249Y4410669D01*
G37*
G36*
X7144659Y3268752D02*
G01*
X7144659Y2753730D01*
X7144659Y2350869D01*
X7144659Y1969372D01*
X5555341Y1969372D01*
X5555341Y2350869D01*
X5555341Y2761742D01*
X5936838Y2761742D01*
X5944242Y2680089D01*
X5966452Y2604517D01*
X6003469Y2535025D01*
X6055293Y2471613D01*
X6117489Y2418788D01*
X6185622Y2381055D01*
X6259692Y2358416D01*
X6339700Y2350869D01*
X6423605Y2358308D01*
X6501359Y2380626D01*
X6572961Y2417822D01*
X6638412Y2469896D01*
X6692990Y2532271D01*
X6731974Y2600368D01*
X6755365Y2674188D01*
X6763162Y2753730D01*
X6758202Y2841475D01*
X6743324Y2917011D01*
X6718526Y2980340D01*
X6692060Y3022400D01*
X6660730Y3054732D01*
X6594921Y3082200D01*
X6360300Y3082200D01*
X6331688Y3081627D01*
X6306509Y3076477D01*
X6283619Y3062743D01*
X6268741Y3035848D01*
X6260730Y2991785D01*
X6260730Y2791499D01*
X6262446Y2760597D01*
X6271602Y2735418D01*
X6298498Y2714245D01*
X6348856Y2707951D01*
X6400358Y2713673D01*
X6427253Y2733129D01*
X6436409Y2757164D01*
X6438126Y2788065D01*
X6438126Y2872758D01*
X6536552Y2872758D01*
X6547711Y2824117D01*
X6551431Y2758308D01*
X6535694Y2684202D01*
X6488484Y2619825D01*
X6420386Y2575190D01*
X6341989Y2560311D01*
X6266023Y2574617D01*
X6202933Y2617536D01*
X6160443Y2680769D01*
X6146280Y2756019D01*
X6154292Y2826692D01*
X6178326Y2885347D01*
X6204649Y2947149D01*
X6189485Y2989496D01*
X6143991Y3031842D01*
X6079900Y3058165D01*
X6046710Y3047293D01*
X6022675Y3026119D01*
X5999785Y2994074D01*
X5973319Y2945004D01*
X5953433Y2884775D01*
X5940987Y2821112D01*
X5936838Y2761742D01*
X5555341Y2761742D01*
X5555341Y3764317D01*
X5951717Y3764317D01*
X5959728Y3704803D01*
X5984335Y3672758D01*
X6014664Y3661313D01*
X6052432Y3659024D01*
X6380901Y3659024D01*
X5996352Y3372901D01*
X5972890Y3352300D01*
X5958584Y3323115D01*
X5951717Y3271041D01*
X5959156Y3210955D01*
X5983763Y3179481D01*
X6014092Y3168036D01*
X6052432Y3165747D01*
X6646423Y3165747D01*
X6686481Y3168036D01*
X6717954Y3178909D01*
X6743705Y3209810D01*
X6751717Y3268752D01*
X6743705Y3329410D01*
X6717954Y3361456D01*
X6687053Y3372328D01*
X6647568Y3374045D01*
X6329399Y3374045D01*
X6720815Y3670469D01*
X6745422Y3704231D01*
X6751717Y3763172D01*
X6743705Y3823830D01*
X6717954Y3855876D01*
X6687053Y3866749D01*
X6647568Y3868466D01*
X6057010Y3868466D01*
X6017525Y3866749D01*
X5986052Y3855876D01*
X5959728Y3823830D01*
X5951717Y3764317D01*
X5555341Y3764317D01*
X5555341Y4234703D01*
X5950572Y4234703D01*
X5950572Y4037851D01*
X5958011Y3977192D01*
X5983763Y3945147D01*
X6015236Y3934274D01*
X6053577Y3932557D01*
X6645279Y3932557D01*
X6685908Y3935418D01*
X6717954Y3947436D01*
X6742561Y3978909D01*
X6750572Y4036706D01*
X6750572Y4231270D01*
X6743169Y4311742D01*
X6720959Y4386062D01*
X6683941Y4454231D01*
X6632117Y4516248D01*
X6569850Y4567822D01*
X6501502Y4604660D01*
X6427074Y4626763D01*
X6346567Y4634131D01*
X6268169Y4626763D01*
X6195494Y4604660D01*
X6128541Y4567822D01*
X6067310Y4516248D01*
X6016237Y4454446D01*
X5979757Y4386921D01*
X5957868Y4313673D01*
X5950572Y4234703D01*
X5555341Y4234703D01*
X5555341Y4634131D01*
X5555341Y5015628D01*
X7144659Y5015628D01*
X7144659Y4634131D01*
X7144659Y4036706D01*
X7144659Y3268752D01*
G37*
G36*
X19124249Y4410669D02*
G01*
X19185622Y4368609D01*
X19227253Y4307092D01*
X19241130Y4234703D01*
X19241130Y4141999D01*
X18860014Y4141999D01*
X18860014Y4233559D01*
X18874034Y4306806D01*
X18916094Y4368609D01*
X18977897Y4410669D01*
X19051144Y4424689D01*
X19124249Y4410669D01*
G37*
G36*
X19844659Y3268752D02*
G01*
X19844659Y2753730D01*
X19844659Y2350869D01*
X19844659Y1969372D01*
X18255341Y1969372D01*
X18255341Y2350869D01*
X18255341Y2761742D01*
X18636838Y2761742D01*
X18644242Y2680089D01*
X18666452Y2604517D01*
X18703469Y2535025D01*
X18755293Y2471613D01*
X18817489Y2418788D01*
X18885622Y2381055D01*
X18959692Y2358416D01*
X19039700Y2350869D01*
X19123605Y2358308D01*
X19201359Y2380626D01*
X19272961Y2417822D01*
X19338412Y2469896D01*
X19392990Y2532271D01*
X19431974Y2600368D01*
X19455365Y2674188D01*
X19463162Y2753730D01*
X19458202Y2841475D01*
X19443324Y2917011D01*
X19418526Y2980340D01*
X19392060Y3022400D01*
X19360730Y3054732D01*
X19294921Y3082200D01*
X19060300Y3082200D01*
X19031688Y3081627D01*
X19006509Y3076477D01*
X18983619Y3062743D01*
X18968741Y3035848D01*
X18960730Y2991785D01*
X18960730Y2791499D01*
X18962446Y2760597D01*
X18971602Y2735418D01*
X18998498Y2714245D01*
X19048856Y2707951D01*
X19100358Y2713673D01*
X19127253Y2733129D01*
X19136409Y2757164D01*
X19138126Y2788065D01*
X19138126Y2872758D01*
X19236552Y2872758D01*
X19247711Y2824117D01*
X19251431Y2758308D01*
X19235694Y2684202D01*
X19188484Y2619825D01*
X19120386Y2575190D01*
X19041989Y2560311D01*
X18966023Y2574617D01*
X18902933Y2617536D01*
X18860443Y2680769D01*
X18846280Y2756019D01*
X18854292Y2826692D01*
X18878326Y2885347D01*
X18904649Y2947149D01*
X18889485Y2989496D01*
X18843991Y3031842D01*
X18779900Y3058165D01*
X18746710Y3047293D01*
X18722675Y3026119D01*
X18699785Y2994074D01*
X18673319Y2945004D01*
X18653433Y2884775D01*
X18640987Y2821112D01*
X18636838Y2761742D01*
X18255341Y2761742D01*
X18255341Y3764317D01*
X18651717Y3764317D01*
X18659728Y3704803D01*
X18684335Y3672758D01*
X18714664Y3661313D01*
X18752432Y3659024D01*
X19080901Y3659024D01*
X18696352Y3372901D01*
X18672890Y3352300D01*
X18658584Y3323115D01*
X18651717Y3271041D01*
X18659156Y3210955D01*
X18683763Y3179481D01*
X18714092Y3168036D01*
X18752432Y3165747D01*
X19346423Y3165747D01*
X19386481Y3168036D01*
X19417954Y3178909D01*
X19443705Y3209810D01*
X19451717Y3268752D01*
X19443705Y3329410D01*
X19417954Y3361456D01*
X19387053Y3372328D01*
X19347568Y3374045D01*
X19029399Y3374045D01*
X19420815Y3670469D01*
X19445422Y3704231D01*
X19451717Y3763172D01*
X19443705Y3823830D01*
X19417954Y3855876D01*
X19387053Y3866749D01*
X19347568Y3868466D01*
X18757010Y3868466D01*
X18717525Y3866749D01*
X18686052Y3855876D01*
X18659728Y3823830D01*
X18651717Y3764317D01*
X18255341Y3764317D01*
X18255341Y4234703D01*
X18650572Y4234703D01*
X18650572Y4037851D01*
X18658011Y3977192D01*
X18683763Y3945147D01*
X18715236Y3934274D01*
X18753577Y3932557D01*
X19345279Y3932557D01*
X19385908Y3935418D01*
X19417954Y3947436D01*
X19442561Y3978909D01*
X19450572Y4036706D01*
X19450572Y4231270D01*
X19443169Y4311742D01*
X19420959Y4386062D01*
X19383941Y4454231D01*
X19332117Y4516248D01*
X19269850Y4567822D01*
X19201502Y4604660D01*
X19127074Y4626763D01*
X19046567Y4634131D01*
X18968169Y4626763D01*
X18895494Y4604660D01*
X18828541Y4567822D01*
X18767310Y4516248D01*
X18716237Y4454446D01*
X18679757Y4386921D01*
X18657868Y4313673D01*
X18650572Y4234703D01*
X18255341Y4234703D01*
X18255341Y4634131D01*
X18255341Y5015628D01*
X19844659Y5015628D01*
X19844659Y4634131D01*
X19844659Y4036706D01*
X19844659Y3268752D01*
G37*
D12*
%TO.C,J4*%
X332500Y14200000D02*
X332500Y11200000D01*
X2932500Y15700000D02*
X4582500Y15700000D01*
X4582500Y15700000D02*
X4582500Y14950000D01*
X4582500Y10450000D02*
X4582500Y9700000D01*
X4582500Y9700000D02*
X2932500Y9700000D01*
D10*
%TO.C,R1*%
X13732742Y10682500D02*
X14207258Y10682500D01*
X13732742Y9637500D02*
X14207258Y9637500D01*
%TO.C,R4*%
X7097500Y12937258D02*
X7097500Y12462742D01*
X8142500Y12937258D02*
X8142500Y12462742D01*
D12*
%TO.C,J3*%
X20817500Y15700000D02*
X22467500Y15700000D01*
X20817500Y14950000D02*
X20817500Y15700000D01*
X20817500Y9700000D02*
X20817500Y10450000D01*
X22467500Y9700000D02*
X20817500Y9700000D01*
X25067500Y11200000D02*
X25067500Y14200000D01*
D11*
%TO.C,kibuzzard-69B46D81*%
G36*
X16592833Y3772336D02*
G01*
X16657639Y3731564D01*
X16700987Y3671049D01*
X16715436Y3598230D01*
X16700558Y3527701D01*
X16655923Y3467186D01*
X16590687Y3425555D01*
X16514006Y3411678D01*
X16435751Y3425412D01*
X16370372Y3466614D01*
X16326166Y3527272D01*
X16311431Y3599375D01*
X16326166Y3670619D01*
X16370372Y3730991D01*
X16435751Y3772193D01*
X16514006Y3785927D01*
X16592833Y3772336D01*
G37*
G36*
X17306376Y4395941D02*
G01*
X17306376Y3603953D01*
X17306376Y2771907D01*
X17306376Y2374768D01*
X17306376Y1993271D01*
X15713624Y1993271D01*
X15713624Y2374768D01*
X15713624Y2536142D01*
X16106567Y2536142D01*
X16123734Y2450305D01*
X16178097Y2386213D01*
X16257639Y2397658D01*
X16853920Y2668903D01*
X16896838Y2707815D01*
X16911144Y2771907D01*
X16895694Y2830848D01*
X16853920Y2870333D01*
X16257639Y3141578D01*
X16178670Y3154740D01*
X16123734Y3088931D01*
X16107139Y3004239D01*
X16171803Y2950448D01*
X16617010Y2769618D01*
X16171803Y2588788D01*
X16106567Y2536142D01*
X15713624Y2536142D01*
X15713624Y3594797D01*
X16101989Y3594797D01*
X16109571Y3516041D01*
X16132318Y3443438D01*
X16170229Y3376986D01*
X16223305Y3316685D01*
X16287253Y3266614D01*
X16357783Y3230848D01*
X16434893Y3209389D01*
X16518584Y3202236D01*
X16599628Y3209604D01*
X16674521Y3231707D01*
X16743262Y3268545D01*
X16805851Y3320119D01*
X16857926Y3382064D01*
X16895122Y3450019D01*
X16917439Y3523981D01*
X16924878Y3603953D01*
X16917332Y3681742D01*
X16894692Y3753738D01*
X16856960Y3819940D01*
X16804134Y3880348D01*
X16740722Y3930670D01*
X16671230Y3966614D01*
X16595658Y3988180D01*
X16514006Y3995369D01*
X16430923Y3988073D01*
X16354492Y3966185D01*
X16284714Y3929704D01*
X16221588Y3878631D01*
X16169263Y3817114D01*
X16131888Y3749303D01*
X16109464Y3675197D01*
X16101989Y3594797D01*
X15713624Y3594797D01*
X15713624Y4647730D01*
X16110000Y4647730D01*
X16118011Y4588216D01*
X16142618Y4556170D01*
X16172375Y4544725D01*
X16209571Y4542436D01*
X16534607Y4542436D01*
X16607854Y4532708D01*
X16665079Y4503524D01*
X16701989Y4458030D01*
X16714292Y4399375D01*
X16706710Y4350448D01*
X16683963Y4311249D01*
X16616438Y4265469D01*
X16535751Y4254024D01*
X16216438Y4254024D01*
X16175808Y4251735D01*
X16143763Y4240290D01*
X16118011Y4208817D01*
X16110000Y4148731D01*
X16118011Y4088073D01*
X16144335Y4056027D01*
X16175808Y4045155D01*
X16215293Y4043438D01*
X16535751Y4043438D01*
X16604993Y4049160D01*
X16673090Y4066328D01*
X16738040Y4094225D01*
X16797840Y4132136D01*
X16849485Y4181492D01*
X16889971Y4243724D01*
X16916152Y4316113D01*
X16924878Y4395941D01*
X16916295Y4475913D01*
X16890544Y4548731D01*
X16850629Y4611535D01*
X16799557Y4661464D01*
X16740186Y4699947D01*
X16675379Y4728416D01*
X16607282Y4746013D01*
X16538040Y4751878D01*
X16216438Y4751878D01*
X16176953Y4750162D01*
X16144907Y4739289D01*
X16118011Y4707243D01*
X16110000Y4647730D01*
X15713624Y4647730D01*
X15713624Y5412250D01*
X16110000Y5412250D01*
X16110000Y4889217D01*
X16111717Y4856599D01*
X16120873Y4830276D01*
X16147196Y4807959D01*
X16196981Y4801092D01*
X16248484Y4807959D01*
X16275379Y4829704D01*
X16284535Y4855455D01*
X16286252Y4888073D01*
X16286252Y5047157D01*
X16809285Y5047157D01*
X16847625Y5048874D01*
X16878526Y5059175D01*
X16904278Y5090076D01*
X16912289Y5149017D01*
X16904278Y5208531D01*
X16879099Y5240577D01*
X16848770Y5251449D01*
X16810429Y5253166D01*
X16286252Y5253166D01*
X16286252Y5411106D01*
X16284535Y5443724D01*
X16275379Y5470047D01*
X16248484Y5492365D01*
X16198126Y5499232D01*
X16147768Y5492365D01*
X16120873Y5470619D01*
X16111717Y5444868D01*
X16110000Y5412250D01*
X15713624Y5412250D01*
X15713624Y5499232D01*
X15713624Y5880729D01*
X17306376Y5880729D01*
X17306376Y5499232D01*
X17306376Y5149017D01*
X17306376Y4395941D01*
G37*
D10*
%TO.C,C1*%
X14110580Y15750000D02*
X13829420Y15750000D01*
X14110580Y14730000D02*
X13829420Y14730000D01*
D11*
%TO.C,kibuzzard-69B46E2A*%
G36*
X14764087Y3516724D02*
G01*
X14764087Y2776237D01*
X14764087Y2478670D01*
X14764087Y2097172D01*
X13175913Y2097172D01*
X13175913Y2478670D01*
X13175913Y2765937D01*
X13557411Y2765937D01*
X13565104Y2692562D01*
X13588185Y2628089D01*
X13626652Y2572518D01*
X13676819Y2529917D01*
X13734998Y2504357D01*
X13801187Y2495837D01*
X13875579Y2504993D01*
X13937382Y2532461D01*
X13986595Y2578240D01*
X14023219Y2642332D01*
X14038813Y2685680D01*
X14053548Y2740186D01*
X14080443Y2830029D01*
X14115923Y2859785D01*
X14169142Y2839185D01*
X14185737Y2771660D01*
X14174864Y2726452D01*
X14133090Y2680100D01*
X14091380Y2628471D01*
X14083750Y2578876D01*
X14110200Y2531316D01*
X14183448Y2483247D01*
X14257840Y2511860D01*
X14265851Y2518727D01*
X14281874Y2531316D01*
X14301903Y2551345D01*
X14324220Y2578813D01*
X14345966Y2614292D01*
X14364850Y2658355D01*
X14377439Y2712146D01*
X14382589Y2776237D01*
X14374006Y2852346D01*
X14344821Y2930744D01*
X14293891Y3001130D01*
X14216638Y3050916D01*
X14167139Y3065508D01*
X14112489Y3070372D01*
X14026938Y3059642D01*
X13964850Y3027454D01*
X13921359Y2977239D01*
X13891602Y2912432D01*
X13873863Y2839185D01*
X13859557Y2769371D01*
X13839528Y2724163D01*
X13802332Y2704134D01*
X13767425Y2722446D01*
X13753119Y2764793D01*
X13757124Y2802561D01*
X13765708Y2824878D01*
X13778870Y2840901D01*
X13789742Y2854063D01*
X13810916Y2930744D01*
X13755408Y2998269D01*
X13685021Y3025737D01*
X13626080Y2984535D01*
X13587930Y2925149D01*
X13565041Y2852283D01*
X13557411Y2765937D01*
X13175913Y2765937D01*
X13175913Y3520157D01*
X13561989Y3520157D01*
X13565422Y3469657D01*
X13575722Y3416581D01*
X13593891Y3361645D01*
X13620930Y3305565D01*
X13655837Y3251917D01*
X13697611Y3204278D01*
X13748970Y3163648D01*
X13812632Y3131030D01*
X13885880Y3109571D01*
X13965994Y3102418D01*
X14049256Y3109714D01*
X14125079Y3131602D01*
X14190744Y3164649D01*
X14243534Y3205422D01*
X14286452Y3253062D01*
X14322504Y3306710D01*
X14350401Y3362504D01*
X14368856Y3416581D01*
X14379156Y3468226D01*
X14382589Y3516724D01*
X14375468Y3590734D01*
X14354104Y3661693D01*
X14318498Y3729599D01*
X14283591Y3776524D01*
X14241817Y3792546D01*
X14175436Y3767368D01*
X14126509Y3726166D01*
X14110200Y3687253D01*
X14133090Y3630029D01*
X14161416Y3572518D01*
X14170858Y3512146D01*
X14152546Y3425165D01*
X14126938Y3383820D01*
X14086738Y3346767D01*
X14034235Y3320587D01*
X13971717Y3311860D01*
X13923076Y3316724D01*
X13880157Y3331316D01*
X13817783Y3382246D01*
X13784020Y3446910D01*
X13772575Y3512146D01*
X13773720Y3539614D01*
X13777725Y3562504D01*
X13782303Y3580815D01*
X13788026Y3596266D01*
X13794320Y3607139D01*
X13800615Y3616867D01*
X13805765Y3624306D01*
X13832089Y3686109D01*
X13816638Y3725594D01*
X13770286Y3768512D01*
X13706195Y3793691D01*
X13671860Y3782818D01*
X13647825Y3761645D01*
X13626080Y3730744D01*
X13590474Y3658514D01*
X13569110Y3588318D01*
X13561989Y3520157D01*
X13175913Y3520157D01*
X13175913Y3971087D01*
X13570000Y3971087D01*
X13578011Y3910429D01*
X13604335Y3878383D01*
X13635808Y3867511D01*
X13674149Y3865794D01*
X14265851Y3865794D01*
X14305336Y3867511D01*
X14336810Y3878383D01*
X14363133Y3910429D01*
X14371144Y3969943D01*
X14371144Y4353348D01*
X14369428Y4385966D01*
X14359700Y4413433D01*
X14332232Y4435751D01*
X14281874Y4442618D01*
X14230372Y4435751D01*
X14203476Y4413433D01*
X14194320Y4387110D01*
X14192604Y4354492D01*
X14192604Y4075236D01*
X13675293Y4075236D01*
X13635808Y4073519D01*
X13604335Y4062647D01*
X13578011Y4030601D01*
X13570000Y3971087D01*
X13175913Y3971087D01*
X13175913Y4442618D01*
X13175913Y4728741D01*
X13179737Y4806575D01*
X13191171Y4883660D01*
X13210106Y4959252D01*
X13236359Y5032625D01*
X13269678Y5103071D01*
X13309741Y5169912D01*
X13356163Y5232504D01*
X13408496Y5290245D01*
X13466237Y5342578D01*
X13528829Y5389000D01*
X13595670Y5429063D01*
X13666116Y5462382D01*
X13739489Y5488635D01*
X13815081Y5507570D01*
X13892166Y5519004D01*
X13970000Y5522828D01*
X14047834Y5519004D01*
X14124919Y5507570D01*
X14200511Y5488635D01*
X14273884Y5462382D01*
X14344330Y5429063D01*
X14411171Y5389000D01*
X14473763Y5342578D01*
X14531504Y5290245D01*
X14583837Y5232504D01*
X14630259Y5169912D01*
X14670322Y5103071D01*
X14703641Y5032625D01*
X14729894Y4959252D01*
X14748829Y4883660D01*
X14760263Y4806575D01*
X14764087Y4728741D01*
X14764087Y4442618D01*
X14764087Y3969943D01*
X14764087Y3516724D01*
G37*
D10*
%TO.C,D1*%
X4257500Y18232500D02*
X4257500Y19232500D01*
D11*
%TO.C,kibuzzard-69B46DE0*%
G36*
X9686948Y3494789D02*
G01*
X9686948Y2750869D01*
X9686948Y2445290D01*
X9686948Y2063792D01*
X8093052Y2063792D01*
X8093052Y2445290D01*
X8093052Y2750869D01*
X8479127Y2750869D01*
X8484278Y2687350D01*
X8498011Y2634703D01*
X8518040Y2592357D01*
X8541502Y2558594D01*
X8566109Y2533416D01*
X8588999Y2515104D01*
X8607883Y2503659D01*
X8620472Y2497364D01*
X8624478Y2495647D01*
X8703448Y2479052D01*
X8766395Y2535705D01*
X8786869Y2596998D01*
X8773516Y2645067D01*
X8726338Y2679911D01*
X8692003Y2713101D01*
X8680558Y2762314D01*
X8694864Y2814388D01*
X8734349Y2833273D01*
X8763534Y2816677D01*
X8770973Y2763459D01*
X8770973Y2755447D01*
X8772690Y2718823D01*
X8782418Y2689639D01*
X8812175Y2665604D01*
X8869399Y2658165D01*
X8919757Y2665032D01*
X8949514Y2678766D01*
X8963820Y2704517D01*
X8968970Y2730840D01*
X8968970Y2762314D01*
X8985565Y2828408D01*
X9035351Y2850440D01*
X9082847Y2823544D01*
X9100587Y2752014D01*
X9094292Y2711384D01*
X9080558Y2683916D01*
X9063391Y2666749D01*
X9049657Y2658165D01*
X9043362Y2655876D01*
X8989571Y2622686D01*
X8976981Y2559739D01*
X8995007Y2473902D01*
X9049084Y2445290D01*
X9114257Y2455463D01*
X9173961Y2485983D01*
X9228197Y2536849D01*
X9271116Y2601322D01*
X9296867Y2672662D01*
X9305451Y2750869D01*
X9296867Y2834989D01*
X9271116Y2908809D01*
X9228197Y2972328D01*
X9172181Y3020969D01*
X9107136Y3050154D01*
X9033062Y3059882D01*
X8978126Y3052157D01*
X8932346Y3028981D01*
X8870544Y2964889D01*
X8813605Y3024117D01*
X8729771Y3043859D01*
X8668350Y3035021D01*
X8610744Y3008507D01*
X8556953Y2964317D01*
X8513716Y2905248D01*
X8487775Y2834099D01*
X8479127Y2750869D01*
X8093052Y2750869D01*
X8093052Y3259024D01*
X8485994Y3259024D01*
X8503162Y3173187D01*
X8557525Y3109095D01*
X8637067Y3120540D01*
X9233348Y3391785D01*
X9276266Y3430697D01*
X9290572Y3494789D01*
X9275122Y3553730D01*
X9233348Y3593215D01*
X8637067Y3864460D01*
X8558097Y3877622D01*
X8503162Y3811813D01*
X8486567Y3727121D01*
X8551230Y3673330D01*
X8996438Y3492500D01*
X8551230Y3311670D01*
X8485994Y3259024D01*
X8093052Y3259024D01*
X8093052Y4230697D01*
X8479127Y4230697D01*
X8484278Y4167178D01*
X8498011Y4114531D01*
X8518040Y4072185D01*
X8541502Y4038423D01*
X8566109Y4013244D01*
X8588999Y3994932D01*
X8607883Y3983487D01*
X8620472Y3977192D01*
X8624478Y3975476D01*
X8703448Y3958881D01*
X8766395Y4015533D01*
X8786869Y4076827D01*
X8773516Y4124895D01*
X8726338Y4159739D01*
X8692003Y4192929D01*
X8680558Y4242142D01*
X8694864Y4294217D01*
X8734349Y4313101D01*
X8763534Y4296506D01*
X8770973Y4243287D01*
X8770973Y4235275D01*
X8772690Y4198652D01*
X8782418Y4169467D01*
X8812175Y4145433D01*
X8869399Y4137994D01*
X8919757Y4144861D01*
X8949514Y4158594D01*
X8963820Y4184345D01*
X8968970Y4210669D01*
X8968970Y4242142D01*
X8985565Y4308237D01*
X9035351Y4330268D01*
X9082847Y4303373D01*
X9100587Y4231842D01*
X9094292Y4191212D01*
X9080558Y4163745D01*
X9063391Y4146577D01*
X9049657Y4137994D01*
X9043362Y4135705D01*
X8989571Y4102514D01*
X8976981Y4039567D01*
X8995007Y3953730D01*
X9049084Y3925118D01*
X9114257Y3935291D01*
X9173961Y3965811D01*
X9228197Y4016677D01*
X9271116Y4081150D01*
X9296867Y4152490D01*
X9305451Y4230697D01*
X9296867Y4314818D01*
X9271116Y4388637D01*
X9228197Y4452157D01*
X9172181Y4500798D01*
X9107136Y4529982D01*
X9033062Y4539710D01*
X8978126Y4531985D01*
X8932346Y4508809D01*
X8870544Y4444717D01*
X8813605Y4503945D01*
X8729771Y4523687D01*
X8668350Y4514849D01*
X8610744Y4488335D01*
X8556953Y4444145D01*
X8513716Y4385077D01*
X8487775Y4313927D01*
X8479127Y4230697D01*
X8093052Y4230697D01*
X8093052Y4539710D01*
X8093052Y4921208D01*
X9686948Y4921208D01*
X9686948Y4539710D01*
X9686948Y4230697D01*
X9686948Y3494789D01*
G37*
%TO.C,kibuzzard-69BC0473*%
G36*
X11373104Y19871338D02*
G01*
X11403863Y19835930D01*
X11412446Y19770122D01*
X11404578Y19705029D01*
X11379542Y19669979D01*
X11308011Y19657103D01*
X10967525Y19657103D01*
X10903505Y19669263D01*
X10871674Y19705744D01*
X10864521Y19771552D01*
X10873104Y19835930D01*
X10900286Y19870265D01*
X10968956Y19883140D01*
X11309442Y19883140D01*
X11373104Y19871338D01*
G37*
G36*
X9168884Y20169979D02*
G01*
X9217883Y20112039D01*
X9576967Y19369549D01*
X9596280Y19267976D01*
X9516881Y19197876D01*
X9411016Y19177132D01*
X9340916Y19259392D01*
X9275107Y19395300D01*
X9030472Y19395300D01*
X8923176Y19395300D01*
X8857368Y19257961D01*
X8785837Y19178562D01*
X8681402Y19199306D01*
X8601288Y19268691D01*
X8619886Y19369549D01*
X8740041Y19618476D01*
X9030472Y19618476D01*
X9164950Y19618476D01*
X9097711Y19757246D01*
X9030472Y19618476D01*
X8740041Y19618476D01*
X8978970Y20113469D01*
X9029041Y20168548D01*
X9099142Y20189292D01*
X9168884Y20169979D01*
G37*
G36*
X15369528Y20180708D02*
G01*
X15408870Y20147804D01*
X15422461Y20107747D01*
X15425322Y20059106D01*
X15425322Y19319478D01*
X15422461Y19270122D01*
X15408155Y19230780D01*
X15368097Y19199306D01*
X15292275Y19189292D01*
X15217883Y19199306D01*
X15177825Y19232210D01*
X15164235Y19271552D01*
X15162089Y19320908D01*
X15162089Y19469692D01*
X14814449Y19469692D01*
X14740057Y19479707D01*
X14700000Y19512611D01*
X14686409Y19551953D01*
X14684263Y19601309D01*
X14688555Y19647089D01*
X14798712Y20092010D01*
X14852361Y20186431D01*
X14960372Y20185000D01*
X15043348Y20143512D01*
X15063376Y20080565D01*
X14974678Y19715758D01*
X15162089Y19715758D01*
X15162089Y20066259D01*
X15164235Y20113469D01*
X15177825Y20150665D01*
X15218598Y20181423D01*
X15295136Y20190722D01*
X15369528Y20180708D01*
G37*
G36*
X16149213Y20177847D02*
G01*
X16189270Y20144943D01*
X16202861Y20105601D01*
X16205007Y20056245D01*
X16191953Y19972911D01*
X16152790Y19874557D01*
X16098247Y19772804D01*
X16039056Y19679278D01*
X15979864Y19585393D01*
X15925322Y19482568D01*
X15886159Y19383140D01*
X15873104Y19299449D01*
X15870243Y19254385D01*
X15855222Y19220765D01*
X15815165Y19195730D01*
X15741488Y19187861D01*
X15666381Y19195014D01*
X15627039Y19220765D01*
X15612732Y19255100D01*
X15609871Y19302310D01*
X15619886Y19405851D01*
X15649928Y19513326D01*
X15691953Y19613648D01*
X15737911Y19695730D01*
X15785837Y19767618D01*
X15833763Y19837361D01*
X15888841Y19926059D01*
X15602718Y19926059D01*
X15554077Y19928920D01*
X15514735Y19943226D01*
X15482546Y19983283D01*
X15472532Y20057675D01*
X15482546Y20131352D01*
X15512589Y20170694D01*
X15549785Y20185000D01*
X15595565Y20187861D01*
X16074821Y20187861D01*
X16149213Y20177847D01*
G37*
G36*
X8169242Y20180172D02*
G01*
X8260801Y20152811D01*
X8345207Y20107210D01*
X8422461Y20043369D01*
X8486928Y19966831D01*
X8532976Y19883140D01*
X8560604Y19792296D01*
X8569814Y19694299D01*
X8560604Y19593664D01*
X8532976Y19500629D01*
X8486928Y19415195D01*
X8422461Y19337361D01*
X8344939Y19272580D01*
X8259728Y19226309D01*
X8166828Y19198546D01*
X8066237Y19189292D01*
X7954649Y19189292D01*
X7823033Y19189292D01*
X7750787Y19199306D01*
X7711445Y19230064D01*
X7696423Y19270122D01*
X7692847Y19320908D01*
X7692847Y19451094D01*
X7954649Y19451094D01*
X8070529Y19451094D01*
X8161016Y19468441D01*
X8237911Y19520479D01*
X8290486Y19597196D01*
X8308011Y19688577D01*
X8290486Y19780136D01*
X8237911Y19857389D01*
X8160658Y19909964D01*
X8069099Y19927489D01*
X7954649Y19927489D01*
X7954649Y19451094D01*
X7692847Y19451094D01*
X7692847Y20060536D01*
X7694993Y20108462D01*
X7708584Y20147804D01*
X7748641Y20179993D01*
X7824464Y20189292D01*
X8070529Y20189292D01*
X8169242Y20180172D01*
G37*
G36*
X14350572Y20183569D02*
G01*
X14411016Y20166402D01*
X14471102Y20138505D01*
X14528326Y20100594D01*
X14579292Y20049986D01*
X14620601Y19983999D01*
X14647961Y19906567D01*
X14657082Y19821624D01*
X14648140Y19737039D01*
X14621316Y19660680D01*
X14580365Y19595765D01*
X14529041Y19545515D01*
X14471102Y19507604D01*
X14410300Y19479707D01*
X14349320Y19462539D01*
X14290844Y19456817D01*
X14137768Y19456817D01*
X14137768Y19319478D01*
X14135622Y19270122D01*
X14122031Y19231495D01*
X14081974Y19199306D01*
X14006152Y19189292D01*
X13931760Y19199306D01*
X13891702Y19232210D01*
X13878112Y19271552D01*
X13875966Y19320908D01*
X13875966Y19718619D01*
X14137768Y19718619D01*
X14292275Y19718619D01*
X14363090Y19744371D01*
X14396710Y19823054D01*
X14365951Y19897446D01*
X14290844Y19927489D01*
X14137768Y19927489D01*
X14137768Y19718619D01*
X13875966Y19718619D01*
X13875966Y20059106D01*
X13878112Y20107031D01*
X13891702Y20146373D01*
X13931760Y20179278D01*
X14007582Y20189292D01*
X14292275Y20189292D01*
X14350572Y20183569D01*
G37*
G36*
X12827325Y20177847D02*
G01*
X12866667Y20145658D01*
X12880258Y20106316D01*
X12883119Y20056245D01*
X12883119Y19318047D01*
X12880258Y19269406D01*
X12865951Y19230780D01*
X12826609Y19199306D01*
X12751502Y19189292D01*
X12677110Y19199306D01*
X12637053Y19232210D01*
X12623462Y19271552D01*
X12621316Y19320908D01*
X12621316Y19727203D01*
X12453934Y19499735D01*
X12445351Y19488290D01*
X12431760Y19472554D01*
X12413162Y19458247D01*
X12383119Y19445372D01*
X12343777Y19441080D01*
X12279399Y19455744D01*
X12232189Y19499735D01*
X12066237Y19725773D01*
X12066237Y19318047D01*
X12064092Y19270122D01*
X12050501Y19231495D01*
X12010443Y19199306D01*
X11934621Y19189292D01*
X11860944Y19199306D01*
X11822318Y19231495D01*
X11808727Y19270837D01*
X11805866Y19320908D01*
X11805866Y20059106D01*
X11808011Y20107031D01*
X11821602Y20145658D01*
X11861660Y20177847D01*
X11937482Y20187861D01*
X11975393Y20185715D01*
X12001144Y20182139D01*
X12019742Y20175701D01*
X12031903Y20168548D01*
X12042632Y20157818D01*
X12051931Y20147804D01*
X12343777Y19772983D01*
X12634192Y20146373D01*
X12677110Y20179278D01*
X12752933Y20187861D01*
X12827325Y20177847D01*
G37*
G36*
X17556938Y20190722D02*
G01*
X17606295Y20187861D01*
X17644921Y20174270D01*
X17677110Y20134213D01*
X17687124Y20056245D01*
X17677825Y19984714D01*
X17647067Y19946803D01*
X17609871Y19933927D01*
X17564092Y19931781D01*
X17343777Y19931781D01*
X17333763Y19855959D01*
X17358083Y19858820D01*
X17365236Y19858820D01*
X17452186Y19847613D01*
X17531823Y19813994D01*
X17604149Y19757961D01*
X17661373Y19687146D01*
X17695708Y19609177D01*
X17707153Y19524056D01*
X17696026Y19429238D01*
X17662645Y19345070D01*
X17607010Y19271552D01*
X17535002Y19214725D01*
X17452504Y19180629D01*
X17359514Y19169263D01*
X17282260Y19175522D01*
X17210730Y19194299D01*
X17113448Y19243655D01*
X17083405Y19269406D01*
X17029041Y19356674D01*
X17081974Y19453956D01*
X17170672Y19502597D01*
X17267954Y19455386D01*
X17350930Y19432496D01*
X17419599Y19453956D01*
X17443920Y19514041D01*
X17418169Y19573412D01*
X17355222Y19597017D01*
X17299428Y19576989D01*
X17219313Y19542654D01*
X17126323Y19571266D01*
X17062661Y19614185D01*
X17044778Y19655672D01*
X17097711Y20061967D01*
X17104864Y20102024D01*
X17121316Y20141366D01*
X17161373Y20179278D01*
X17229328Y20192153D01*
X17556938Y20190722D01*
G37*
G36*
X16702861Y20191358D02*
G01*
X16791082Y20154639D01*
X16868813Y20093441D01*
X16929216Y20014757D01*
X16965459Y19925582D01*
X16977539Y19825916D01*
X16970565Y19753670D01*
X16949642Y19685715D01*
X16917275Y19624914D01*
X16875966Y19574127D01*
X16788698Y19499020D01*
X16702861Y19448233D01*
X16881688Y19448233D01*
X16931044Y19445372D01*
X16969671Y19431066D01*
X17001860Y19391009D01*
X17011874Y19315186D01*
X17001860Y19241509D01*
X16968956Y19202167D01*
X16928183Y19187861D01*
X16878827Y19185000D01*
X16362375Y19185000D01*
X16270815Y19224342D01*
X16232189Y19318047D01*
X16245064Y19390651D01*
X16283691Y19456817D01*
X16333405Y19507783D01*
X16402432Y19560536D01*
X16477897Y19609714D01*
X16546924Y19649950D01*
X16608977Y19690007D01*
X16663519Y19738648D01*
X16701609Y19792296D01*
X16714306Y19847375D01*
X16709299Y19885286D01*
X16677825Y19922482D01*
X16605579Y19941795D01*
X16521888Y19912110D01*
X16493991Y19823054D01*
X16491845Y19777275D01*
X16478255Y19740794D01*
X16438197Y19710751D01*
X16362375Y19701452D01*
X16287983Y19711466D01*
X16247926Y19744371D01*
X16234335Y19783712D01*
X16232189Y19833069D01*
X16243634Y19924469D01*
X16277969Y20009829D01*
X16335193Y20089149D01*
X16410857Y20152732D01*
X16500509Y20190881D01*
X16604149Y20203598D01*
X16702861Y20191358D01*
G37*
G36*
X10234414Y20190405D02*
G01*
X10322159Y20163700D01*
X10412446Y20119192D01*
X10451073Y20092010D01*
X10477539Y20061967D01*
X10491130Y20019049D01*
X10459657Y19938934D01*
X10406009Y19880994D01*
X10356652Y19861681D01*
X10279399Y19894585D01*
X10270100Y19901023D01*
X10257940Y19908891D01*
X10244349Y19916760D01*
X10225036Y19923913D01*
X10202146Y19929635D01*
X10173534Y19934642D01*
X10139199Y19936073D01*
X10057654Y19921767D01*
X9976824Y19879564D01*
X9913162Y19801595D01*
X9894921Y19747947D01*
X9888841Y19687146D01*
X9899750Y19608999D01*
X9932475Y19543369D01*
X9978791Y19493119D01*
X10030472Y19461109D01*
X10139199Y19438219D01*
X10214664Y19450021D01*
X10286552Y19485429D01*
X10358083Y19514041D01*
X10406724Y19493655D01*
X10458226Y19432496D01*
X10489700Y19349521D01*
X10469671Y19297303D01*
X10411016Y19253670D01*
X10326133Y19209162D01*
X10237434Y19182457D01*
X10144921Y19173555D01*
X10084299Y19177847D01*
X10019742Y19190722D01*
X9952146Y19213791D01*
X9882403Y19248662D01*
X9815343Y19293727D01*
X9755794Y19347375D01*
X9704828Y19413362D01*
X9663519Y19495443D01*
X9636159Y19590222D01*
X9627039Y19694299D01*
X9635980Y19794442D01*
X9662804Y19886001D01*
X9703577Y19965579D01*
X9754363Y20029778D01*
X9813913Y20081996D01*
X9880973Y20125629D01*
X9951073Y20159428D01*
X10019742Y20182139D01*
X10086087Y20195014D01*
X10149213Y20199306D01*
X10234414Y20190405D01*
G37*
G36*
X13550580Y20190405D02*
G01*
X13638325Y20163700D01*
X13728612Y20119192D01*
X13767239Y20092010D01*
X13793705Y20061967D01*
X13807296Y20019049D01*
X13775823Y19938934D01*
X13722175Y19880994D01*
X13672818Y19861681D01*
X13595565Y19894585D01*
X13586266Y19901023D01*
X13574106Y19908891D01*
X13560515Y19916760D01*
X13541202Y19923913D01*
X13518312Y19929635D01*
X13489700Y19934642D01*
X13455365Y19936073D01*
X13373820Y19921767D01*
X13292990Y19879564D01*
X13229328Y19801595D01*
X13211087Y19747947D01*
X13205007Y19687146D01*
X13215916Y19608999D01*
X13248641Y19543369D01*
X13294957Y19493119D01*
X13346638Y19461109D01*
X13455365Y19438219D01*
X13530830Y19450021D01*
X13602718Y19485429D01*
X13674249Y19514041D01*
X13722890Y19493655D01*
X13774392Y19432496D01*
X13805866Y19349521D01*
X13785837Y19297303D01*
X13727182Y19253670D01*
X13642299Y19209162D01*
X13553600Y19182457D01*
X13461087Y19173555D01*
X13400465Y19177847D01*
X13335908Y19190722D01*
X13268312Y19213791D01*
X13198569Y19248662D01*
X13131509Y19293727D01*
X13071960Y19347375D01*
X13020994Y19413362D01*
X12979685Y19495443D01*
X12952325Y19590222D01*
X12943205Y19694299D01*
X12952146Y19794442D01*
X12978970Y19886001D01*
X13019742Y19965579D01*
X13070529Y20029778D01*
X13130079Y20081996D01*
X13197139Y20125629D01*
X13267239Y20159428D01*
X13335908Y20182139D01*
X13402253Y20195014D01*
X13465379Y20199306D01*
X13550580Y20190405D01*
G37*
D10*
%TO.C,R5*%
X9002500Y12937258D02*
X9002500Y12462742D01*
X10047500Y12937258D02*
X10047500Y12462742D01*
D11*
%TO.C,G\u002A\u002A\u002A*%
G36*
X13275377Y22068615D02*
G01*
X13724877Y22535889D01*
X14146726Y22535889D01*
X13656912Y22058507D01*
X14201679Y21237697D01*
X13769838Y21237697D01*
X13413515Y21817783D01*
X13275377Y21684525D01*
X13275377Y21237697D01*
X12918821Y21237697D01*
X12918821Y22834937D01*
X13275377Y23030467D01*
X13275377Y22068615D01*
G37*
G36*
X12708198Y22570873D02*
G01*
X12713318Y22570695D01*
X12718386Y22570403D01*
X12723405Y22570002D01*
X12733309Y22568893D01*
X12743059Y22567404D01*
X12752684Y22565573D01*
X12762212Y22563434D01*
X12771673Y22561027D01*
X12781094Y22558386D01*
X12781094Y22227041D01*
X12767934Y22229643D01*
X12753261Y22232022D01*
X12737423Y22234140D01*
X12720767Y22235958D01*
X12703643Y22237438D01*
X12686400Y22238543D01*
X12669385Y22239234D01*
X12652947Y22239472D01*
X12628746Y22238932D01*
X12605557Y22237329D01*
X12583366Y22234690D01*
X12562156Y22231039D01*
X12541910Y22226402D01*
X12522614Y22220805D01*
X12504251Y22214274D01*
X12486805Y22206835D01*
X12470259Y22198513D01*
X12454598Y22189334D01*
X12439806Y22179323D01*
X12425866Y22168507D01*
X12412763Y22156911D01*
X12400481Y22144561D01*
X12389003Y22131483D01*
X12378313Y22117701D01*
X12368395Y22103243D01*
X12359234Y22088134D01*
X12350813Y22072399D01*
X12343116Y22056064D01*
X12336127Y22039155D01*
X12329830Y22021697D01*
X12324209Y22003717D01*
X12319248Y21985240D01*
X12314931Y21966292D01*
X12311241Y21946898D01*
X12305681Y21906877D01*
X12302439Y21865382D01*
X12301387Y21822620D01*
X12301387Y21237654D01*
X11944831Y21237654D01*
X11944831Y22475317D01*
X12283844Y22535847D01*
X12283844Y22294658D01*
X12288724Y22294658D01*
X12295376Y22309822D01*
X12302601Y22324680D01*
X12310381Y22339219D01*
X12318701Y22353428D01*
X12327542Y22367296D01*
X12336890Y22380811D01*
X12346726Y22393963D01*
X12357036Y22406739D01*
X12367801Y22419127D01*
X12379005Y22431118D01*
X12390632Y22442698D01*
X12402665Y22453857D01*
X12415088Y22464584D01*
X12427884Y22474866D01*
X12441035Y22484692D01*
X12454527Y22494051D01*
X12468341Y22502932D01*
X12482462Y22511323D01*
X12496873Y22519212D01*
X12511556Y22526589D01*
X12526497Y22533441D01*
X12541677Y22539757D01*
X12557080Y22545526D01*
X12572691Y22550736D01*
X12588491Y22555377D01*
X12604465Y22559435D01*
X12620596Y22562901D01*
X12636867Y22565762D01*
X12653261Y22568007D01*
X12669763Y22569625D01*
X12686355Y22570605D01*
X12703021Y22570934D01*
X12708198Y22570873D01*
G37*
G36*
X14876762Y23030104D02*
G01*
X14900539Y23029215D01*
X14924393Y23027915D01*
X14948224Y23026353D01*
X14995429Y23023032D01*
X15018607Y23021572D01*
X15041371Y23020442D01*
X15041371Y22754158D01*
X15025267Y22755988D01*
X15008979Y22757562D01*
X14992570Y22758881D01*
X14976107Y22759952D01*
X14959655Y22760778D01*
X14943279Y22761363D01*
X14927045Y22761711D01*
X14911017Y22761826D01*
X14893333Y22761348D01*
X14885010Y22760743D01*
X14877029Y22759887D01*
X14869384Y22758776D01*
X14862072Y22757404D01*
X14855088Y22755766D01*
X14848429Y22753856D01*
X14842090Y22751671D01*
X14836068Y22749205D01*
X14830357Y22746453D01*
X14824954Y22743409D01*
X14819855Y22740069D01*
X14815056Y22736428D01*
X14810552Y22732480D01*
X14806339Y22728221D01*
X14802414Y22723645D01*
X14798772Y22718748D01*
X14795409Y22713524D01*
X14792321Y22707968D01*
X14789504Y22702075D01*
X14786953Y22695841D01*
X14784665Y22689260D01*
X14782635Y22682326D01*
X14780860Y22675036D01*
X14779334Y22667383D01*
X14778055Y22659364D01*
X14777017Y22650972D01*
X14775651Y22633051D01*
X14775203Y22613580D01*
X14775203Y22535856D01*
X15021156Y22535856D01*
X15021156Y22297339D01*
X14775203Y22297339D01*
X14775203Y21237547D01*
X14418647Y21237547D01*
X14418647Y22297339D01*
X14066971Y22297339D01*
X14310019Y22535856D01*
X14418647Y22535856D01*
X14418647Y22636003D01*
X14419067Y22657476D01*
X14420327Y22678533D01*
X14422428Y22699157D01*
X14425371Y22719330D01*
X14429157Y22739036D01*
X14433787Y22758256D01*
X14439261Y22776973D01*
X14445581Y22795169D01*
X14452747Y22812828D01*
X14460760Y22829932D01*
X14469622Y22846463D01*
X14479332Y22862404D01*
X14489892Y22877737D01*
X14501303Y22892446D01*
X14513565Y22906511D01*
X14526680Y22919917D01*
X14540648Y22932646D01*
X14555470Y22944680D01*
X14571148Y22956002D01*
X14587681Y22966594D01*
X14605071Y22976438D01*
X14623319Y22985519D01*
X14642425Y22993817D01*
X14662391Y23001316D01*
X14683217Y23007998D01*
X14704904Y23013846D01*
X14727453Y23018842D01*
X14750865Y23022968D01*
X14775141Y23026208D01*
X14800281Y23028544D01*
X14826287Y23029958D01*
X14853160Y23030434D01*
X14876762Y23030104D01*
G37*
G36*
X15478012Y21802721D02*
G01*
X15478730Y21763949D01*
X15480931Y21727708D01*
X15484684Y21693995D01*
X15490058Y21662804D01*
X15497123Y21634132D01*
X15505949Y21607974D01*
X15511044Y21595837D01*
X15516605Y21584328D01*
X15522641Y21573444D01*
X15529160Y21563187D01*
X15536171Y21553556D01*
X15543683Y21544549D01*
X15551705Y21536167D01*
X15560245Y21528409D01*
X15569312Y21521275D01*
X15578915Y21514764D01*
X15589061Y21508875D01*
X15599761Y21503609D01*
X15611022Y21498964D01*
X15622854Y21494940D01*
X15635264Y21491536D01*
X15648262Y21488752D01*
X15661857Y21486588D01*
X15676056Y21485043D01*
X15690870Y21484116D01*
X15706305Y21483807D01*
X15724127Y21484125D01*
X15741305Y21485085D01*
X15757843Y21486695D01*
X15773748Y21488965D01*
X15789024Y21491902D01*
X15803676Y21495515D01*
X15817709Y21499814D01*
X15831130Y21504807D01*
X15843941Y21510502D01*
X15856150Y21516908D01*
X15867761Y21524035D01*
X15878779Y21531889D01*
X15889210Y21540481D01*
X15899057Y21549819D01*
X15908328Y21559912D01*
X15917026Y21570768D01*
X15925158Y21582395D01*
X15932727Y21594804D01*
X15939740Y21608002D01*
X15946201Y21621997D01*
X15952115Y21636800D01*
X15957488Y21652418D01*
X15962326Y21668859D01*
X15966632Y21686134D01*
X15970412Y21704250D01*
X15973671Y21723216D01*
X15976415Y21743041D01*
X15978648Y21763733D01*
X15980377Y21785301D01*
X15981605Y21807754D01*
X15982581Y21855350D01*
X15982581Y22535815D01*
X16339253Y22535815D01*
X16339253Y21237622D01*
X16000124Y21237622D01*
X16000124Y21418514D01*
X15992572Y21418514D01*
X15983930Y21404862D01*
X15974916Y21391678D01*
X15965543Y21378959D01*
X15955825Y21366705D01*
X15945774Y21354911D01*
X15935402Y21343577D01*
X15924724Y21332699D01*
X15913752Y21322276D01*
X15902498Y21312305D01*
X15890976Y21302783D01*
X15879199Y21293710D01*
X15867180Y21285082D01*
X15842466Y21269152D01*
X15816937Y21254977D01*
X15790699Y21242537D01*
X15763852Y21231815D01*
X15736503Y21222793D01*
X15708752Y21215452D01*
X15680706Y21209774D01*
X15652465Y21205741D01*
X15624135Y21203334D01*
X15595819Y21202536D01*
X15561104Y21203158D01*
X15528017Y21205010D01*
X15496524Y21208074D01*
X15466589Y21212329D01*
X15438179Y21217757D01*
X15411259Y21224339D01*
X15385794Y21232055D01*
X15361751Y21240886D01*
X15339093Y21250813D01*
X15317788Y21261816D01*
X15297801Y21273876D01*
X15279096Y21286974D01*
X15261640Y21301090D01*
X15245398Y21316206D01*
X15230336Y21332302D01*
X15216419Y21349358D01*
X15203612Y21367356D01*
X15191882Y21386276D01*
X15181193Y21406099D01*
X15171512Y21426806D01*
X15162803Y21448377D01*
X15155032Y21470793D01*
X15148165Y21494035D01*
X15142167Y21518084D01*
X15132642Y21568523D01*
X15126179Y21621958D01*
X15122504Y21678233D01*
X15121341Y21737195D01*
X15121341Y22535815D01*
X15478012Y22535815D01*
X15478012Y21802721D01*
G37*
G36*
X17314182Y22570231D02*
G01*
X17347269Y22568377D01*
X17378762Y22565312D01*
X17408697Y22561055D01*
X17437107Y22555624D01*
X17464027Y22549039D01*
X17489491Y22541320D01*
X17513535Y22532486D01*
X17536192Y22522556D01*
X17557497Y22511549D01*
X17577485Y22499486D01*
X17596190Y22486384D01*
X17613646Y22472264D01*
X17629887Y22457145D01*
X17644950Y22441046D01*
X17658867Y22423987D01*
X17671673Y22405986D01*
X17683404Y22387064D01*
X17694093Y22367239D01*
X17703774Y22346532D01*
X17712483Y22324960D01*
X17720254Y22302544D01*
X17727121Y22279303D01*
X17733118Y22255256D01*
X17742644Y22204822D01*
X17749107Y22151397D01*
X17752782Y22095136D01*
X17753945Y22036194D01*
X17753945Y21237574D01*
X17397390Y21237574D01*
X17397390Y21970668D01*
X17396670Y22009441D01*
X17394461Y22045685D01*
X17390697Y22079405D01*
X17385308Y22110603D01*
X17378225Y22139284D01*
X17369379Y22165451D01*
X17364274Y22177593D01*
X17358702Y22189109D01*
X17352656Y22199997D01*
X17346126Y22210260D01*
X17339103Y22219897D01*
X17331580Y22228909D01*
X17323548Y22237296D01*
X17314998Y22245059D01*
X17305921Y22252198D01*
X17296309Y22258714D01*
X17286153Y22264608D01*
X17275445Y22269878D01*
X17264176Y22274527D01*
X17252337Y22278555D01*
X17239920Y22281962D01*
X17226917Y22284748D01*
X17213318Y22286914D01*
X17199115Y22288461D01*
X17184300Y22289389D01*
X17168864Y22289698D01*
X17151064Y22289380D01*
X17133907Y22288420D01*
X17117388Y22286810D01*
X17101503Y22284540D01*
X17086246Y22281603D01*
X17071612Y22277988D01*
X17057596Y22273689D01*
X17044192Y22268695D01*
X17031396Y22262998D01*
X17019203Y22256590D01*
X17007607Y22249461D01*
X16996603Y22241604D01*
X16986186Y22233008D01*
X16976350Y22223666D01*
X16967092Y22213569D01*
X16958404Y22202708D01*
X16950284Y22191075D01*
X16942724Y22178660D01*
X16935721Y22165455D01*
X16929268Y22151451D01*
X16923362Y22136639D01*
X16917995Y22121012D01*
X16913165Y22104559D01*
X16908865Y22087273D01*
X16905090Y22069144D01*
X16901835Y22050164D01*
X16899094Y22030324D01*
X16896864Y22009616D01*
X16895138Y21988030D01*
X16893912Y21965559D01*
X16892937Y21917922D01*
X16892937Y21237574D01*
X16536149Y21237574D01*
X16536149Y22535767D01*
X16875045Y22535767D01*
X16875045Y22354991D01*
X16882714Y22354991D01*
X16891366Y22368633D01*
X16900388Y22381807D01*
X16909767Y22394516D01*
X16919490Y22406762D01*
X16929544Y22418548D01*
X16939917Y22429875D01*
X16950596Y22440745D01*
X16961567Y22451162D01*
X16972819Y22461128D01*
X16984338Y22470643D01*
X16996111Y22479712D01*
X17008127Y22488336D01*
X17032831Y22504257D01*
X17058349Y22518427D01*
X17084577Y22530861D01*
X17111413Y22541579D01*
X17138755Y22550599D01*
X17166501Y22557939D01*
X17194547Y22563616D01*
X17222792Y22567648D01*
X17251133Y22570055D01*
X17279467Y22570853D01*
X17314182Y22570231D01*
G37*
G36*
X9867283Y22569880D02*
G01*
X9903460Y22567051D01*
X9938343Y22562401D01*
X9971939Y22555982D01*
X10004255Y22547847D01*
X10035299Y22538050D01*
X10065078Y22526643D01*
X10093599Y22513678D01*
X10120870Y22499210D01*
X10146898Y22483290D01*
X10171690Y22465973D01*
X10195254Y22447309D01*
X10217596Y22427353D01*
X10238725Y22406158D01*
X10258648Y22383776D01*
X10277372Y22360259D01*
X10294904Y22335662D01*
X10311252Y22310037D01*
X10326423Y22283436D01*
X10340424Y22255913D01*
X10353263Y22227521D01*
X10364947Y22198312D01*
X10375484Y22168339D01*
X10384880Y22137655D01*
X10393143Y22106314D01*
X10400281Y22074367D01*
X10411209Y22008870D01*
X10417723Y21941588D01*
X10419881Y21872943D01*
X10417673Y21808282D01*
X10411043Y21744599D01*
X10399985Y21682333D01*
X10384492Y21621926D01*
X10364554Y21563818D01*
X10340167Y21508451D01*
X10326302Y21481933D01*
X10311322Y21456265D01*
X10295225Y21431503D01*
X10278011Y21407701D01*
X10259679Y21384915D01*
X10240228Y21363200D01*
X10219657Y21342610D01*
X10197965Y21323202D01*
X10175152Y21305029D01*
X10151215Y21288148D01*
X10126155Y21272613D01*
X10099971Y21258479D01*
X10072661Y21245802D01*
X10044225Y21234636D01*
X10014661Y21225037D01*
X9983970Y21217060D01*
X9952149Y21210759D01*
X9919198Y21206191D01*
X9885117Y21203409D01*
X9849903Y21202470D01*
X9820401Y21203263D01*
X9791318Y21205635D01*
X9762710Y21209574D01*
X9734638Y21215068D01*
X9707160Y21222106D01*
X9680333Y21230677D01*
X9654217Y21240768D01*
X9628871Y21252369D01*
X9604352Y21265467D01*
X9580720Y21280051D01*
X9558032Y21296110D01*
X9536348Y21313632D01*
X9515726Y21332605D01*
X9496224Y21353018D01*
X9477902Y21374859D01*
X9460817Y21398116D01*
X9455589Y21398116D01*
X9455589Y20463449D01*
X9099033Y20780621D01*
X9099033Y21882935D01*
X9443158Y21882935D01*
X9444113Y21843562D01*
X9447049Y21804706D01*
X9452070Y21766645D01*
X9459279Y21729659D01*
X9468782Y21694027D01*
X9480683Y21660028D01*
X9495086Y21627942D01*
X9503259Y21612703D01*
X9512096Y21598047D01*
X9521610Y21584009D01*
X9531816Y21570624D01*
X9542725Y21557926D01*
X9554351Y21545951D01*
X9566707Y21534733D01*
X9579805Y21524307D01*
X9593660Y21514709D01*
X9608284Y21505973D01*
X9623689Y21498134D01*
X9639890Y21491227D01*
X9656898Y21485286D01*
X9674728Y21480348D01*
X9693392Y21476446D01*
X9712903Y21473616D01*
X9733275Y21471892D01*
X9754519Y21471310D01*
X9775951Y21471892D01*
X9796469Y21473616D01*
X9816091Y21476446D01*
X9834830Y21480348D01*
X9852702Y21485286D01*
X9869722Y21491227D01*
X9885906Y21498134D01*
X9901269Y21505973D01*
X9915826Y21514709D01*
X9929592Y21524307D01*
X9942582Y21534733D01*
X9954812Y21545951D01*
X9966298Y21557926D01*
X9977053Y21570624D01*
X9987094Y21584009D01*
X9996435Y21598047D01*
X10005092Y21612703D01*
X10013080Y21627942D01*
X10020415Y21643728D01*
X10027111Y21660028D01*
X10033184Y21676806D01*
X10038649Y21694027D01*
X10043521Y21711656D01*
X10047815Y21729659D01*
X10054733Y21766645D01*
X10059523Y21804706D01*
X10062308Y21843562D01*
X10063209Y21882935D01*
X10062224Y21921972D01*
X10059209Y21960759D01*
X10054070Y21998983D01*
X10046715Y22036330D01*
X10037053Y22072488D01*
X10024991Y22107144D01*
X10010437Y22139985D01*
X10002196Y22155627D01*
X9993298Y22170698D01*
X9983730Y22185158D01*
X9973482Y22198969D01*
X9962542Y22212092D01*
X9950898Y22224486D01*
X9938539Y22236115D01*
X9925453Y22246937D01*
X9911628Y22256914D01*
X9897054Y22266007D01*
X9881718Y22274177D01*
X9865609Y22281384D01*
X9848716Y22287590D01*
X9831027Y22292755D01*
X9812530Y22296841D01*
X9793215Y22299808D01*
X9773068Y22301616D01*
X9752080Y22302228D01*
X9730638Y22301623D01*
X9710108Y22299834D01*
X9690476Y22296899D01*
X9671726Y22292855D01*
X9653843Y22287741D01*
X9636812Y22281593D01*
X9620618Y22274450D01*
X9605245Y22266350D01*
X9590678Y22257330D01*
X9576902Y22247428D01*
X9563902Y22236682D01*
X9551662Y22225130D01*
X9540168Y22212809D01*
X9529403Y22199757D01*
X9519354Y22186012D01*
X9510005Y22171612D01*
X9501339Y22156595D01*
X9493344Y22140998D01*
X9486002Y22124859D01*
X9479299Y22108216D01*
X9473219Y22091107D01*
X9467749Y22073569D01*
X9462871Y22055641D01*
X9458571Y22037359D01*
X9451645Y21999889D01*
X9446849Y21961459D01*
X9444060Y21922374D01*
X9443158Y21882935D01*
X9099033Y21882935D01*
X9099033Y22475336D01*
X9438162Y22535749D01*
X9438162Y22370077D01*
X9443158Y22370077D01*
X9451549Y22383031D01*
X9460228Y22395517D01*
X9469191Y22407538D01*
X9478432Y22419098D01*
X9487946Y22430200D01*
X9497729Y22440849D01*
X9507775Y22451048D01*
X9518079Y22460800D01*
X9528636Y22470111D01*
X9539442Y22478983D01*
X9550491Y22487420D01*
X9561778Y22495426D01*
X9573298Y22503005D01*
X9585047Y22510161D01*
X9597018Y22516896D01*
X9609208Y22523216D01*
X9621610Y22529124D01*
X9634221Y22534623D01*
X9660046Y22544411D01*
X9686644Y22552610D01*
X9713973Y22559252D01*
X9741993Y22564365D01*
X9770666Y22567979D01*
X9799949Y22570126D01*
X9829804Y22570835D01*
X9867283Y22569880D01*
G37*
G36*
X11221744Y22570094D02*
G01*
X11271488Y22567733D01*
X11321401Y22563447D01*
X11370950Y22556950D01*
X11419601Y22547953D01*
X11466821Y22536171D01*
X11512076Y22521315D01*
X11554832Y22503099D01*
X11575107Y22492641D01*
X11594556Y22481235D01*
X11613115Y22468846D01*
X11630715Y22455437D01*
X11647290Y22440973D01*
X11662775Y22425417D01*
X11677100Y22408735D01*
X11690201Y22390889D01*
X11702011Y22371844D01*
X11712462Y22351565D01*
X11721489Y22330015D01*
X11729023Y22307158D01*
X11735000Y22282958D01*
X11739351Y22257381D01*
X11742011Y22230389D01*
X11742913Y22201946D01*
X11742913Y21526244D01*
X11743515Y21482146D01*
X11745381Y21438803D01*
X11748598Y21396982D01*
X11753253Y21357450D01*
X11756146Y21338781D01*
X11759432Y21320973D01*
X11763121Y21304119D01*
X11767223Y21288317D01*
X11771751Y21273662D01*
X11776714Y21260250D01*
X11782123Y21248176D01*
X11787991Y21237537D01*
X11426671Y21237537D01*
X11422051Y21252731D01*
X11417727Y21268138D01*
X11413754Y21283722D01*
X11410188Y21299447D01*
X11407085Y21315275D01*
X11404501Y21331170D01*
X11402491Y21347094D01*
X11401112Y21363012D01*
X11379402Y21341757D01*
X11356585Y21322223D01*
X11332739Y21304362D01*
X11307941Y21288127D01*
X11282268Y21273468D01*
X11255797Y21260337D01*
X11228607Y21248686D01*
X11200774Y21238467D01*
X11172376Y21229631D01*
X11143491Y21222130D01*
X11114195Y21215916D01*
X11084567Y21210940D01*
X11054684Y21207154D01*
X11024622Y21204509D01*
X10994460Y21202958D01*
X10964276Y21202451D01*
X10918362Y21203897D01*
X10873947Y21208253D01*
X10831231Y21215551D01*
X10790418Y21225820D01*
X10770788Y21232078D01*
X10751709Y21239090D01*
X10733207Y21246860D01*
X10715306Y21255392D01*
X10698033Y21264689D01*
X10681412Y21274755D01*
X10665468Y21285594D01*
X10650227Y21297210D01*
X10635714Y21309607D01*
X10621955Y21322787D01*
X10608974Y21336756D01*
X10596797Y21351516D01*
X10585449Y21367072D01*
X10574955Y21383428D01*
X10565341Y21400586D01*
X10556632Y21418551D01*
X10548852Y21437327D01*
X10542028Y21456917D01*
X10536185Y21477325D01*
X10531347Y21498555D01*
X10527541Y21520611D01*
X10524791Y21543496D01*
X10523122Y21567214D01*
X10522560Y21591769D01*
X10523390Y21606641D01*
X10878884Y21606641D01*
X10879183Y21594676D01*
X10880069Y21583260D01*
X10881526Y21572382D01*
X10883538Y21562029D01*
X10886087Y21552193D01*
X10889157Y21542860D01*
X10892731Y21534021D01*
X10896794Y21525663D01*
X10901327Y21517777D01*
X10906316Y21510351D01*
X10911743Y21503374D01*
X10917592Y21496834D01*
X10923846Y21490722D01*
X10930489Y21485025D01*
X10937503Y21479733D01*
X10944874Y21474835D01*
X10952583Y21470319D01*
X10960615Y21466174D01*
X10968953Y21462391D01*
X10977580Y21458956D01*
X10986480Y21455860D01*
X10995636Y21453091D01*
X11005032Y21450638D01*
X11014651Y21448491D01*
X11034492Y21445067D01*
X11055027Y21442731D01*
X11076124Y21441394D01*
X11097650Y21440968D01*
X11122990Y21441598D01*
X11146803Y21443442D01*
X11169137Y21446436D01*
X11190039Y21450515D01*
X11209557Y21455613D01*
X11227737Y21461664D01*
X11244628Y21468604D01*
X11260276Y21476367D01*
X11274730Y21484887D01*
X11288035Y21494100D01*
X11300241Y21503940D01*
X11311393Y21514341D01*
X11321540Y21525239D01*
X11330728Y21536567D01*
X11339006Y21548262D01*
X11346420Y21560256D01*
X11353018Y21572485D01*
X11358847Y21584884D01*
X11363954Y21597387D01*
X11368388Y21609928D01*
X11375421Y21634867D01*
X11380326Y21659176D01*
X11383482Y21682333D01*
X11385267Y21703816D01*
X11386241Y21739667D01*
X11386241Y21872925D01*
X11380399Y21868115D01*
X11374191Y21863587D01*
X11367630Y21859331D01*
X11360731Y21855332D01*
X11345978Y21848058D01*
X11330050Y21841667D01*
X11313064Y21836058D01*
X11295137Y21831131D01*
X11276388Y21826786D01*
X11256933Y21822924D01*
X11089982Y21797408D01*
X11069404Y21793425D01*
X11049190Y21788859D01*
X11029473Y21783606D01*
X11010386Y21777567D01*
X10992063Y21770638D01*
X10974635Y21762719D01*
X10958237Y21753707D01*
X10950465Y21748760D01*
X10943000Y21743501D01*
X10935859Y21737918D01*
X10929058Y21731998D01*
X10922615Y21725729D01*
X10916544Y21719098D01*
X10910864Y21712092D01*
X10905591Y21704698D01*
X10900741Y21696904D01*
X10896331Y21688696D01*
X10892377Y21680063D01*
X10888897Y21670992D01*
X10885907Y21661469D01*
X10883423Y21651482D01*
X10881462Y21641019D01*
X10880041Y21630066D01*
X10879176Y21618611D01*
X10878884Y21606641D01*
X10523390Y21606641D01*
X10525499Y21644459D01*
X10533208Y21692117D01*
X10545365Y21735020D01*
X10561649Y21773445D01*
X10581737Y21807669D01*
X10605308Y21837970D01*
X10632040Y21864625D01*
X10661611Y21887910D01*
X10693699Y21908103D01*
X10727983Y21925482D01*
X10764140Y21940322D01*
X10801848Y21952902D01*
X10840787Y21963498D01*
X10880633Y21972388D01*
X10961763Y21986157D01*
X11120758Y22005410D01*
X11193473Y22015328D01*
X11258234Y22028397D01*
X11286827Y22036806D01*
X11312466Y22046834D01*
X11334829Y22058758D01*
X11353594Y22072855D01*
X11368440Y22089403D01*
X11379044Y22108678D01*
X11385085Y22130958D01*
X11386241Y22156520D01*
X11385934Y22170283D01*
X11385024Y22183329D01*
X11383527Y22195677D01*
X11381458Y22207346D01*
X11378833Y22218354D01*
X11375668Y22228718D01*
X11371979Y22238458D01*
X11367781Y22247592D01*
X11363090Y22256138D01*
X11357921Y22264114D01*
X11352291Y22271539D01*
X11346215Y22278430D01*
X11339709Y22284807D01*
X11332789Y22290688D01*
X11325469Y22296090D01*
X11317767Y22301033D01*
X11309698Y22305534D01*
X11301277Y22309612D01*
X11292520Y22313285D01*
X11283443Y22316572D01*
X11274062Y22319490D01*
X11264392Y22322059D01*
X11254449Y22324296D01*
X11244249Y22326220D01*
X11223140Y22329201D01*
X11201191Y22331149D01*
X11178527Y22332211D01*
X11155275Y22332532D01*
X11129997Y22331874D01*
X11105985Y22329871D01*
X11083268Y22326480D01*
X11061876Y22321658D01*
X11051685Y22318697D01*
X11041837Y22315362D01*
X11032335Y22311647D01*
X11023182Y22307547D01*
X11014383Y22303058D01*
X11005940Y22298172D01*
X10997858Y22292886D01*
X10990140Y22287193D01*
X10982790Y22281088D01*
X10975812Y22274566D01*
X10969209Y22267621D01*
X10962985Y22260249D01*
X10957144Y22252442D01*
X10951689Y22244197D01*
X10946624Y22235508D01*
X10941953Y22226369D01*
X10937679Y22216775D01*
X10933806Y22206720D01*
X10930338Y22196200D01*
X10927279Y22185208D01*
X10924631Y22173740D01*
X10922400Y22161789D01*
X10920587Y22149351D01*
X10919198Y22136420D01*
X10562526Y22136420D01*
X10565218Y22166829D01*
X10569491Y22195922D01*
X10575292Y22223722D01*
X10582569Y22250252D01*
X10591269Y22275534D01*
X10601340Y22299593D01*
X10612730Y22322451D01*
X10625386Y22344130D01*
X10639256Y22364655D01*
X10654288Y22384047D01*
X10670428Y22402331D01*
X10687624Y22419528D01*
X10705825Y22435662D01*
X10724978Y22450756D01*
X10745029Y22464834D01*
X10765928Y22477917D01*
X10787621Y22490029D01*
X10810056Y22501193D01*
X10833180Y22511431D01*
X10856942Y22520768D01*
X10881288Y22529226D01*
X10906167Y22536827D01*
X10931526Y22543596D01*
X10957312Y22549554D01*
X11009958Y22559133D01*
X11063684Y22565746D01*
X11118072Y22569580D01*
X11172702Y22570817D01*
X11221744Y22570094D01*
G37*
G36*
X8401307Y22569664D02*
G01*
X8453083Y22566095D01*
X8503800Y22559917D01*
X8553138Y22550941D01*
X8600779Y22538980D01*
X8646402Y22523844D01*
X8689690Y22505347D01*
X8710359Y22494778D01*
X8730323Y22483299D01*
X8749545Y22470885D01*
X8767983Y22457512D01*
X8785599Y22443158D01*
X8802351Y22427799D01*
X8818200Y22411411D01*
X8833107Y22393971D01*
X8847031Y22375454D01*
X8859933Y22355839D01*
X8871772Y22335100D01*
X8882510Y22313215D01*
X8892105Y22290161D01*
X8900518Y22265912D01*
X8907710Y22240447D01*
X8913640Y22213741D01*
X8918268Y22185771D01*
X8921555Y22156514D01*
X8582659Y22156514D01*
X8581413Y22169173D01*
X8579624Y22181255D01*
X8577305Y22192773D01*
X8574468Y22203738D01*
X8571128Y22214161D01*
X8567297Y22224053D01*
X8562988Y22233427D01*
X8558216Y22242293D01*
X8552993Y22250663D01*
X8547332Y22258548D01*
X8541247Y22265960D01*
X8534750Y22272911D01*
X8527856Y22279410D01*
X8520578Y22285471D01*
X8512928Y22291105D01*
X8504920Y22296322D01*
X8496567Y22301134D01*
X8487883Y22305554D01*
X8478881Y22309591D01*
X8469573Y22313258D01*
X8459974Y22316566D01*
X8450096Y22319526D01*
X8439953Y22322151D01*
X8429558Y22324450D01*
X8408064Y22328121D01*
X8385722Y22330629D01*
X8362636Y22332067D01*
X8338914Y22332526D01*
X8323435Y22332357D01*
X8307300Y22331766D01*
X8290736Y22330635D01*
X8273973Y22328841D01*
X8257238Y22326265D01*
X8240760Y22322785D01*
X8224768Y22318281D01*
X8209489Y22312631D01*
X8202189Y22309339D01*
X8195153Y22305715D01*
X8188409Y22301744D01*
X8181987Y22297412D01*
X8175914Y22292702D01*
X8170220Y22287601D01*
X8164933Y22282092D01*
X8160080Y22276161D01*
X8155692Y22269793D01*
X8151796Y22262972D01*
X8148422Y22255684D01*
X8145596Y22247913D01*
X8143349Y22239644D01*
X8141709Y22230862D01*
X8140704Y22221553D01*
X8140362Y22211700D01*
X8140953Y22200037D01*
X8142699Y22188993D01*
X8145562Y22178542D01*
X8149506Y22168660D01*
X8154492Y22159320D01*
X8160482Y22150496D01*
X8167438Y22142164D01*
X8175324Y22134297D01*
X8184100Y22126870D01*
X8193729Y22119857D01*
X8204174Y22113233D01*
X8215396Y22106972D01*
X8227358Y22101049D01*
X8240021Y22095438D01*
X8253349Y22090113D01*
X8267303Y22085049D01*
X8296939Y22075601D01*
X8328627Y22066889D01*
X8362064Y22058708D01*
X8396947Y22050854D01*
X8469845Y22035307D01*
X8507254Y22027204D01*
X8544900Y22018609D01*
X8583834Y22009278D01*
X8622367Y21999099D01*
X8660208Y21987870D01*
X8697067Y21975390D01*
X8732651Y21961456D01*
X8766670Y21945865D01*
X8798831Y21928416D01*
X8828844Y21908906D01*
X8842954Y21898315D01*
X8856417Y21887134D01*
X8869198Y21875336D01*
X8881259Y21862896D01*
X8892565Y21849790D01*
X8903079Y21835992D01*
X8912764Y21821476D01*
X8921584Y21806218D01*
X8929504Y21790192D01*
X8936485Y21773372D01*
X8942492Y21755735D01*
X8947489Y21737253D01*
X8951439Y21717903D01*
X8954305Y21697658D01*
X8956051Y21676494D01*
X8956642Y21654385D01*
X8955775Y21623037D01*
X8953213Y21593021D01*
X8949010Y21564316D01*
X8943223Y21536899D01*
X8935907Y21510748D01*
X8927118Y21485841D01*
X8916911Y21462156D01*
X8905343Y21439671D01*
X8892468Y21418363D01*
X8878343Y21398211D01*
X8863023Y21379193D01*
X8846564Y21361285D01*
X8829021Y21344467D01*
X8810451Y21328717D01*
X8790908Y21314011D01*
X8770449Y21300327D01*
X8749129Y21287645D01*
X8727004Y21275941D01*
X8704130Y21265194D01*
X8680561Y21255380D01*
X8656355Y21246479D01*
X8631566Y21238469D01*
X8606251Y21231326D01*
X8580464Y21225028D01*
X8527700Y21214883D01*
X8473720Y21207856D01*
X8418969Y21203769D01*
X8363892Y21202446D01*
X8307554Y21203797D01*
X8251739Y21207966D01*
X8196855Y21215126D01*
X8143310Y21225451D01*
X8091514Y21239116D01*
X8041875Y21256293D01*
X7994800Y21277157D01*
X7972352Y21289026D01*
X7950699Y21301881D01*
X7929891Y21315745D01*
X7909980Y21330640D01*
X7891016Y21346586D01*
X7873051Y21363606D01*
X7856135Y21381721D01*
X7840321Y21400953D01*
X7825658Y21421325D01*
X7812198Y21442856D01*
X7799992Y21465570D01*
X7789091Y21489488D01*
X7779546Y21514632D01*
X7771408Y21541023D01*
X7764728Y21568684D01*
X7759558Y21597635D01*
X7755947Y21627899D01*
X7753948Y21659497D01*
X8092729Y21659497D01*
X8093123Y21645398D01*
X8094288Y21631809D01*
X8096200Y21618725D01*
X8098834Y21606143D01*
X8102166Y21594059D01*
X8106172Y21582469D01*
X8110827Y21571367D01*
X8116106Y21560752D01*
X8121986Y21550617D01*
X8128441Y21540960D01*
X8135447Y21531775D01*
X8142980Y21523060D01*
X8151015Y21514810D01*
X8159528Y21507021D01*
X8168494Y21499688D01*
X8177889Y21492808D01*
X8187688Y21486377D01*
X8197867Y21480390D01*
X8208402Y21474844D01*
X8219267Y21469734D01*
X8230439Y21465056D01*
X8241893Y21460807D01*
X8253605Y21456981D01*
X8265550Y21453576D01*
X8277703Y21450586D01*
X8290041Y21448009D01*
X8315171Y21444073D01*
X8340744Y21441735D01*
X8366564Y21440963D01*
X8385729Y21441444D01*
X8405418Y21442930D01*
X8425390Y21445489D01*
X8445400Y21449186D01*
X8465206Y21454088D01*
X8484564Y21460262D01*
X8503232Y21467773D01*
X8520967Y21476688D01*
X8529409Y21481693D01*
X8537526Y21487074D01*
X8545288Y21492839D01*
X8552666Y21498996D01*
X8559627Y21505554D01*
X8566143Y21512522D01*
X8572182Y21519906D01*
X8577714Y21527717D01*
X8582709Y21535961D01*
X8587137Y21544647D01*
X8590967Y21553785D01*
X8594169Y21563381D01*
X8596712Y21573444D01*
X8598566Y21583982D01*
X8599701Y21595005D01*
X8600086Y21606519D01*
X8599646Y21616453D01*
X8598332Y21626004D01*
X8596152Y21635187D01*
X8593116Y21644018D01*
X8589232Y21652510D01*
X8584508Y21660679D01*
X8578954Y21668538D01*
X8572579Y21676103D01*
X8565390Y21683389D01*
X8557397Y21690409D01*
X8548609Y21697179D01*
X8539034Y21703712D01*
X8528681Y21710025D01*
X8517558Y21716131D01*
X8505675Y21722045D01*
X8493041Y21727782D01*
X8479663Y21733356D01*
X8465551Y21738781D01*
X8450714Y21744074D01*
X8435159Y21749248D01*
X8401935Y21759297D01*
X8365949Y21769047D01*
X8327271Y21778615D01*
X8285970Y21788117D01*
X8242116Y21797671D01*
X8195780Y21807394D01*
X8118247Y21826559D01*
X8080386Y21837369D01*
X8043516Y21849275D01*
X8007927Y21862487D01*
X7973909Y21877215D01*
X7941753Y21893669D01*
X7911750Y21912057D01*
X7897646Y21922042D01*
X7884189Y21932590D01*
X7871415Y21943726D01*
X7859360Y21955476D01*
X7848062Y21967868D01*
X7837555Y21980926D01*
X7827877Y21994678D01*
X7819064Y22009149D01*
X7811151Y22024366D01*
X7804176Y22040354D01*
X7798174Y22057140D01*
X7793182Y22074751D01*
X7789237Y22093212D01*
X7786373Y22112549D01*
X7784629Y22132789D01*
X7784039Y22153958D01*
X7784868Y22184327D01*
X7787319Y22213282D01*
X7791339Y22240853D01*
X7796874Y22267069D01*
X7803870Y22291960D01*
X7812273Y22315555D01*
X7822030Y22337884D01*
X7833087Y22358976D01*
X7845390Y22378860D01*
X7858886Y22397567D01*
X7873520Y22415126D01*
X7889240Y22431566D01*
X7905991Y22446916D01*
X7923720Y22461207D01*
X7942373Y22474467D01*
X7961896Y22486726D01*
X7982235Y22498014D01*
X8003338Y22508360D01*
X8025149Y22517794D01*
X8047616Y22526344D01*
X8070685Y22534041D01*
X8094302Y22540914D01*
X8118412Y22546993D01*
X8142964Y22552306D01*
X8193173Y22560756D01*
X8244501Y22566500D01*
X8296516Y22569773D01*
X8348789Y22570811D01*
X8401307Y22569664D01*
G37*
G36*
X14527204Y25137489D02*
G01*
X14550252Y25135913D01*
X14572713Y25133157D01*
X14594539Y25129344D01*
X14615683Y25124595D01*
X14636099Y25119033D01*
X14655738Y25112781D01*
X14674553Y25105960D01*
X14692497Y25098693D01*
X14709523Y25091103D01*
X14725584Y25083310D01*
X14754618Y25067610D01*
X14779222Y25052571D01*
X14799018Y25039171D01*
X14813626Y25028388D01*
X14825767Y25018588D01*
X14819274Y25019985D01*
X14801422Y25022856D01*
X14788999Y25024226D01*
X14774652Y25025223D01*
X14758686Y25025600D01*
X14741406Y25025109D01*
X14723117Y25023502D01*
X14704124Y25020534D01*
X14684733Y25015956D01*
X14674983Y25012986D01*
X14665248Y25009521D01*
X14655566Y25005530D01*
X14645975Y25000981D01*
X14636513Y24995846D01*
X14627219Y24990091D01*
X14618130Y24983686D01*
X14609285Y24976601D01*
X14600721Y24968805D01*
X14592478Y24960266D01*
X14582309Y24948428D01*
X14573316Y24936386D01*
X14565551Y24924123D01*
X14559063Y24911623D01*
X14556315Y24905279D01*
X14553905Y24898870D01*
X14551841Y24892393D01*
X14550128Y24885847D01*
X14548773Y24879230D01*
X14547783Y24872539D01*
X14547163Y24865772D01*
X14546921Y24858928D01*
X14547062Y24852004D01*
X14547593Y24844999D01*
X14548520Y24837909D01*
X14549851Y24830734D01*
X14551590Y24823472D01*
X14553746Y24816119D01*
X14556323Y24808674D01*
X14559328Y24801136D01*
X14562769Y24793501D01*
X14566650Y24785769D01*
X14570980Y24777936D01*
X14575763Y24770002D01*
X14581007Y24761963D01*
X14586717Y24753818D01*
X14599565Y24737201D01*
X14611428Y24723583D01*
X14624521Y24710085D01*
X14638693Y24696836D01*
X14653790Y24683960D01*
X14669660Y24671584D01*
X14686149Y24659835D01*
X14703106Y24648840D01*
X14720377Y24638724D01*
X14737811Y24629614D01*
X14755254Y24621637D01*
X14772553Y24614919D01*
X14789557Y24609586D01*
X14806112Y24605765D01*
X14814174Y24604462D01*
X14822066Y24603583D01*
X14829770Y24603146D01*
X14837266Y24603166D01*
X14844535Y24603658D01*
X14851559Y24604639D01*
X14861059Y24606804D01*
X14869778Y24609627D01*
X14877748Y24613061D01*
X14885000Y24617059D01*
X14891565Y24621573D01*
X14897476Y24626554D01*
X14902763Y24631956D01*
X14907458Y24637731D01*
X14911592Y24643830D01*
X14915196Y24650207D01*
X14918303Y24656813D01*
X14920943Y24663601D01*
X14923148Y24670522D01*
X14924950Y24677530D01*
X14926379Y24684577D01*
X14927468Y24691615D01*
X14928748Y24705471D01*
X14929042Y24718719D01*
X14928601Y24730976D01*
X14927676Y24741861D01*
X14926520Y24750991D01*
X14925382Y24757985D01*
X14924171Y24764038D01*
X14943521Y24756574D01*
X14962964Y24746677D01*
X14982394Y24734437D01*
X15001706Y24719942D01*
X15039547Y24684539D01*
X15075641Y24641175D01*
X15109136Y24590555D01*
X15139185Y24533386D01*
X15164938Y24470374D01*
X15185547Y24402225D01*
X15200162Y24329647D01*
X15204957Y24291917D01*
X15207936Y24253344D01*
X15208992Y24214017D01*
X15208018Y24174024D01*
X15204910Y24133453D01*
X15199561Y24092392D01*
X15191865Y24050930D01*
X15181715Y24009155D01*
X15169006Y23967155D01*
X15153631Y23925019D01*
X15135485Y23882835D01*
X15114461Y23840691D01*
X15090453Y23798675D01*
X15063355Y23756876D01*
X15032606Y23714627D01*
X15000077Y23674526D01*
X14965746Y23636686D01*
X14929592Y23601220D01*
X14891593Y23568241D01*
X14851727Y23537863D01*
X14809974Y23510200D01*
X14766312Y23485363D01*
X14720719Y23463468D01*
X14673174Y23444626D01*
X14623656Y23428952D01*
X14572143Y23416559D01*
X14518613Y23407561D01*
X14463046Y23402069D01*
X14405419Y23400199D01*
X14345712Y23402062D01*
X14329930Y23403007D01*
X14314671Y23403172D01*
X14299901Y23402571D01*
X14285586Y23401218D01*
X14271691Y23399128D01*
X14258183Y23396314D01*
X14245028Y23392792D01*
X14232192Y23388575D01*
X14219640Y23383677D01*
X14207339Y23378114D01*
X14195255Y23371898D01*
X14183353Y23365045D01*
X14159962Y23349483D01*
X14136893Y23331541D01*
X14113875Y23311334D01*
X14090635Y23288976D01*
X14066901Y23264579D01*
X14042401Y23238260D01*
X13931298Y23116028D01*
X13876766Y23056848D01*
X13825520Y22999710D01*
X13778789Y22946417D01*
X13737801Y22898771D01*
X13703783Y22858576D01*
X13677965Y22827633D01*
X13655836Y22800716D01*
X13655836Y23977385D01*
X13655391Y24000719D01*
X13655571Y24023179D01*
X13656359Y24044783D01*
X13657739Y24065548D01*
X13659695Y24085492D01*
X13662212Y24104633D01*
X13665272Y24122989D01*
X13668859Y24140577D01*
X13672959Y24157416D01*
X13677553Y24173522D01*
X13682627Y24188915D01*
X13688165Y24203610D01*
X13694149Y24217627D01*
X13700564Y24230982D01*
X13707394Y24243694D01*
X13714623Y24255781D01*
X13722235Y24267259D01*
X13730213Y24278148D01*
X13738541Y24288464D01*
X13747203Y24298225D01*
X13756184Y24307449D01*
X13765466Y24316154D01*
X13775034Y24324358D01*
X13784872Y24332078D01*
X13794964Y24339332D01*
X13805293Y24346138D01*
X13815843Y24352513D01*
X13826598Y24358476D01*
X13848660Y24369234D01*
X13871350Y24378554D01*
X13884084Y24383094D01*
X13896681Y24387084D01*
X13909123Y24390548D01*
X13921391Y24393515D01*
X13933469Y24396011D01*
X13945340Y24398062D01*
X13956985Y24399696D01*
X13968387Y24400938D01*
X13979529Y24401816D01*
X13990394Y24402357D01*
X14000963Y24402586D01*
X14011220Y24402531D01*
X14021146Y24402219D01*
X14030725Y24401676D01*
X14048771Y24400003D01*
X14065217Y24397728D01*
X14079923Y24395063D01*
X14092750Y24392222D01*
X14103559Y24389418D01*
X14112209Y24386866D01*
X14118560Y24384778D01*
X14123809Y24382852D01*
X14107594Y24376244D01*
X14090357Y24368222D01*
X14080340Y24363100D01*
X14069727Y24357264D01*
X14058771Y24350733D01*
X14047724Y24343528D01*
X14036840Y24335668D01*
X14026370Y24327173D01*
X14016567Y24318063D01*
X14011995Y24313283D01*
X14007684Y24308356D01*
X14003666Y24303286D01*
X13999973Y24298074D01*
X13996636Y24292723D01*
X13993687Y24287236D01*
X13990806Y24280611D01*
X13988456Y24273756D01*
X13986636Y24266697D01*
X13985345Y24259460D01*
X13984581Y24252070D01*
X13984343Y24244552D01*
X13984630Y24236931D01*
X13985440Y24229234D01*
X13986771Y24221484D01*
X13988623Y24213708D01*
X13990993Y24205932D01*
X13993881Y24198179D01*
X13997284Y24190476D01*
X14001203Y24182849D01*
X14005634Y24175321D01*
X14010576Y24167920D01*
X14016029Y24160669D01*
X14021991Y24153595D01*
X14028460Y24146723D01*
X14035436Y24140078D01*
X14042915Y24133686D01*
X14050898Y24127572D01*
X14059382Y24121760D01*
X14068367Y24116278D01*
X14077850Y24111149D01*
X14087831Y24106400D01*
X14098308Y24102056D01*
X14109279Y24098141D01*
X14120744Y24094682D01*
X14132700Y24091704D01*
X14145146Y24089232D01*
X14158081Y24087291D01*
X14177192Y24085473D01*
X14195993Y24084954D01*
X14214425Y24085690D01*
X14232429Y24087636D01*
X14249945Y24090745D01*
X14266915Y24094974D01*
X14283278Y24100276D01*
X14298977Y24106606D01*
X14313950Y24113919D01*
X14328140Y24122170D01*
X14341488Y24131313D01*
X14353933Y24141303D01*
X14365416Y24152096D01*
X14375879Y24163645D01*
X14385262Y24175905D01*
X14393505Y24188832D01*
X14400550Y24202379D01*
X14406338Y24216502D01*
X14410808Y24231155D01*
X14413903Y24246294D01*
X14415562Y24261872D01*
X14415726Y24277844D01*
X14414336Y24294166D01*
X14411333Y24310792D01*
X14406658Y24327676D01*
X14400251Y24344774D01*
X14392053Y24362040D01*
X14382005Y24379429D01*
X14370048Y24396895D01*
X14356122Y24414394D01*
X14340168Y24431880D01*
X14322127Y24449307D01*
X14281645Y24488061D01*
X14245015Y24527380D01*
X14228222Y24547208D01*
X14212484Y24567128D01*
X14197832Y24587120D01*
X14184298Y24607170D01*
X14171912Y24627259D01*
X14160705Y24647372D01*
X14150707Y24667490D01*
X14141950Y24687598D01*
X14134465Y24707677D01*
X14128282Y24727713D01*
X14123431Y24747686D01*
X14119945Y24767581D01*
X14117854Y24787381D01*
X14117189Y24807069D01*
X14117980Y24826628D01*
X14120258Y24846041D01*
X14124055Y24865290D01*
X14129400Y24884360D01*
X14136326Y24903234D01*
X14144862Y24921894D01*
X14155040Y24940323D01*
X14166891Y24958505D01*
X14180445Y24976423D01*
X14195732Y24994060D01*
X14212785Y25011399D01*
X14231634Y25028423D01*
X14252309Y25045115D01*
X14274842Y25061459D01*
X14301159Y25078406D01*
X14327362Y25092951D01*
X14353404Y25105215D01*
X14379237Y25115321D01*
X14404814Y25123392D01*
X14430088Y25129549D01*
X14455011Y25133915D01*
X14479536Y25136612D01*
X14503617Y25137763D01*
X14527204Y25137489D01*
G37*
%TD*%
M02*
