%TF.GenerationSoftware,KiCad,Pcbnew,9.0.7*%
%TF.CreationDate,2026-04-02T09:03:20-06:00*%
%TF.ProjectId,MCP4725_Breakout,4d435034-3732-4355-9f42-7265616b6f75,v20*%
%TF.SameCoordinates,Original*%
%TF.FileFunction,Copper,L2,Bot*%
%TF.FilePolarity,Positive*%
%FSLAX46Y46*%
G04 Gerber Fmt 4.6, Leading zero omitted, Abs format (unit mm)*
G04 Created by KiCad (PCBNEW 9.0.7) date 2026-04-02 09:03:20*
%MOMM*%
%LPD*%
G01*
G04 APERTURE LIST*
%ADD10C,0.190500*%
%TA.AperFunction,EtchedComponent*%
%ADD11C,0.000000*%
%TD*%
%TA.AperFunction,ComponentPad*%
%ADD12C,1.879600*%
%TD*%
%TA.AperFunction,SMDPad,CuDef*%
%ADD13R,1.270000X0.660400*%
%TD*%
%TA.AperFunction,SMDPad,CuDef*%
%ADD14C,0.500000*%
%TD*%
%TA.AperFunction,ViaPad*%
%ADD15C,0.600000*%
%TD*%
%TA.AperFunction,Conductor*%
%ADD16C,0.200000*%
%TD*%
%TA.AperFunction,Conductor*%
%ADD17C,0.177800*%
%TD*%
G04 APERTURE END LIST*
D10*
G36*
X14656770Y9029780D02*
G01*
X14706166Y9005081D01*
X14720593Y8990655D01*
X14739910Y8952021D01*
X14739910Y8924420D01*
X14720593Y8885787D01*
X14706166Y8871361D01*
X14656770Y8846662D01*
X14533148Y8815756D01*
X14375172Y8815756D01*
X14251547Y8846663D01*
X14202154Y8871359D01*
X14187727Y8885786D01*
X14168410Y8924420D01*
X14168410Y8952021D01*
X14187727Y8990655D01*
X14202154Y9005082D01*
X14251547Y9029779D01*
X14375172Y9060685D01*
X14533148Y9060685D01*
X14656770Y9029780D01*
G37*
G36*
X15025660Y7188459D02*
G01*
X13882660Y7188459D01*
X13882660Y7573285D01*
X13978933Y7573285D01*
X13979625Y7559364D01*
X13978933Y7545443D01*
X13980541Y7540939D01*
X13980779Y7536166D01*
X13986741Y7523578D01*
X13991432Y7510444D01*
X13994642Y7506898D01*
X13996688Y7502579D01*
X14007020Y7493225D01*
X14016375Y7482892D01*
X14020693Y7480847D01*
X14024240Y7477636D01*
X14041124Y7469663D01*
X14549124Y7288235D01*
X14567239Y7283709D01*
X14604359Y7285555D01*
X14637945Y7301464D01*
X14662888Y7329016D01*
X14675388Y7364015D01*
X14673542Y7401134D01*
X14657632Y7434721D01*
X14630080Y7459664D01*
X14613196Y7467637D01*
X14356358Y7559365D01*
X14613196Y7651092D01*
X14630080Y7659065D01*
X14657632Y7684008D01*
X14673541Y7717595D01*
X14675387Y7754714D01*
X14662888Y7789713D01*
X14637945Y7817265D01*
X14604358Y7833174D01*
X14567239Y7835020D01*
X14549124Y7830494D01*
X14041124Y7649065D01*
X14024240Y7641092D01*
X14020693Y7637882D01*
X14016375Y7635836D01*
X14007020Y7625504D01*
X13996688Y7616149D01*
X13994642Y7611831D01*
X13991432Y7608284D01*
X13986741Y7595151D01*
X13980779Y7582562D01*
X13980541Y7577790D01*
X13978933Y7573285D01*
X13882660Y7573285D01*
X13882660Y8430221D01*
X13977910Y8430221D01*
X13977910Y7958507D01*
X13979740Y7939925D01*
X13993963Y7905589D01*
X14020242Y7879310D01*
X14054578Y7865087D01*
X14091742Y7865087D01*
X14126078Y7879310D01*
X14140512Y7891155D01*
X14560040Y8310684D01*
X14632902Y8334971D01*
X14667531Y8334971D01*
X14706165Y8315654D01*
X14720592Y8301227D01*
X14739910Y8262592D01*
X14739910Y8126136D01*
X14720592Y8087501D01*
X14695236Y8062144D01*
X14683391Y8047710D01*
X14669169Y8013374D01*
X14669169Y7976210D01*
X14683391Y7941874D01*
X14709670Y7915595D01*
X14744006Y7901373D01*
X14781170Y7901373D01*
X14815506Y7915595D01*
X14829940Y7927440D01*
X14866226Y7963726D01*
X14872221Y7971032D01*
X14874121Y7972679D01*
X14875923Y7975543D01*
X14878071Y7978159D01*
X14879033Y7980483D01*
X14884068Y7988480D01*
X14920354Y8061051D01*
X14927027Y8078490D01*
X14927269Y8081904D01*
X14928580Y8085067D01*
X14930410Y8103649D01*
X14930410Y8285078D01*
X14928580Y8303660D01*
X14927269Y8306824D01*
X14927027Y8310237D01*
X14920354Y8327676D01*
X14884068Y8400247D01*
X14879033Y8408245D01*
X14878071Y8410568D01*
X14875923Y8413185D01*
X14874121Y8416048D01*
X14872221Y8417696D01*
X14866226Y8425001D01*
X14829940Y8461287D01*
X14822635Y8467282D01*
X14820987Y8469182D01*
X14818120Y8470987D01*
X14815506Y8473132D01*
X14813185Y8474094D01*
X14805186Y8479129D01*
X14732615Y8515415D01*
X14715176Y8522088D01*
X14711762Y8522331D01*
X14708599Y8523641D01*
X14690017Y8525471D01*
X14617446Y8525471D01*
X14608040Y8524545D01*
X14605532Y8524723D01*
X14602232Y8523973D01*
X14598864Y8523641D01*
X14596540Y8522679D01*
X14587325Y8520583D01*
X14478467Y8484297D01*
X14461418Y8476685D01*
X14458831Y8474442D01*
X14455669Y8473132D01*
X14441236Y8461287D01*
X14168410Y8188461D01*
X14168410Y8430221D01*
X14166580Y8448803D01*
X14152357Y8483139D01*
X14126078Y8509418D01*
X14091742Y8523641D01*
X14054578Y8523641D01*
X14020242Y8509418D01*
X13993963Y8483139D01*
X13979740Y8448803D01*
X13977910Y8430221D01*
X13882660Y8430221D01*
X13882660Y8974506D01*
X13977910Y8974506D01*
X13977910Y8901935D01*
X13979740Y8883353D01*
X13981049Y8880193D01*
X13981292Y8876777D01*
X13987966Y8859338D01*
X14024252Y8786766D01*
X14029287Y8778767D01*
X14030249Y8776445D01*
X14032394Y8773831D01*
X14034199Y8770964D01*
X14036099Y8769316D01*
X14042094Y8762011D01*
X14078379Y8725726D01*
X14085685Y8719730D01*
X14087332Y8717831D01*
X14090193Y8716030D01*
X14092813Y8713880D01*
X14095139Y8712917D01*
X14103134Y8707884D01*
X14175706Y8671598D01*
X14177064Y8671079D01*
X14177618Y8670668D01*
X14185415Y8667883D01*
X14193145Y8664924D01*
X14193831Y8664876D01*
X14195201Y8664386D01*
X14340344Y8628100D01*
X14343566Y8627624D01*
X14344864Y8627086D01*
X14351866Y8626397D01*
X14358815Y8625369D01*
X14360202Y8625576D01*
X14363446Y8625256D01*
X14544874Y8625256D01*
X14548113Y8625576D01*
X14549505Y8625368D01*
X14556466Y8626398D01*
X14563456Y8627086D01*
X14564753Y8627624D01*
X14567976Y8628100D01*
X14713119Y8664386D01*
X14714491Y8664877D01*
X14715176Y8664925D01*
X14722898Y8667880D01*
X14730702Y8670668D01*
X14731254Y8671078D01*
X14732615Y8671598D01*
X14805186Y8707884D01*
X14813182Y8712919D01*
X14815505Y8713880D01*
X14818121Y8716027D01*
X14820987Y8717831D01*
X14822634Y8719731D01*
X14829939Y8725725D01*
X14866225Y8762010D01*
X14872221Y8769317D01*
X14874121Y8770964D01*
X14875923Y8773828D01*
X14878070Y8776443D01*
X14879032Y8778767D01*
X14884068Y8786766D01*
X14920354Y8859338D01*
X14927028Y8876777D01*
X14927270Y8880193D01*
X14928580Y8883353D01*
X14930410Y8901935D01*
X14930410Y8974506D01*
X14928580Y8993088D01*
X14927270Y8996249D01*
X14927028Y8999664D01*
X14920354Y9017103D01*
X14884068Y9089675D01*
X14879032Y9097675D01*
X14878070Y9099998D01*
X14875923Y9102614D01*
X14874121Y9105477D01*
X14872221Y9107125D01*
X14866225Y9114431D01*
X14829939Y9150716D01*
X14822634Y9156711D01*
X14820987Y9158610D01*
X14818121Y9160415D01*
X14815505Y9162561D01*
X14813182Y9163523D01*
X14805186Y9168557D01*
X14732615Y9204843D01*
X14731254Y9205364D01*
X14730702Y9205773D01*
X14722898Y9208562D01*
X14715176Y9211516D01*
X14714491Y9211565D01*
X14713119Y9212055D01*
X14567976Y9248341D01*
X14564753Y9248818D01*
X14563456Y9249355D01*
X14556466Y9250044D01*
X14549505Y9251073D01*
X14548113Y9250866D01*
X14544874Y9251185D01*
X14363446Y9251185D01*
X14360202Y9250866D01*
X14358815Y9251072D01*
X14351866Y9250045D01*
X14344864Y9249355D01*
X14343566Y9248818D01*
X14340344Y9248341D01*
X14195201Y9212055D01*
X14193831Y9211566D01*
X14193145Y9211517D01*
X14185415Y9208559D01*
X14177618Y9205773D01*
X14177064Y9205363D01*
X14175706Y9204843D01*
X14103134Y9168557D01*
X14095139Y9163525D01*
X14092813Y9162561D01*
X14090193Y9160412D01*
X14087332Y9158610D01*
X14085685Y9156712D01*
X14078379Y9150715D01*
X14042094Y9114430D01*
X14036099Y9107126D01*
X14034199Y9105477D01*
X14032394Y9102611D01*
X14030249Y9099996D01*
X14029287Y9097675D01*
X14024252Y9089675D01*
X13987966Y9017103D01*
X13981292Y8999664D01*
X13981049Y8996249D01*
X13979740Y8993088D01*
X13977910Y8974506D01*
X13882660Y8974506D01*
X13882660Y9346435D01*
X15025660Y9346435D01*
X15025660Y7188459D01*
G37*
D11*
%TA.AperFunction,EtchedComponent*%
%TO.C,JP1*%
G36*
X8064500Y2413000D02*
G01*
X7764500Y2413000D01*
X7764500Y2913000D01*
X8064500Y2913000D01*
X8064500Y2413000D01*
G37*
%TD.AperFunction*%
%TA.AperFunction,EtchedComponent*%
G36*
X8087500Y3445700D02*
G01*
X7787500Y3445700D01*
X7787500Y3945700D01*
X8087500Y3945700D01*
X8087500Y3445700D01*
G37*
%TD.AperFunction*%
%TA.AperFunction,EtchedComponent*%
%TO.C,JP2*%
G36*
X8405000Y12450000D02*
G01*
X8105000Y12450000D01*
X8105000Y12950000D01*
X8405000Y12950000D01*
X8405000Y12450000D01*
G37*
%TD.AperFunction*%
%TD*%
D12*
%TO.P,J2,1,Pin_1*%
%TO.N,GND*%
X1358900Y1428750D03*
%TO.P,J2,2,Pin_2*%
%TO.N,3.3V*%
X1358900Y3968750D03*
%TO.P,J2,3,Pin_3*%
%TO.N,SDA*%
X1358900Y6508750D03*
%TO.P,J2,4,Pin_4*%
%TO.N,SCL*%
X1358900Y9048750D03*
%TD*%
%TO.P,J1,1,Pin_1*%
%TO.N,VOUT*%
X1358900Y14128750D03*
%TO.P,J1,2,Pin_2*%
%TO.N,GND*%
X1358900Y11588750D03*
%TD*%
D13*
%TO.P,JP1,1,A*%
%TO.N,Net-(JP1-A)*%
X7937500Y4216400D03*
%TO.P,JP1,2,B*%
%TO.N,3.3V*%
X7937500Y3175000D03*
%TO.P,JP1,3,C*%
%TO.N,Net-(JP1-C)*%
X7937500Y2133600D03*
%TD*%
D14*
%TO.P,FID1,*%
%TO.N,*%
X11112500Y14287500D03*
%TD*%
D13*
%TO.P,JP2,1,A*%
%TO.N,GND*%
X8255000Y13220700D03*
%TO.P,JP2,2,B*%
%TO.N,ADDR*%
X8255000Y12179300D03*
%TD*%
D14*
%TO.P,FID4,*%
%TO.N,*%
X5715000Y1587500D03*
%TD*%
D15*
%TO.N,GND*%
X14693900Y5238750D03*
X4533900Y14446250D03*
X3683000Y14986000D03*
X5168900Y10953750D03*
X5080000Y8731250D03*
X3898900Y12223750D03*
X5168900Y13811250D03*
X14693900Y6508750D03*
X9779000Y8509000D03*
X10795000Y793750D03*
X7493000Y6223000D03*
X9525000Y13176250D03*
X4533900Y11588750D03*
X3263900Y12858750D03*
X5803900Y13176250D03*
X6032500Y793750D03*
%TO.N,3.3V*%
X6826250Y13017500D03*
X5803900Y7143750D03*
%TO.N,Net-(JP1-C)*%
X9553575Y2638425D03*
%TO.N,Net-(JP1-A)*%
X6731000Y3937000D03*
%TO.N,ADDR*%
X9525000Y11398750D03*
%TD*%
D16*
%TO.N,3.3V*%
X5803900Y3968750D02*
X5803900Y4286250D01*
X5803900Y11995150D02*
X5803900Y7143750D01*
X6350000Y3333750D02*
X5803900Y3879850D01*
X8026400Y3333750D02*
X6350000Y3333750D01*
X5803900Y4286250D02*
X5803900Y7143750D01*
X6826250Y13017500D02*
X5803900Y11995150D01*
X5803900Y3879850D02*
X5803900Y3968750D01*
X1358900Y3968750D02*
X5803900Y3968750D01*
%TO.N,Net-(JP1-C)*%
X9553575Y2638425D02*
X9207500Y2292350D01*
X9207500Y2292350D02*
X8026400Y2292350D01*
D17*
%TO.N,Net-(JP1-A)*%
X7937500Y4216400D02*
X7010400Y4216400D01*
X7010400Y4216400D02*
X6731000Y3937000D01*
D16*
X6731000Y3937000D02*
X6794550Y4000550D01*
D17*
%TO.N,ADDR*%
X8255000Y12179300D02*
X9410700Y12179300D01*
X9525000Y12065000D02*
X9525000Y11398750D01*
X9410700Y12179300D02*
X9525000Y12065000D01*
%TD*%
%TA.AperFunction,Conductor*%
%TO.N,GND*%
G36*
X15746038Y15755307D02*
G01*
X15771758Y15710758D01*
X15772900Y15697700D01*
X15772900Y177300D01*
X15755307Y128962D01*
X15710758Y103242D01*
X15697700Y102100D01*
X1920035Y102100D01*
X1871697Y119693D01*
X1845977Y164242D01*
X1854910Y214900D01*
X1885895Y244304D01*
X2037419Y321510D01*
X2202276Y441287D01*
X2202284Y441294D01*
X2346356Y585366D01*
X2346363Y585374D01*
X2466140Y750231D01*
X2558650Y931792D01*
X2621623Y1125604D01*
X2621623Y1125605D01*
X2641540Y1251350D01*
X1837287Y1251350D01*
X1866900Y1361870D01*
X1866900Y1495630D01*
X1837287Y1606150D01*
X2641540Y1606150D01*
X2635140Y1646556D01*
X2635140Y1646557D01*
X2634057Y1653392D01*
X5214500Y1653392D01*
X5214500Y1521608D01*
X5220799Y1498101D01*
X5248608Y1394312D01*
X5314499Y1280186D01*
X5407685Y1187000D01*
X5521811Y1121109D01*
X5521813Y1121109D01*
X5521814Y1121108D01*
X5649108Y1087000D01*
X5649111Y1087000D01*
X5780889Y1087000D01*
X5780892Y1087000D01*
X5908186Y1121108D01*
X5915974Y1125604D01*
X6022314Y1187000D01*
X6115500Y1280186D01*
X6181391Y1394312D01*
X6181392Y1394314D01*
X6215500Y1521608D01*
X6215500Y1653392D01*
X6181392Y1780686D01*
X6181391Y1780687D01*
X6181391Y1780689D01*
X6115500Y1894815D01*
X6022314Y1988001D01*
X5908188Y2053892D01*
X5857268Y2067536D01*
X5780892Y2088000D01*
X5649108Y2088000D01*
X5585461Y2070946D01*
X5521811Y2053892D01*
X5407685Y1988001D01*
X5314499Y1894815D01*
X5248608Y1780689D01*
X5235640Y1732289D01*
X5214500Y1653392D01*
X2634057Y1653392D01*
X2621623Y1731896D01*
X2621623Y1731897D01*
X2558650Y1925709D01*
X2466140Y2107270D01*
X2346363Y2272127D01*
X2346356Y2272135D01*
X2202284Y2416207D01*
X2202276Y2416214D01*
X2037419Y2535991D01*
X1855855Y2628503D01*
X1779674Y2653256D01*
X1739139Y2684926D01*
X1728445Y2735242D01*
X1752595Y2780660D01*
X1779669Y2796292D01*
X1836852Y2814871D01*
X2011475Y2903845D01*
X2170028Y3019041D01*
X2308609Y3157622D01*
X2423805Y3316175D01*
X2512779Y3490798D01*
X2519502Y3511489D01*
X2551172Y3552024D01*
X2591021Y3563450D01*
X5515971Y3563450D01*
X5564309Y3545857D01*
X5569145Y3541424D01*
X6101135Y3009433D01*
X6101138Y3009431D01*
X6101140Y3009429D01*
X6193560Y2956071D01*
X6296641Y2928450D01*
X6922001Y2928450D01*
X6970339Y2910857D01*
X6996059Y2866308D01*
X6997201Y2853250D01*
X6997201Y2799222D01*
X6999354Y2780660D01*
X7000162Y2773691D01*
X7039466Y2684675D01*
X7042896Y2633349D01*
X7039466Y2623926D01*
X7000162Y2534910D01*
X6997200Y2509377D01*
X6997200Y1757830D01*
X7000162Y1732289D01*
X7000163Y1732286D01*
X7046264Y1627879D01*
X7046266Y1627875D01*
X7046267Y1627874D01*
X7046269Y1627871D01*
X7126970Y1547170D01*
X7126973Y1547168D01*
X7126975Y1547166D01*
X7231391Y1501062D01*
X7256921Y1498100D01*
X8618078Y1498101D01*
X8643609Y1501062D01*
X8748025Y1547166D01*
X8828734Y1627875D01*
X8874838Y1732291D01*
X8877800Y1757821D01*
X8877800Y1811850D01*
X8895393Y1860188D01*
X8939942Y1885908D01*
X8953000Y1887050D01*
X9260857Y1887050D01*
X9260859Y1887050D01*
X9363940Y1914671D01*
X9456360Y1968029D01*
X9499430Y2011100D01*
X9546049Y2032839D01*
X9552604Y2033125D01*
X9633261Y2033125D01*
X9633264Y2033125D01*
X9787212Y2074375D01*
X9925238Y2154065D01*
X9952934Y2181761D01*
X11623400Y2181761D01*
X11623400Y1945739D01*
X11654207Y1711736D01*
X11710657Y1501062D01*
X11715295Y1483755D01*
X11715295Y1483754D01*
X11805616Y1265700D01*
X11923628Y1061298D01*
X12067303Y874057D01*
X12067315Y874043D01*
X12234192Y707166D01*
X12234206Y707154D01*
X12392923Y585366D01*
X12421450Y563477D01*
X12625851Y445466D01*
X12843907Y355144D01*
X13071886Y294057D01*
X13305889Y263250D01*
X13305892Y263250D01*
X13541908Y263250D01*
X13541911Y263250D01*
X13775914Y294057D01*
X14003893Y355144D01*
X14221949Y445466D01*
X14426350Y563477D01*
X14613599Y707158D01*
X14780492Y874051D01*
X14924173Y1061300D01*
X15042184Y1265701D01*
X15132506Y1483757D01*
X15193593Y1711736D01*
X15224400Y1945739D01*
X15224400Y2181761D01*
X15193593Y2415764D01*
X15132506Y2643743D01*
X15042184Y2861799D01*
X15036257Y2872064D01*
X14924171Y3066203D01*
X14780496Y3253444D01*
X14780484Y3253458D01*
X14613607Y3420335D01*
X14613593Y3420347D01*
X14426352Y3564022D01*
X14221950Y3682034D01*
X14003896Y3772355D01*
X14003894Y3772356D01*
X14003893Y3772356D01*
X13775914Y3833443D01*
X13541911Y3864250D01*
X13305889Y3864250D01*
X13071886Y3833443D01*
X13071882Y3833442D01*
X13071881Y3833442D01*
X13003388Y3815089D01*
X12843907Y3772356D01*
X12843905Y3772356D01*
X12843904Y3772355D01*
X12843903Y3772355D01*
X12625849Y3682034D01*
X12421447Y3564022D01*
X12234206Y3420347D01*
X12234192Y3420335D01*
X12067315Y3253458D01*
X12067303Y3253444D01*
X11923628Y3066203D01*
X11805616Y2861801D01*
X11715295Y2643747D01*
X11715295Y2643746D01*
X11715294Y2643743D01*
X11709984Y2623926D01*
X11654326Y2416207D01*
X11654207Y2415764D01*
X11623400Y2181761D01*
X9952934Y2181761D01*
X10008571Y2237397D01*
X10037935Y2266762D01*
X10117625Y2404788D01*
X10158875Y2558736D01*
X10158875Y2718114D01*
X10117625Y2872062D01*
X10069122Y2956071D01*
X10037935Y3010089D01*
X9925238Y3122786D01*
X9787212Y3202475D01*
X9633264Y3243725D01*
X9473886Y3243725D01*
X9319938Y3202475D01*
X9319936Y3202475D01*
X9181911Y3122786D01*
X9069215Y3010090D01*
X9018124Y2921598D01*
X8978718Y2888534D01*
X8927278Y2888534D01*
X8887874Y2921600D01*
X8877799Y2959197D01*
X8877799Y3550778D01*
X8874838Y3576309D01*
X8874837Y3576312D01*
X8874836Y3576315D01*
X8835534Y3665326D01*
X8832103Y3716651D01*
X8835534Y3726076D01*
X8874837Y3815089D01*
X8874838Y3815091D01*
X8877800Y3840621D01*
X8877799Y4592178D01*
X8874838Y4617709D01*
X8874837Y4617712D01*
X8874836Y4617715D01*
X8828735Y4722122D01*
X8828734Y4722124D01*
X8828734Y4722125D01*
X8828731Y4722128D01*
X8828730Y4722130D01*
X8748029Y4802831D01*
X8748026Y4802833D01*
X8748025Y4802834D01*
X8661683Y4840958D01*
X8643607Y4848939D01*
X8626038Y4850977D01*
X8618079Y4851900D01*
X8618076Y4851900D01*
X7256929Y4851900D01*
X7231388Y4848938D01*
X7231385Y4848937D01*
X7126978Y4802836D01*
X7126970Y4802831D01*
X7046269Y4722130D01*
X7046265Y4722124D01*
X7016472Y4654650D01*
X6980853Y4617538D01*
X6963179Y4612187D01*
X6963263Y4611877D01*
X6889751Y4592179D01*
X6858244Y4583737D01*
X6803924Y4552375D01*
X6766324Y4542300D01*
X6651311Y4542300D01*
X6497363Y4501050D01*
X6497361Y4501050D01*
X6359336Y4421361D01*
X6337574Y4399598D01*
X6290954Y4377858D01*
X6241267Y4391172D01*
X6211762Y4433309D01*
X6209200Y4452772D01*
X6209200Y6661879D01*
X6226793Y6710217D01*
X6231215Y6715043D01*
X6288260Y6772087D01*
X6367950Y6910113D01*
X6409200Y7064061D01*
X6409200Y7223439D01*
X6394884Y7276869D01*
X13971819Y7276869D01*
X14936501Y7276869D01*
X14936501Y9257882D01*
X13971819Y9257882D01*
X13971819Y7276869D01*
X6394884Y7276869D01*
X6367950Y7377387D01*
X6367949Y7377389D01*
X6288260Y7515414D01*
X6231226Y7572448D01*
X6209486Y7619068D01*
X6209200Y7625622D01*
X6209200Y11796121D01*
X6226793Y11844459D01*
X6231226Y11849295D01*
X6772105Y12390174D01*
X6818725Y12411914D01*
X6825279Y12412200D01*
X6905936Y12412200D01*
X6905939Y12412200D01*
X7059887Y12453450D01*
X7197913Y12533140D01*
X7197913Y12533141D01*
X7201900Y12535442D01*
X7252558Y12544375D01*
X7297106Y12518655D01*
X7314700Y12470317D01*
X7314700Y11803530D01*
X7317662Y11777989D01*
X7317663Y11777986D01*
X7356094Y11690950D01*
X7363766Y11673575D01*
X7363767Y11673574D01*
X7363769Y11673571D01*
X7444470Y11592870D01*
X7444473Y11592868D01*
X7444475Y11592866D01*
X7548891Y11546762D01*
X7574421Y11543800D01*
X8844500Y11543801D01*
X8892838Y11526208D01*
X8918558Y11481659D01*
X8919700Y11468601D01*
X8919700Y11319061D01*
X8928665Y11285604D01*
X8960950Y11165114D01*
X8960950Y11165112D01*
X9040639Y11027087D01*
X9153336Y10914390D01*
X9233026Y10868382D01*
X9291363Y10834700D01*
X9445311Y10793450D01*
X9445314Y10793450D01*
X9604686Y10793450D01*
X9604689Y10793450D01*
X9758637Y10834700D01*
X9896663Y10914390D01*
X10009360Y11027087D01*
X10089050Y11165113D01*
X10130300Y11319061D01*
X10130300Y11478439D01*
X10089050Y11632387D01*
X10065268Y11673579D01*
X10009360Y11770414D01*
X9941226Y11838548D01*
X9934288Y11853425D01*
X9923735Y11866002D01*
X9920884Y11882170D01*
X9919486Y11885168D01*
X9919200Y11891722D01*
X9919200Y12007034D01*
X9919201Y12007047D01*
X9919201Y12116895D01*
X9919201Y12116897D01*
X9892337Y12217155D01*
X9891993Y12217750D01*
X9876832Y12244010D01*
X9871739Y12252832D01*
X9840439Y12307045D01*
X9840437Y12307047D01*
X9840435Y12307050D01*
X9765181Y12382304D01*
X9765150Y12382333D01*
X9732333Y12415149D01*
X9732325Y12415160D01*
X9652749Y12494736D01*
X9652743Y12494740D01*
X9562858Y12546635D01*
X9562857Y12546636D01*
X9562856Y12546636D01*
X9531346Y12555079D01*
X9531345Y12555080D01*
X9531344Y12555080D01*
X9462598Y12573501D01*
X9462597Y12573501D01*
X9358803Y12573501D01*
X9354200Y12573501D01*
X9354184Y12573500D01*
X9250424Y12573500D01*
X9202086Y12591093D01*
X9176366Y12635642D01*
X9182865Y12681728D01*
X9234751Y12787864D01*
X9244799Y12856820D01*
X9244800Y12856830D01*
X9244800Y13043300D01*
X8330200Y13043300D01*
X8281862Y13060893D01*
X8256142Y13105442D01*
X8255000Y13118500D01*
X8255000Y13220700D01*
X8152800Y13220700D01*
X8104462Y13238293D01*
X8078742Y13282842D01*
X8077600Y13295900D01*
X8077600Y13398100D01*
X8432400Y13398100D01*
X9244800Y13398100D01*
X9244800Y13584571D01*
X9244799Y13584581D01*
X9234751Y13653538D01*
X9182744Y13759920D01*
X9099019Y13843645D01*
X8992636Y13895652D01*
X8992637Y13895652D01*
X8923680Y13905700D01*
X8432400Y13905700D01*
X8432400Y13398100D01*
X8077600Y13398100D01*
X8077600Y13905700D01*
X7586319Y13905700D01*
X7517362Y13895652D01*
X7410980Y13843645D01*
X7327255Y13759920D01*
X7275248Y13653537D01*
X7264849Y13582169D01*
X7240470Y13536873D01*
X7192679Y13517845D01*
X7152835Y13527887D01*
X7059887Y13581550D01*
X7036188Y13587900D01*
X6905939Y13622800D01*
X6746561Y13622800D01*
X6592613Y13581550D01*
X6592611Y13581550D01*
X6454586Y13501861D01*
X6341889Y13389164D01*
X6262200Y13251139D01*
X6262200Y13251137D01*
X6220950Y13097189D01*
X6220950Y13097187D01*
X6220950Y13016530D01*
X6203357Y12968192D01*
X6198924Y12963356D01*
X5479582Y12244015D01*
X5479579Y12244010D01*
X5426221Y12151592D01*
X5398600Y12048508D01*
X5398600Y7625622D01*
X5381007Y7577284D01*
X5376574Y7572448D01*
X5319539Y7515414D01*
X5239850Y7377389D01*
X5239850Y7377387D01*
X5198600Y7223439D01*
X5198600Y7064061D01*
X5219331Y6986692D01*
X5239850Y6910114D01*
X5239850Y6910112D01*
X5319538Y6772089D01*
X5319539Y6772088D01*
X5319540Y6772087D01*
X5376574Y6715053D01*
X5398314Y6668434D01*
X5398600Y6661879D01*
X5398600Y4449250D01*
X5381007Y4400912D01*
X5336458Y4375192D01*
X5323400Y4374050D01*
X2591021Y4374050D01*
X2542683Y4391643D01*
X2519502Y4426011D01*
X2512781Y4446696D01*
X2512780Y4446697D01*
X2512779Y4446702D01*
X2423805Y4621325D01*
X2308609Y4779878D01*
X2308607Y4779880D01*
X2308600Y4779888D01*
X2170037Y4918451D01*
X2170029Y4918458D01*
X2011476Y5033654D01*
X2011477Y5033654D01*
X2011475Y5033655D01*
X1836852Y5122629D01*
X1836845Y5122632D01*
X1836841Y5122633D01*
X1745205Y5152407D01*
X1699580Y5167232D01*
X1659046Y5198900D01*
X1648351Y5249216D01*
X1672500Y5294634D01*
X1699580Y5310269D01*
X1836852Y5354871D01*
X2011475Y5443845D01*
X2170028Y5559041D01*
X2308609Y5697622D01*
X2423805Y5856175D01*
X2512779Y6030798D01*
X2573341Y6217188D01*
X2604000Y6410759D01*
X2604000Y6606741D01*
X2573341Y6800312D01*
X2512779Y6986702D01*
X2423805Y7161325D01*
X2308609Y7319878D01*
X2308607Y7319880D01*
X2308600Y7319888D01*
X2170037Y7458451D01*
X2170029Y7458458D01*
X2091637Y7515414D01*
X2011475Y7573655D01*
X1836852Y7662629D01*
X1836845Y7662632D01*
X1836841Y7662633D01*
X1745205Y7692407D01*
X1699580Y7707232D01*
X1659046Y7738900D01*
X1648351Y7789216D01*
X1672500Y7834634D01*
X1699580Y7850269D01*
X1836852Y7894871D01*
X2011475Y7983845D01*
X2170028Y8099041D01*
X2308609Y8237622D01*
X2423805Y8396175D01*
X2512779Y8570798D01*
X2573341Y8757188D01*
X2604000Y8950759D01*
X2604000Y9146741D01*
X2573341Y9340312D01*
X2512779Y9526702D01*
X2423805Y9701325D01*
X2308609Y9859878D01*
X2308607Y9859880D01*
X2308600Y9859888D01*
X2170037Y9998451D01*
X2170029Y9998458D01*
X2011476Y10113654D01*
X2011477Y10113654D01*
X2011475Y10113655D01*
X1836852Y10202629D01*
X1836845Y10202632D01*
X1836841Y10202633D01*
X1779675Y10221207D01*
X1739140Y10252876D01*
X1728445Y10303192D01*
X1752594Y10348611D01*
X1779675Y10364245D01*
X1855853Y10388997D01*
X2037419Y10481510D01*
X2202276Y10601287D01*
X2202284Y10601294D01*
X2346356Y10745366D01*
X2346363Y10745374D01*
X2466140Y10910231D01*
X2558650Y11091792D01*
X2621623Y11285604D01*
X2621623Y11285605D01*
X2641540Y11411350D01*
X1837287Y11411350D01*
X1866900Y11521870D01*
X1866900Y11655630D01*
X1837287Y11766150D01*
X2641540Y11766150D01*
X2621623Y11891896D01*
X2621623Y11891897D01*
X2558650Y12085709D01*
X2466140Y12267270D01*
X2346363Y12432127D01*
X2346356Y12432135D01*
X2202284Y12576207D01*
X2202276Y12576214D01*
X2037419Y12695991D01*
X1855855Y12788503D01*
X1779674Y12813256D01*
X1739139Y12844926D01*
X1728445Y12895242D01*
X1752595Y12940660D01*
X1779669Y12956292D01*
X1836852Y12974871D01*
X2011475Y13063845D01*
X2170028Y13179041D01*
X2308609Y13317622D01*
X2423805Y13476175D01*
X2512779Y13650798D01*
X2573341Y13837188D01*
X2604000Y14030759D01*
X2604000Y14226741D01*
X2583940Y14353392D01*
X10612000Y14353392D01*
X10612000Y14221608D01*
X10627576Y14163477D01*
X10646108Y14094312D01*
X10711999Y13980186D01*
X10805185Y13887000D01*
X10919311Y13821109D01*
X10919313Y13821109D01*
X10919314Y13821108D01*
X11046608Y13787000D01*
X11046611Y13787000D01*
X11178389Y13787000D01*
X11178392Y13787000D01*
X11305686Y13821108D01*
X11333531Y13837184D01*
X11419814Y13887000D01*
X11513000Y13980186D01*
X11558107Y14058313D01*
X11597512Y14091378D01*
X11648952Y14091378D01*
X11688357Y14058313D01*
X11697290Y14007655D01*
X11695872Y14001261D01*
X11654207Y13845764D01*
X11623400Y13611761D01*
X11623400Y13375739D01*
X11654207Y13141736D01*
X11715146Y12914309D01*
X11715295Y12913755D01*
X11715295Y12913754D01*
X11805616Y12695700D01*
X11923628Y12491298D01*
X12067303Y12304057D01*
X12067315Y12304043D01*
X12234192Y12137166D01*
X12234206Y12137154D01*
X12421447Y11993479D01*
X12609046Y11885168D01*
X12625851Y11875466D01*
X12843907Y11785144D01*
X13071886Y11724057D01*
X13305889Y11693250D01*
X13305892Y11693250D01*
X13541908Y11693250D01*
X13541911Y11693250D01*
X13775914Y11724057D01*
X14003893Y11785144D01*
X14221949Y11875466D01*
X14426350Y11993477D01*
X14613599Y12137158D01*
X14780492Y12304051D01*
X14924173Y12491300D01*
X15042184Y12695701D01*
X15132506Y12913757D01*
X15193593Y13141736D01*
X15224400Y13375739D01*
X15224400Y13611761D01*
X15193593Y13845764D01*
X15132506Y14073743D01*
X15042184Y14291799D01*
X14924173Y14496200D01*
X14809208Y14646025D01*
X14780496Y14683444D01*
X14780484Y14683458D01*
X14613607Y14850335D01*
X14613593Y14850347D01*
X14426352Y14994022D01*
X14221950Y15112034D01*
X14003896Y15202355D01*
X14003894Y15202356D01*
X14003893Y15202356D01*
X13775914Y15263443D01*
X13541911Y15294250D01*
X13305889Y15294250D01*
X13071886Y15263443D01*
X13071882Y15263442D01*
X13071881Y15263442D01*
X12927347Y15224714D01*
X12843907Y15202356D01*
X12843905Y15202356D01*
X12843904Y15202355D01*
X12843903Y15202355D01*
X12625849Y15112034D01*
X12421447Y14994022D01*
X12234206Y14850347D01*
X12234192Y14850335D01*
X12067315Y14683458D01*
X12067303Y14683444D01*
X11923628Y14496203D01*
X11805616Y14291800D01*
X11752463Y14163477D01*
X11717710Y14125552D01*
X11666711Y14118838D01*
X11623327Y14146476D01*
X11607859Y14195535D01*
X11610350Y14211719D01*
X11613000Y14221609D01*
X11613000Y14353390D01*
X11613000Y14353392D01*
X11578892Y14480686D01*
X11578891Y14480687D01*
X11578891Y14480689D01*
X11513000Y14594815D01*
X11419814Y14688001D01*
X11305688Y14753892D01*
X11254768Y14767536D01*
X11178392Y14788000D01*
X11046608Y14788000D01*
X10982961Y14770946D01*
X10919311Y14753892D01*
X10805185Y14688001D01*
X10711999Y14594815D01*
X10646108Y14480689D01*
X10629932Y14420317D01*
X10612000Y14353392D01*
X2583940Y14353392D01*
X2573341Y14420312D01*
X2512779Y14606702D01*
X2423805Y14781325D01*
X2308609Y14939878D01*
X2308607Y14939880D01*
X2308600Y14939888D01*
X2170037Y15078451D01*
X2170029Y15078458D01*
X2011476Y15193654D01*
X2011477Y15193654D01*
X2011475Y15193655D01*
X1836852Y15282629D01*
X1836845Y15282632D01*
X1836841Y15282633D01*
X1650466Y15343190D01*
X1650454Y15343193D01*
X1456893Y15373850D01*
X1456891Y15373850D01*
X1260909Y15373850D01*
X1260906Y15373850D01*
X1067345Y15343193D01*
X1067333Y15343190D01*
X880958Y15282633D01*
X880950Y15282630D01*
X880948Y15282629D01*
X880944Y15282628D01*
X880944Y15282627D01*
X706323Y15193654D01*
X547770Y15078458D01*
X547762Y15078451D01*
X409199Y14939888D01*
X409192Y14939880D01*
X293996Y14781327D01*
X244304Y14683799D01*
X206683Y14648717D01*
X155314Y14646025D01*
X114232Y14676982D01*
X102100Y14717939D01*
X102100Y15697700D01*
X119693Y15746038D01*
X164242Y15771758D01*
X177300Y15772900D01*
X15697700Y15772900D01*
X15746038Y15755307D01*
G37*
%TD.AperFunction*%
%TD*%
M02*
