%TF.GenerationSoftware,KiCad,Pcbnew,9.0.7*%
%TF.CreationDate,2026-04-02T09:03:20-06:00*%
%TF.ProjectId,MCP4725_Breakout,4d435034-3732-4355-9f42-7265616b6f75,v20*%
%TF.SameCoordinates,Original*%
%TF.FileFunction,Legend,Top*%
%TF.FilePolarity,Positive*%
%FSLAX46Y46*%
G04 Gerber Fmt 4.6, Leading zero omitted, Abs format (unit mm)*
G04 Created by KiCad (PCBNEW 9.0.7) date 2026-04-02 09:03:20*
%MOMM*%
%LPD*%
G01*
G04 APERTURE LIST*
%ADD10C,0.000000*%
%ADD11C,0.203200*%
%ADD12C,0.200000*%
%ADD13C,0.120000*%
G04 APERTURE END LIST*
D10*
%TO.C,kibuzzard-69B46E2F*%
G36*
X4138885Y6449181D02*
G01*
X4031303Y6449181D01*
X4085094Y6560197D01*
X4138885Y6449181D01*
G37*
G36*
X3335452Y6682371D02*
G01*
X3397254Y6640311D01*
X3439314Y6578509D01*
X3453334Y6505261D01*
X3439314Y6432157D01*
X3397254Y6370783D01*
X3335738Y6329153D01*
X3263349Y6315276D01*
X3170645Y6315276D01*
X3170645Y6696391D01*
X3262204Y6696391D01*
X3335452Y6682371D01*
G37*
G36*
X4859116Y7296080D02*
G01*
X4936534Y7284596D01*
X5012453Y7265579D01*
X5086143Y7239213D01*
X5156894Y7205750D01*
X5224024Y7165514D01*
X5286887Y7118892D01*
X5344877Y7066332D01*
X5397437Y7008342D01*
X5444059Y6945479D01*
X5484295Y6878348D01*
X5517758Y6807598D01*
X5544125Y6733908D01*
X5563141Y6657988D01*
X5574625Y6580571D01*
X5578466Y6502400D01*
X5574625Y6424229D01*
X5563141Y6346812D01*
X5544125Y6270892D01*
X5517758Y6197202D01*
X5484295Y6126452D01*
X5444059Y6059321D01*
X5397437Y5996458D01*
X5344877Y5938468D01*
X5286887Y5885908D01*
X5224024Y5839286D01*
X5156894Y5799050D01*
X5086143Y5765587D01*
X5012453Y5739221D01*
X4936534Y5720204D01*
X4859116Y5708720D01*
X4780945Y5704880D01*
X4494822Y5704880D01*
X4335738Y5704880D01*
X3065352Y5704880D01*
X2619000Y5704880D01*
X2321432Y5704880D01*
X1939934Y5704880D01*
X1939934Y6292386D01*
X2326010Y6292386D01*
X2354622Y6217994D01*
X2361489Y6209982D01*
X2374078Y6193959D01*
X2394107Y6173931D01*
X2421575Y6151613D01*
X2457054Y6129868D01*
X2501117Y6110984D01*
X2554908Y6098394D01*
X2619000Y6093244D01*
X2695108Y6101828D01*
X2773506Y6131012D01*
X2843892Y6181942D01*
X2893678Y6259195D01*
X2908270Y6308695D01*
X2913134Y6363344D01*
X2902405Y6448895D01*
X2870216Y6510984D01*
X2820001Y6554474D01*
X2755194Y6584231D01*
X2681947Y6601971D01*
X2612133Y6616277D01*
X2566925Y6636306D01*
X2546897Y6673502D01*
X2565209Y6708409D01*
X2607555Y6722715D01*
X2645323Y6718709D01*
X2667641Y6710125D01*
X2683664Y6696964D01*
X2696825Y6686091D01*
X2773506Y6664918D01*
X2841031Y6720426D01*
X2868499Y6790812D01*
X2860099Y6802829D01*
X2961203Y6802829D01*
X2961203Y6211127D01*
X2964064Y6170497D01*
X2976081Y6138452D01*
X3007555Y6113845D01*
X3065352Y6105833D01*
X3259915Y6105833D01*
X3340387Y6113237D01*
X3414708Y6135447D01*
X3477148Y6169353D01*
X3687955Y6169353D01*
X3752047Y6113845D01*
X3835595Y6097250D01*
X3892819Y6160769D01*
X3945466Y6270640D01*
X4227011Y6270640D01*
X4279658Y6161914D01*
X4335738Y6096105D01*
X4420430Y6112700D01*
X4483950Y6168781D01*
X4468499Y6250039D01*
X4181231Y6844031D01*
X4142033Y6890383D01*
X4086239Y6905833D01*
X4030159Y6889238D01*
X3990101Y6845175D01*
X3702834Y6250039D01*
X3687955Y6169353D01*
X3477148Y6169353D01*
X3482877Y6172464D01*
X3544894Y6224288D01*
X3596468Y6286556D01*
X3633306Y6354904D01*
X3655409Y6429331D01*
X3662777Y6509839D01*
X3655409Y6588237D01*
X3633306Y6660912D01*
X3596468Y6727865D01*
X3544894Y6789095D01*
X3483091Y6840168D01*
X3415566Y6876649D01*
X3342319Y6898537D01*
X3263349Y6905833D01*
X3066496Y6905833D01*
X3005838Y6898394D01*
X2973792Y6872643D01*
X2962920Y6841170D01*
X2961203Y6802829D01*
X2860099Y6802829D01*
X2827297Y6849753D01*
X2767911Y6887903D01*
X2695045Y6910793D01*
X2608699Y6918423D01*
X2535325Y6910729D01*
X2470852Y6887649D01*
X2415280Y6849181D01*
X2372680Y6799014D01*
X2347119Y6740836D01*
X2338599Y6674646D01*
X2347755Y6600254D01*
X2375223Y6538452D01*
X2421003Y6489238D01*
X2485094Y6452615D01*
X2528442Y6437021D01*
X2582948Y6422286D01*
X2672791Y6395390D01*
X2702548Y6359911D01*
X2681947Y6306692D01*
X2614422Y6290097D01*
X2569214Y6300969D01*
X2522862Y6342743D01*
X2471233Y6384454D01*
X2421638Y6392084D01*
X2374078Y6365633D01*
X2326010Y6292386D01*
X1939934Y6292386D01*
X1939934Y7299920D01*
X2321432Y7299920D01*
X4494822Y7299920D01*
X4780945Y7299920D01*
X4859116Y7296080D01*
G37*
%TO.C,G\u002A\u002A\u002A*%
G36*
X11002205Y12567145D02*
G01*
X11030903Y12565183D01*
X11058870Y12561751D01*
X11086047Y12557003D01*
X11112375Y12551090D01*
X11137795Y12544165D01*
X11162248Y12536380D01*
X11185676Y12527888D01*
X11208019Y12518839D01*
X11229219Y12509388D01*
X11249217Y12499685D01*
X11285369Y12480136D01*
X11316005Y12461410D01*
X11340653Y12444725D01*
X11358843Y12431299D01*
X11373960Y12419096D01*
X11365875Y12420836D01*
X11343647Y12424410D01*
X11328179Y12426117D01*
X11310314Y12427358D01*
X11290434Y12427827D01*
X11268918Y12427215D01*
X11246146Y12425215D01*
X11222497Y12421519D01*
X11198352Y12415819D01*
X11186212Y12412121D01*
X11174091Y12407806D01*
X11162035Y12402836D01*
X11150093Y12397173D01*
X11138312Y12390778D01*
X11126739Y12383613D01*
X11115422Y12375638D01*
X11104408Y12366817D01*
X11093745Y12357109D01*
X11083481Y12346477D01*
X11070819Y12331736D01*
X11059622Y12316742D01*
X11049953Y12301473D01*
X11041875Y12285909D01*
X11038453Y12278010D01*
X11035452Y12270029D01*
X11032882Y12261965D01*
X11030749Y12253814D01*
X11029062Y12245575D01*
X11027829Y12237243D01*
X11027057Y12228818D01*
X11026755Y12220296D01*
X11026931Y12211675D01*
X11027592Y12202952D01*
X11028747Y12194125D01*
X11030404Y12185191D01*
X11032570Y12176147D01*
X11035253Y12166992D01*
X11038462Y12157723D01*
X11042205Y12148336D01*
X11046489Y12138830D01*
X11051322Y12129202D01*
X11056712Y12119449D01*
X11062668Y12109569D01*
X11069198Y12099559D01*
X11076308Y12089418D01*
X11092305Y12068727D01*
X11107076Y12051770D01*
X11123380Y12034964D01*
X11141025Y12018466D01*
X11159823Y12002434D01*
X11179583Y11987024D01*
X11200115Y11972395D01*
X11221229Y11958704D01*
X11242735Y11946109D01*
X11264442Y11934766D01*
X11286161Y11924833D01*
X11307701Y11916468D01*
X11328873Y11909828D01*
X11349487Y11905071D01*
X11359525Y11903447D01*
X11369352Y11902353D01*
X11378944Y11901809D01*
X11388278Y11901833D01*
X11397329Y11902447D01*
X11406075Y11903668D01*
X11417904Y11906363D01*
X11428760Y11909878D01*
X11438684Y11914155D01*
X11447714Y11919133D01*
X11455889Y11924753D01*
X11463248Y11930955D01*
X11469832Y11937682D01*
X11475677Y11944872D01*
X11480825Y11952467D01*
X11485313Y11960406D01*
X11489182Y11968632D01*
X11492469Y11977084D01*
X11495215Y11985702D01*
X11497458Y11994428D01*
X11499238Y12003203D01*
X11500593Y12011965D01*
X11502187Y12029219D01*
X11502553Y12045715D01*
X11502004Y12060977D01*
X11500853Y12074529D01*
X11499413Y12085898D01*
X11497997Y12094606D01*
X11496489Y12102144D01*
X11520582Y12092849D01*
X11544792Y12080527D01*
X11568985Y12065286D01*
X11593031Y12047238D01*
X11640150Y12003156D01*
X11685091Y11949160D01*
X11726798Y11886131D01*
X11764213Y11814947D01*
X11796279Y11736488D01*
X11821940Y11651633D01*
X11840139Y11561262D01*
X11846110Y11514282D01*
X11849818Y11466254D01*
X11851133Y11417286D01*
X11849921Y11367488D01*
X11846051Y11316971D01*
X11839390Y11265844D01*
X11829807Y11214218D01*
X11817169Y11162202D01*
X11801344Y11109906D01*
X11782200Y11057440D01*
X11759605Y11004914D01*
X11733427Y10952438D01*
X11703533Y10900122D01*
X11669792Y10848076D01*
X11631506Y10795470D01*
X11591002Y10745539D01*
X11548255Y10698422D01*
X11503238Y10654261D01*
X11455923Y10613198D01*
X11406285Y10575373D01*
X11354296Y10540928D01*
X11299930Y10510003D01*
X11243160Y10482739D01*
X11183960Y10459279D01*
X11122302Y10439763D01*
X11058161Y10424332D01*
X10991508Y10413127D01*
X10922319Y10406289D01*
X10850565Y10403960D01*
X10776221Y10406281D01*
X10756570Y10407458D01*
X10737570Y10407663D01*
X10719179Y10406914D01*
X10701354Y10405229D01*
X10684053Y10402627D01*
X10667234Y10399123D01*
X10650854Y10394738D01*
X10634871Y10389487D01*
X10619242Y10383389D01*
X10603925Y10376461D01*
X10588879Y10368722D01*
X10574059Y10360189D01*
X10544934Y10340812D01*
X10516210Y10318472D01*
X10487549Y10293311D01*
X10458611Y10265471D01*
X10429059Y10235094D01*
X10398553Y10202322D01*
X10260214Y10050125D01*
X10192313Y9976437D01*
X10128504Y9905292D01*
X10070317Y9838934D01*
X10019281Y9779608D01*
X9976924Y9729559D01*
X9944775Y9691030D01*
X9917222Y9657514D01*
X9917222Y11122643D01*
X9916668Y11151697D01*
X9916892Y11179663D01*
X9917873Y11206563D01*
X9919592Y11232419D01*
X9922027Y11257252D01*
X9925160Y11281086D01*
X9928971Y11303942D01*
X9933438Y11325842D01*
X9938542Y11346809D01*
X9944263Y11366863D01*
X9950581Y11386029D01*
X9957476Y11404327D01*
X9964927Y11421780D01*
X9972915Y11438409D01*
X9981420Y11454238D01*
X9990421Y11469287D01*
X9999898Y11483580D01*
X10009832Y11497137D01*
X10020202Y11509982D01*
X10030987Y11522136D01*
X10042169Y11533622D01*
X10053727Y11544461D01*
X10065641Y11554676D01*
X10077891Y11564289D01*
X10090456Y11573321D01*
X10103318Y11581795D01*
X10116454Y11589734D01*
X10129846Y11597158D01*
X10157317Y11610553D01*
X10185569Y11622158D01*
X10201426Y11627811D01*
X10217110Y11632779D01*
X10232602Y11637093D01*
X10247878Y11640787D01*
X10262917Y11643895D01*
X10277697Y11646449D01*
X10292197Y11648483D01*
X10306395Y11650030D01*
X10320268Y11651123D01*
X10333796Y11651796D01*
X10346956Y11652082D01*
X10359728Y11652014D01*
X10372088Y11651625D01*
X10384015Y11650948D01*
X10406484Y11648866D01*
X10426962Y11646032D01*
X10445274Y11642714D01*
X10461245Y11639176D01*
X10474703Y11635686D01*
X10485473Y11632508D01*
X10493382Y11629909D01*
X10499917Y11627510D01*
X10479728Y11619283D01*
X10458265Y11609293D01*
X10445792Y11602915D01*
X10432578Y11595649D01*
X10418936Y11587517D01*
X10405182Y11578546D01*
X10391629Y11568759D01*
X10378592Y11558182D01*
X10366386Y11546838D01*
X10360693Y11540886D01*
X10355326Y11534752D01*
X10350323Y11528439D01*
X10345725Y11521949D01*
X10341570Y11515287D01*
X10337898Y11508454D01*
X10334310Y11500205D01*
X10331384Y11491669D01*
X10329118Y11482880D01*
X10327510Y11473869D01*
X10326560Y11464667D01*
X10326263Y11455306D01*
X10326620Y11445817D01*
X10327629Y11436232D01*
X10329286Y11426583D01*
X10331592Y11416901D01*
X10334543Y11407218D01*
X10338139Y11397565D01*
X10342377Y11387973D01*
X10347255Y11378476D01*
X10352773Y11369103D01*
X10358927Y11359887D01*
X10365717Y11350859D01*
X10373141Y11342051D01*
X10381196Y11333494D01*
X10389881Y11325220D01*
X10399194Y11317261D01*
X10409134Y11309648D01*
X10419698Y11302412D01*
X10430885Y11295585D01*
X10442693Y11289199D01*
X10455121Y11283286D01*
X10468166Y11277876D01*
X10481827Y11273002D01*
X10496102Y11268695D01*
X10510989Y11264987D01*
X10526487Y11261909D01*
X10542593Y11259492D01*
X10566389Y11257228D01*
X10589799Y11256583D01*
X10612749Y11257499D01*
X10635167Y11259922D01*
X10656977Y11263794D01*
X10678107Y11269059D01*
X10698482Y11275660D01*
X10718028Y11283542D01*
X10736673Y11292648D01*
X10754342Y11302922D01*
X10770961Y11314307D01*
X10786457Y11326746D01*
X10800755Y11340184D01*
X10813783Y11354565D01*
X10825466Y11369831D01*
X10835730Y11385926D01*
X10844503Y11402795D01*
X10851709Y11420380D01*
X10857275Y11438625D01*
X10861128Y11457475D01*
X10863194Y11476872D01*
X10863398Y11496760D01*
X10861668Y11517083D01*
X10857929Y11537784D01*
X10852108Y11558808D01*
X10844130Y11580097D01*
X10833923Y11601596D01*
X10821412Y11623247D01*
X10806523Y11644996D01*
X10789183Y11666784D01*
X10769318Y11688557D01*
X10746854Y11710257D01*
X10696448Y11758511D01*
X10650838Y11807468D01*
X10629928Y11832158D01*
X10610332Y11856960D01*
X10592089Y11881855D01*
X10575236Y11906819D01*
X10559814Y11931834D01*
X10545859Y11956876D01*
X10533410Y11981927D01*
X10522507Y12006964D01*
X10513186Y12031966D01*
X10505487Y12056913D01*
X10499448Y12081783D01*
X10495108Y12106556D01*
X10492504Y12131210D01*
X10491675Y12155724D01*
X10492660Y12180077D01*
X10495497Y12204249D01*
X10500224Y12228218D01*
X10506880Y12251963D01*
X10515504Y12275463D01*
X10526133Y12298697D01*
X10538806Y12321645D01*
X10553561Y12344284D01*
X10570438Y12366595D01*
X10589473Y12388555D01*
X10610707Y12410144D01*
X10634176Y12431342D01*
X10659920Y12452126D01*
X10687977Y12472476D01*
X10720745Y12493578D01*
X10753372Y12511688D01*
X10785798Y12526960D01*
X10817964Y12539544D01*
X10849811Y12549593D01*
X10881281Y12557259D01*
X10912314Y12562696D01*
X10942852Y12566054D01*
X10972835Y12567486D01*
X11002205Y12567145D01*
G37*
D11*
%TO.C,U2*%
X9413100Y9207500D02*
X10271900Y9207500D01*
X10271900Y6667500D02*
X9413100Y6667500D01*
D12*
X8926500Y9537700D02*
G75*
G02*
X8726500Y9537700I-100000J0D01*
G01*
X8726500Y9537700D02*
G75*
G02*
X8926500Y9537700I100000J0D01*
G01*
D10*
%TO.C,kibuzzard-69B46D94*%
G36*
X4319506Y1598366D02*
G01*
X4381309Y1556306D01*
X4423369Y1494503D01*
X4437389Y1421256D01*
X4423369Y1348151D01*
X4381309Y1286778D01*
X4319792Y1245147D01*
X4247403Y1231270D01*
X4154699Y1231270D01*
X4154699Y1612386D01*
X4246259Y1612386D01*
X4319506Y1598366D01*
G37*
G36*
X5028328Y627741D02*
G01*
X4646831Y627741D01*
X4049406Y627741D01*
X3281452Y627741D01*
X2766430Y627741D01*
X2363569Y627741D01*
X1982072Y627741D01*
X1982072Y1432700D01*
X2363569Y1432700D01*
X2371008Y1348795D01*
X2393326Y1271041D01*
X2430522Y1199439D01*
X2482596Y1133988D01*
X2544971Y1079410D01*
X2613068Y1040426D01*
X2686888Y1017035D01*
X2766430Y1009238D01*
X2854175Y1014198D01*
X2929711Y1029076D01*
X2993040Y1053874D01*
X3035100Y1080340D01*
X3067432Y1111670D01*
X3094900Y1177479D01*
X3094900Y1412100D01*
X3094327Y1440712D01*
X3089177Y1465891D01*
X3075443Y1488781D01*
X3048548Y1503659D01*
X3004485Y1511670D01*
X2804199Y1511670D01*
X2773297Y1509954D01*
X2748118Y1500798D01*
X2726945Y1473902D01*
X2720651Y1423544D01*
X2726373Y1372042D01*
X2745829Y1345147D01*
X2769864Y1335991D01*
X2800765Y1334274D01*
X2885458Y1334274D01*
X2885458Y1235848D01*
X2836817Y1224689D01*
X2771008Y1220969D01*
X2696902Y1236706D01*
X2632525Y1283916D01*
X2587890Y1352014D01*
X2573011Y1430411D01*
X2587317Y1506377D01*
X2630236Y1569467D01*
X2693469Y1611957D01*
X2768719Y1626120D01*
X2839392Y1618108D01*
X2898047Y1594074D01*
X2959849Y1567751D01*
X3002196Y1582915D01*
X3044542Y1628409D01*
X3070865Y1692500D01*
X3061867Y1719968D01*
X3178447Y1719968D01*
X3178447Y1125977D01*
X3180736Y1085919D01*
X3191609Y1054446D01*
X3222510Y1028695D01*
X3281452Y1020683D01*
X3342110Y1028695D01*
X3374156Y1054446D01*
X3385028Y1085347D01*
X3386745Y1124832D01*
X3386745Y1443001D01*
X3683169Y1051585D01*
X3716931Y1026978D01*
X3775872Y1020683D01*
X3836530Y1028695D01*
X3868576Y1054446D01*
X3879449Y1085347D01*
X3881166Y1124832D01*
X3881166Y1715390D01*
X3881017Y1718823D01*
X3945257Y1718823D01*
X3945257Y1127121D01*
X3948118Y1086492D01*
X3960136Y1054446D01*
X3991609Y1029839D01*
X4049406Y1021828D01*
X4243970Y1021828D01*
X4324442Y1029231D01*
X4398762Y1051441D01*
X4466931Y1088459D01*
X4528948Y1140283D01*
X4580522Y1202550D01*
X4617360Y1270898D01*
X4639463Y1345326D01*
X4646831Y1425833D01*
X4639463Y1504231D01*
X4617360Y1576906D01*
X4580522Y1643859D01*
X4528948Y1705090D01*
X4467146Y1756163D01*
X4399621Y1792643D01*
X4326373Y1814532D01*
X4247403Y1821828D01*
X4050551Y1821828D01*
X3989892Y1814389D01*
X3957847Y1788637D01*
X3946974Y1757164D01*
X3945257Y1718823D01*
X3881017Y1718823D01*
X3879449Y1754875D01*
X3868576Y1786348D01*
X3836530Y1812672D01*
X3777017Y1820683D01*
X3717503Y1812672D01*
X3685458Y1788065D01*
X3674013Y1757736D01*
X3671724Y1719968D01*
X3671724Y1391499D01*
X3385601Y1776048D01*
X3365000Y1799510D01*
X3335815Y1813816D01*
X3283741Y1820683D01*
X3223655Y1813244D01*
X3192181Y1788637D01*
X3180736Y1758308D01*
X3178447Y1719968D01*
X3061867Y1719968D01*
X3059993Y1725690D01*
X3038819Y1749725D01*
X3006774Y1772615D01*
X2957704Y1799081D01*
X2897475Y1818967D01*
X2833812Y1831413D01*
X2774442Y1835562D01*
X2692789Y1828158D01*
X2617217Y1805948D01*
X2547725Y1768931D01*
X2484313Y1717107D01*
X2431488Y1654911D01*
X2393755Y1586778D01*
X2371116Y1512708D01*
X2363569Y1432700D01*
X1982072Y1432700D01*
X1982072Y2217059D01*
X2363569Y2217059D01*
X4646831Y2217059D01*
X5028328Y2217059D01*
X5028328Y627741D01*
G37*
G36*
X4268706Y11758366D02*
G01*
X4330509Y11716306D01*
X4372569Y11654503D01*
X4386589Y11581256D01*
X4372569Y11508151D01*
X4330509Y11446778D01*
X4268992Y11405147D01*
X4196603Y11391270D01*
X4103899Y11391270D01*
X4103899Y11772386D01*
X4195459Y11772386D01*
X4268706Y11758366D01*
G37*
G36*
X4977528Y10787741D02*
G01*
X4596031Y10787741D01*
X3998606Y10787741D01*
X3230652Y10787741D01*
X2715630Y10787741D01*
X2312769Y10787741D01*
X1931272Y10787741D01*
X1931272Y11592700D01*
X2312769Y11592700D01*
X2320208Y11508795D01*
X2342526Y11431041D01*
X2379722Y11359439D01*
X2431796Y11293988D01*
X2494171Y11239410D01*
X2562268Y11200426D01*
X2636088Y11177035D01*
X2715630Y11169238D01*
X2803375Y11174198D01*
X2878911Y11189076D01*
X2942240Y11213874D01*
X2984300Y11240340D01*
X3016632Y11271670D01*
X3044100Y11337479D01*
X3044100Y11572100D01*
X3043527Y11600712D01*
X3038377Y11625891D01*
X3024643Y11648781D01*
X2997748Y11663659D01*
X2953685Y11671670D01*
X2753399Y11671670D01*
X2722497Y11669954D01*
X2697318Y11660798D01*
X2676145Y11633902D01*
X2669851Y11583544D01*
X2675573Y11532042D01*
X2695029Y11505147D01*
X2719064Y11495991D01*
X2749965Y11494274D01*
X2834658Y11494274D01*
X2834658Y11395848D01*
X2786017Y11384689D01*
X2720208Y11380969D01*
X2646102Y11396706D01*
X2581725Y11443916D01*
X2537090Y11512014D01*
X2522211Y11590411D01*
X2536517Y11666377D01*
X2579436Y11729467D01*
X2642669Y11771957D01*
X2717919Y11786120D01*
X2788592Y11778108D01*
X2847247Y11754074D01*
X2909049Y11727751D01*
X2951396Y11742915D01*
X2993742Y11788409D01*
X3020065Y11852500D01*
X3011067Y11879968D01*
X3127647Y11879968D01*
X3127647Y11285977D01*
X3129936Y11245919D01*
X3140809Y11214446D01*
X3171710Y11188695D01*
X3230652Y11180683D01*
X3291310Y11188695D01*
X3323356Y11214446D01*
X3334228Y11245347D01*
X3335945Y11284832D01*
X3335945Y11603001D01*
X3632369Y11211585D01*
X3666131Y11186978D01*
X3725072Y11180683D01*
X3785730Y11188695D01*
X3817776Y11214446D01*
X3828649Y11245347D01*
X3830366Y11284832D01*
X3830366Y11875390D01*
X3830217Y11878823D01*
X3894457Y11878823D01*
X3894457Y11287121D01*
X3897318Y11246492D01*
X3909336Y11214446D01*
X3940809Y11189839D01*
X3998606Y11181828D01*
X4193170Y11181828D01*
X4273642Y11189231D01*
X4347962Y11211441D01*
X4416131Y11248459D01*
X4478148Y11300283D01*
X4529722Y11362550D01*
X4566560Y11430898D01*
X4588663Y11505326D01*
X4596031Y11585833D01*
X4588663Y11664231D01*
X4566560Y11736906D01*
X4529722Y11803859D01*
X4478148Y11865090D01*
X4416346Y11916163D01*
X4348821Y11952643D01*
X4275573Y11974532D01*
X4196603Y11981828D01*
X3999751Y11981828D01*
X3939092Y11974389D01*
X3907047Y11948637D01*
X3896174Y11917164D01*
X3894457Y11878823D01*
X3830217Y11878823D01*
X3828649Y11914875D01*
X3817776Y11946348D01*
X3785730Y11972672D01*
X3726217Y11980683D01*
X3666703Y11972672D01*
X3634658Y11948065D01*
X3623213Y11917736D01*
X3620924Y11879968D01*
X3620924Y11551499D01*
X3334801Y11936048D01*
X3314200Y11959510D01*
X3285015Y11973816D01*
X3232941Y11980683D01*
X3172855Y11973244D01*
X3141381Y11948637D01*
X3129936Y11918308D01*
X3127647Y11879968D01*
X3011067Y11879968D01*
X3009193Y11885690D01*
X2988019Y11909725D01*
X2955974Y11932615D01*
X2906904Y11959081D01*
X2846675Y11978967D01*
X2783012Y11991413D01*
X2723642Y11995562D01*
X2641989Y11988158D01*
X2566417Y11965948D01*
X2496925Y11928931D01*
X2433513Y11877107D01*
X2380688Y11814911D01*
X2342955Y11746778D01*
X2320316Y11672708D01*
X2312769Y11592700D01*
X1931272Y11592700D01*
X1931272Y12377059D01*
X2312769Y12377059D01*
X4596031Y12377059D01*
X4977528Y12377059D01*
X4977528Y10787741D01*
G37*
D13*
%TO.C,R1*%
X7732500Y11827742D02*
X7732500Y12302258D01*
X8777500Y11827742D02*
X8777500Y12302258D01*
%TO.C,R4*%
X9320000Y4682258D02*
X9320000Y4207742D01*
X10365000Y4682258D02*
X10365000Y4207742D01*
D10*
%TO.C,kibuzzard-69B46D81*%
G36*
X3632519Y14306234D02*
G01*
X3692891Y14262028D01*
X3734093Y14196649D01*
X3747827Y14118394D01*
X3734236Y14039567D01*
X3693464Y13974761D01*
X3632949Y13931413D01*
X3560130Y13916964D01*
X3489601Y13931842D01*
X3429086Y13976477D01*
X3387455Y14041713D01*
X3373578Y14118394D01*
X3387312Y14196649D01*
X3428514Y14262028D01*
X3489172Y14306234D01*
X3561275Y14320969D01*
X3632519Y14306234D01*
G37*
G36*
X5842629Y13326024D02*
G01*
X5461132Y13326024D01*
X5110917Y13326024D01*
X4357841Y13326024D01*
X3565853Y13326024D01*
X2733807Y13326024D01*
X2336668Y13326024D01*
X1955171Y13326024D01*
X1955171Y14454303D01*
X2348113Y14454303D01*
X2359558Y14374761D01*
X2630803Y13778480D01*
X2669715Y13735562D01*
X2733807Y13721256D01*
X2792748Y13736706D01*
X2832233Y13778480D01*
X2984776Y14113816D01*
X3164136Y14113816D01*
X3171504Y14032772D01*
X3193607Y13957879D01*
X3230445Y13889138D01*
X3282019Y13826549D01*
X3343964Y13774474D01*
X3411919Y13737278D01*
X3485881Y13714961D01*
X3565853Y13707522D01*
X3643642Y13715068D01*
X3715638Y13737708D01*
X3781840Y13775440D01*
X3842248Y13828266D01*
X3892570Y13891678D01*
X3928514Y13961170D01*
X3950080Y14036742D01*
X3957269Y14118394D01*
X3949973Y14201477D01*
X3928085Y14277908D01*
X3891604Y14347686D01*
X3840531Y14410812D01*
X3833130Y14417107D01*
X4005338Y14417107D01*
X4005338Y14096649D01*
X4011060Y14027407D01*
X4028228Y13959310D01*
X4056125Y13894360D01*
X4094036Y13834560D01*
X4143392Y13782915D01*
X4205624Y13742429D01*
X4278013Y13716248D01*
X4357841Y13707522D01*
X4437813Y13716105D01*
X4510631Y13741856D01*
X4573435Y13781771D01*
X4623364Y13832843D01*
X4661847Y13892214D01*
X4690316Y13957021D01*
X4707913Y14025118D01*
X4713778Y14094360D01*
X4713778Y14415962D01*
X4712932Y14435419D01*
X4762992Y14435419D01*
X4769859Y14383916D01*
X4791604Y14357021D01*
X4817355Y14347865D01*
X4849973Y14346148D01*
X5009057Y14346148D01*
X5009057Y13823115D01*
X5010774Y13784775D01*
X5021075Y13753874D01*
X5051976Y13728122D01*
X5110917Y13720111D01*
X5170431Y13728122D01*
X5202477Y13753301D01*
X5213349Y13783630D01*
X5215066Y13821971D01*
X5215066Y14346148D01*
X5373006Y14346148D01*
X5405624Y14347865D01*
X5431947Y14357021D01*
X5454265Y14383916D01*
X5461132Y14434274D01*
X5454265Y14484632D01*
X5432519Y14511527D01*
X5406768Y14520683D01*
X5374150Y14522400D01*
X4851117Y14522400D01*
X4818499Y14520683D01*
X4792176Y14511527D01*
X4769859Y14485204D01*
X4762992Y14435419D01*
X4712932Y14435419D01*
X4712062Y14455447D01*
X4701189Y14487493D01*
X4669143Y14514389D01*
X4609630Y14522400D01*
X4550116Y14514389D01*
X4518070Y14489782D01*
X4506625Y14460025D01*
X4504336Y14422829D01*
X4504336Y14097793D01*
X4494608Y14024546D01*
X4465424Y13967321D01*
X4419930Y13930411D01*
X4361275Y13918108D01*
X4312348Y13925690D01*
X4273149Y13948437D01*
X4227369Y14015962D01*
X4215924Y14096649D01*
X4215924Y14415962D01*
X4213635Y14456592D01*
X4202190Y14488637D01*
X4170717Y14514389D01*
X4110631Y14522400D01*
X4049973Y14514389D01*
X4017927Y14488065D01*
X4007055Y14456592D01*
X4005338Y14417107D01*
X3833130Y14417107D01*
X3779014Y14463137D01*
X3711203Y14500512D01*
X3637097Y14522936D01*
X3556697Y14530411D01*
X3477941Y14522829D01*
X3405338Y14500082D01*
X3338886Y14462171D01*
X3278585Y14409095D01*
X3228514Y14345147D01*
X3192748Y14274617D01*
X3171289Y14197507D01*
X3164136Y14113816D01*
X2984776Y14113816D01*
X3103478Y14374761D01*
X3116640Y14453730D01*
X3050831Y14508666D01*
X2966139Y14525261D01*
X2912348Y14460597D01*
X2731518Y14015390D01*
X2550688Y14460597D01*
X2498042Y14525833D01*
X2412205Y14508666D01*
X2348113Y14454303D01*
X1955171Y14454303D01*
X1955171Y14918776D01*
X2336668Y14918776D01*
X5461132Y14918776D01*
X5842629Y14918776D01*
X5842629Y13326024D01*
G37*
D13*
%TO.C,C1*%
X6157500Y7796920D02*
X6157500Y8078080D01*
X7177500Y7796920D02*
X7177500Y8078080D01*
D10*
%TO.C,kibuzzard-69B46E2A*%
G36*
X4654175Y9832663D02*
G01*
X4731260Y9821229D01*
X4806852Y9802294D01*
X4880225Y9776041D01*
X4950671Y9742722D01*
X5017512Y9702659D01*
X5080104Y9656237D01*
X5137845Y9603904D01*
X5190178Y9546163D01*
X5236600Y9483571D01*
X5276663Y9416730D01*
X5309982Y9346284D01*
X5336235Y9272911D01*
X5355170Y9197319D01*
X5366604Y9120234D01*
X5370428Y9042400D01*
X5366604Y8964566D01*
X5355170Y8887481D01*
X5336235Y8811889D01*
X5309982Y8738516D01*
X5276663Y8668070D01*
X5236600Y8601229D01*
X5190178Y8538637D01*
X5137845Y8480896D01*
X5080104Y8428563D01*
X5017512Y8382141D01*
X4950671Y8342078D01*
X4880225Y8308759D01*
X4806852Y8282506D01*
X4731260Y8263571D01*
X4654175Y8252137D01*
X4576341Y8248313D01*
X4290218Y8248313D01*
X3817543Y8248313D01*
X3364324Y8248313D01*
X2623837Y8248313D01*
X2326270Y8248313D01*
X1944772Y8248313D01*
X1944772Y8828952D01*
X2330847Y8828952D01*
X2359460Y8754560D01*
X2366327Y8746549D01*
X2378916Y8730526D01*
X2398945Y8710497D01*
X2426413Y8688180D01*
X2461892Y8666434D01*
X2505955Y8647550D01*
X2559746Y8634961D01*
X2623837Y8629811D01*
X2699946Y8638394D01*
X2778344Y8667579D01*
X2848730Y8718509D01*
X2898516Y8795762D01*
X2913108Y8845261D01*
X2917972Y8899911D01*
X2907242Y8985462D01*
X2875647Y9046406D01*
X2950018Y9046406D01*
X2957314Y8963144D01*
X2979202Y8887321D01*
X3012249Y8821656D01*
X3053022Y8768866D01*
X3100662Y8725948D01*
X3154310Y8689896D01*
X3210104Y8661999D01*
X3264181Y8643544D01*
X3315826Y8633244D01*
X3364324Y8629811D01*
X3438334Y8636932D01*
X3509293Y8658296D01*
X3577199Y8693902D01*
X3624124Y8728809D01*
X3640146Y8770583D01*
X3614968Y8836964D01*
X3573766Y8885891D01*
X3534853Y8902200D01*
X3477629Y8879310D01*
X3420118Y8850984D01*
X3359746Y8841542D01*
X3272765Y8859854D01*
X3231420Y8885462D01*
X3194367Y8925662D01*
X3168187Y8978165D01*
X3159460Y9040683D01*
X3164324Y9089324D01*
X3178916Y9132243D01*
X3229846Y9194617D01*
X3294510Y9228380D01*
X3359746Y9239825D01*
X3387214Y9238680D01*
X3410104Y9234675D01*
X3428415Y9230097D01*
X3443866Y9224374D01*
X3454739Y9218080D01*
X3464467Y9211785D01*
X3471906Y9206635D01*
X3533709Y9180311D01*
X3573194Y9195762D01*
X3616112Y9242114D01*
X3641291Y9306205D01*
X3631143Y9338251D01*
X3713394Y9338251D01*
X3713394Y8746549D01*
X3715111Y8707064D01*
X3725983Y8675590D01*
X3758029Y8649267D01*
X3817543Y8641256D01*
X4200948Y8641256D01*
X4233566Y8642972D01*
X4261033Y8652700D01*
X4283351Y8680168D01*
X4290218Y8730526D01*
X4283351Y8782028D01*
X4261033Y8808924D01*
X4234710Y8818080D01*
X4202092Y8819796D01*
X3922836Y8819796D01*
X3922836Y9337107D01*
X3921119Y9376592D01*
X3910247Y9408065D01*
X3878201Y9434389D01*
X3818687Y9442400D01*
X3758029Y9434389D01*
X3725983Y9408065D01*
X3715111Y9376592D01*
X3713394Y9338251D01*
X3631143Y9338251D01*
X3630418Y9340540D01*
X3609245Y9364575D01*
X3578344Y9386320D01*
X3506114Y9421926D01*
X3435918Y9443290D01*
X3367757Y9450411D01*
X3317257Y9446978D01*
X3264181Y9436678D01*
X3209245Y9418509D01*
X3153165Y9391470D01*
X3099517Y9356563D01*
X3051878Y9314789D01*
X3011248Y9263430D01*
X2978630Y9199768D01*
X2957171Y9126520D01*
X2950018Y9046406D01*
X2875647Y9046406D01*
X2875054Y9047550D01*
X2824839Y9091041D01*
X2760032Y9120798D01*
X2686785Y9138537D01*
X2616971Y9152843D01*
X2571763Y9172872D01*
X2551734Y9210068D01*
X2570046Y9244975D01*
X2612393Y9259281D01*
X2650161Y9255276D01*
X2672478Y9246692D01*
X2688501Y9233530D01*
X2701663Y9222658D01*
X2778344Y9201484D01*
X2845869Y9256992D01*
X2873337Y9327379D01*
X2832135Y9386320D01*
X2772749Y9424470D01*
X2699883Y9447359D01*
X2613537Y9454989D01*
X2540162Y9447296D01*
X2475689Y9424215D01*
X2420118Y9385748D01*
X2377517Y9335581D01*
X2351957Y9277402D01*
X2343437Y9211213D01*
X2352593Y9136821D01*
X2380061Y9075018D01*
X2425840Y9025805D01*
X2489932Y8989181D01*
X2533280Y8973587D01*
X2587786Y8958852D01*
X2677629Y8931957D01*
X2707385Y8896477D01*
X2686785Y8843258D01*
X2619260Y8826663D01*
X2574052Y8837536D01*
X2527700Y8879310D01*
X2476071Y8921020D01*
X2426476Y8928650D01*
X2378916Y8902200D01*
X2330847Y8828952D01*
X1944772Y8828952D01*
X1944772Y9836487D01*
X2326270Y9836487D01*
X4290218Y9836487D01*
X4576341Y9836487D01*
X4654175Y9832663D01*
G37*
%TO.C,kibuzzard-69B46DE0*%
G36*
X4832308Y3165452D02*
G01*
X4450810Y3165452D01*
X4141797Y3165452D01*
X3405889Y3165452D01*
X2661969Y3165452D01*
X2356390Y3165452D01*
X1974892Y3165452D01*
X1974892Y3803316D01*
X2356390Y3803316D01*
X2366563Y3738143D01*
X2397083Y3678439D01*
X2447949Y3624203D01*
X2512422Y3581284D01*
X2583762Y3555533D01*
X2661969Y3546949D01*
X2746089Y3555533D01*
X2819909Y3581284D01*
X2883428Y3624203D01*
X2932069Y3680219D01*
X2961254Y3745264D01*
X2970982Y3819338D01*
X2963257Y3874274D01*
X2940081Y3920054D01*
X2875989Y3981856D01*
X2935217Y4038795D01*
X2954959Y4122629D01*
X2946121Y4184050D01*
X2919607Y4241656D01*
X2875887Y4294875D01*
X3020195Y4294875D01*
X3031640Y4215333D01*
X3302885Y3619052D01*
X3341797Y3576134D01*
X3405889Y3561828D01*
X3464830Y3577278D01*
X3504315Y3619052D01*
X3588136Y3803316D01*
X3836218Y3803316D01*
X3846391Y3738143D01*
X3876911Y3678439D01*
X3927777Y3624203D01*
X3992250Y3581284D01*
X4063590Y3555533D01*
X4141797Y3546949D01*
X4225918Y3555533D01*
X4299737Y3581284D01*
X4363257Y3624203D01*
X4411898Y3680219D01*
X4441082Y3745264D01*
X4450810Y3819338D01*
X4443085Y3874274D01*
X4419909Y3920054D01*
X4355817Y3981856D01*
X4415045Y4038795D01*
X4434787Y4122629D01*
X4425949Y4184050D01*
X4399435Y4241656D01*
X4355245Y4295447D01*
X4296177Y4338684D01*
X4225027Y4364625D01*
X4141797Y4373273D01*
X4078278Y4368122D01*
X4025631Y4354389D01*
X3983285Y4334360D01*
X3949523Y4310898D01*
X3924344Y4286291D01*
X3906032Y4263401D01*
X3894587Y4244517D01*
X3888292Y4231928D01*
X3886576Y4227922D01*
X3869981Y4148952D01*
X3926633Y4086005D01*
X3987927Y4065531D01*
X4035995Y4078884D01*
X4070839Y4126062D01*
X4104029Y4160397D01*
X4153242Y4171842D01*
X4205317Y4157536D01*
X4224201Y4118051D01*
X4207606Y4088866D01*
X4154387Y4081427D01*
X4146375Y4081427D01*
X4109752Y4079710D01*
X4080567Y4069982D01*
X4056533Y4040225D01*
X4049094Y3983001D01*
X4055961Y3932643D01*
X4069694Y3902886D01*
X4095445Y3888580D01*
X4121769Y3883430D01*
X4153242Y3883430D01*
X4219337Y3866835D01*
X4241368Y3817049D01*
X4214473Y3769553D01*
X4142942Y3751813D01*
X4102312Y3758108D01*
X4074845Y3771842D01*
X4057677Y3789009D01*
X4049094Y3802743D01*
X4046805Y3809038D01*
X4013614Y3862829D01*
X3950667Y3875419D01*
X3864830Y3857393D01*
X3836218Y3803316D01*
X3588136Y3803316D01*
X3775560Y4215333D01*
X3788722Y4294303D01*
X3722913Y4349238D01*
X3638221Y4365833D01*
X3584430Y4301170D01*
X3403600Y3855962D01*
X3222770Y4301170D01*
X3170124Y4366406D01*
X3084287Y4349238D01*
X3020195Y4294875D01*
X2875887Y4294875D01*
X2875417Y4295447D01*
X2816348Y4338684D01*
X2745199Y4364625D01*
X2661969Y4373273D01*
X2598450Y4368122D01*
X2545803Y4354389D01*
X2503457Y4334360D01*
X2469694Y4310898D01*
X2444516Y4286291D01*
X2426204Y4263401D01*
X2414759Y4244517D01*
X2408464Y4231928D01*
X2406747Y4227922D01*
X2390152Y4148952D01*
X2446805Y4086005D01*
X2508098Y4065531D01*
X2556167Y4078884D01*
X2591011Y4126062D01*
X2624201Y4160397D01*
X2673414Y4171842D01*
X2725488Y4157536D01*
X2744373Y4118051D01*
X2727777Y4088866D01*
X2674559Y4081427D01*
X2666547Y4081427D01*
X2629923Y4079710D01*
X2600739Y4069982D01*
X2576704Y4040225D01*
X2569265Y3983001D01*
X2576132Y3932643D01*
X2589866Y3902886D01*
X2615617Y3888580D01*
X2641940Y3883430D01*
X2673414Y3883430D01*
X2739508Y3866835D01*
X2761540Y3817049D01*
X2734644Y3769553D01*
X2663114Y3751813D01*
X2622484Y3758108D01*
X2595016Y3771842D01*
X2577849Y3789009D01*
X2569265Y3802743D01*
X2566976Y3809038D01*
X2533786Y3862829D01*
X2470839Y3875419D01*
X2385002Y3857393D01*
X2356390Y3803316D01*
X1974892Y3803316D01*
X1974892Y4759348D01*
X2356390Y4759348D01*
X4450810Y4759348D01*
X4832308Y4759348D01*
X4832308Y3165452D01*
G37*
D13*
%TO.C,R5*%
X7732500Y4682258D02*
X7732500Y4207742D01*
X8777500Y4682258D02*
X8777500Y4207742D01*
D10*
%TO.C,kibuzzard-69B46E1A*%
G36*
X13612443Y8005454D02*
G01*
X14057364Y7895297D01*
X14151785Y7841649D01*
X14150354Y7733637D01*
X14108866Y7650662D01*
X14045919Y7630633D01*
X13681112Y7719331D01*
X13681112Y7531921D01*
X14031613Y7531921D01*
X14078823Y7529775D01*
X14116019Y7516184D01*
X14146778Y7475411D01*
X14156077Y7398873D01*
X14146062Y7324481D01*
X14113158Y7285139D01*
X14073101Y7271549D01*
X14024460Y7268687D01*
X13284832Y7268687D01*
X13235476Y7271549D01*
X13196134Y7285855D01*
X13164660Y7325912D01*
X13154646Y7401735D01*
X13164660Y7476127D01*
X13197564Y7516184D01*
X13236906Y7529775D01*
X13286263Y7531921D01*
X13435046Y7531921D01*
X13435046Y7879560D01*
X13445061Y7953952D01*
X13477965Y7994009D01*
X13517307Y8007600D01*
X13566663Y8009746D01*
X13612443Y8005454D01*
G37*
G36*
X14096706Y7211463D02*
G01*
X14136048Y7181420D01*
X14150354Y7144224D01*
X14153215Y7098444D01*
X14153215Y6619188D01*
X14143201Y6544796D01*
X14110297Y6504739D01*
X14070955Y6491148D01*
X14021599Y6489002D01*
X13938265Y6502057D01*
X13839911Y6541220D01*
X13738158Y6595762D01*
X13644632Y6654954D01*
X13550747Y6714145D01*
X13447922Y6768687D01*
X13348494Y6807851D01*
X13264803Y6820905D01*
X13219739Y6823766D01*
X13186119Y6838788D01*
X13161084Y6878845D01*
X13153215Y6952521D01*
X13160368Y7027629D01*
X13186119Y7066971D01*
X13220454Y7081277D01*
X13267665Y7084138D01*
X13371205Y7074124D01*
X13478680Y7044081D01*
X13579002Y7002057D01*
X13661084Y6956098D01*
X13732972Y6908172D01*
X13802715Y6860247D01*
X13891413Y6805168D01*
X13891413Y7091291D01*
X13894274Y7139932D01*
X13908580Y7179274D01*
X13948637Y7211463D01*
X14023029Y7221477D01*
X14096706Y7211463D01*
G37*
G36*
X14072386Y8815898D02*
G01*
X14111727Y8802307D01*
X14144632Y8762250D01*
X14154646Y8686427D01*
X14154646Y8401735D01*
X14148923Y8343437D01*
X14131756Y8282994D01*
X14103859Y8222908D01*
X14065948Y8165683D01*
X14015340Y8114717D01*
X13949353Y8073408D01*
X13871921Y8046048D01*
X13786978Y8036928D01*
X13702393Y8045869D01*
X13626034Y8072693D01*
X13561119Y8113644D01*
X13510869Y8164968D01*
X13472958Y8222908D01*
X13445061Y8283709D01*
X13427893Y8344689D01*
X13422311Y8401735D01*
X13683974Y8401735D01*
X13709725Y8330919D01*
X13788408Y8297300D01*
X13862800Y8328058D01*
X13892843Y8403165D01*
X13892843Y8556241D01*
X13683974Y8556241D01*
X13683974Y8401735D01*
X13422311Y8401735D01*
X13422171Y8403165D01*
X13422171Y8556241D01*
X13284832Y8556241D01*
X13235476Y8558387D01*
X13196849Y8571978D01*
X13164660Y8612035D01*
X13154646Y8687858D01*
X13164660Y8762250D01*
X13197564Y8802307D01*
X13236906Y8815898D01*
X13286263Y8818044D01*
X14024460Y8818044D01*
X14072386Y8815898D01*
G37*
G36*
X14072386Y10885998D02*
G01*
X14111012Y10872407D01*
X14143201Y10832350D01*
X14153215Y10756527D01*
X14151069Y10718616D01*
X14147493Y10692865D01*
X14141055Y10674267D01*
X14133902Y10662107D01*
X14123172Y10651377D01*
X14113158Y10642078D01*
X13738337Y10350232D01*
X14111727Y10059818D01*
X14144632Y10016899D01*
X14153215Y9941077D01*
X14143201Y9866685D01*
X14111012Y9827343D01*
X14071670Y9813752D01*
X14021599Y9810891D01*
X13283401Y9810891D01*
X13234760Y9813752D01*
X13196134Y9828058D01*
X13164660Y9867400D01*
X13154646Y9942507D01*
X13164660Y10016899D01*
X13197564Y10056956D01*
X13236906Y10070547D01*
X13286263Y10072693D01*
X13692557Y10072693D01*
X13465089Y10240075D01*
X13453644Y10248659D01*
X13437908Y10262250D01*
X13423602Y10280848D01*
X13410726Y10310891D01*
X13406434Y10350232D01*
X13421098Y10414610D01*
X13465089Y10461820D01*
X13691127Y10627772D01*
X13283401Y10627772D01*
X13235476Y10629918D01*
X13196849Y10643509D01*
X13164660Y10683566D01*
X13154646Y10759388D01*
X13164660Y10833065D01*
X13196849Y10871692D01*
X13236191Y10885283D01*
X13286263Y10888144D01*
X14024460Y10888144D01*
X14072386Y10885998D01*
G37*
G36*
X13419310Y5612035D02*
G01*
X13467951Y5523337D01*
X13420740Y5426055D01*
X13397851Y5343079D01*
X13419310Y5274410D01*
X13479396Y5250089D01*
X13538766Y5275840D01*
X13562371Y5338788D01*
X13542343Y5394582D01*
X13508008Y5474696D01*
X13536620Y5567686D01*
X13579539Y5631348D01*
X13621026Y5649231D01*
X14027321Y5596298D01*
X14067378Y5589145D01*
X14106720Y5572693D01*
X14144632Y5532636D01*
X14157507Y5464682D01*
X14156077Y5137071D01*
X14153215Y5087715D01*
X14139624Y5049088D01*
X14099567Y5016899D01*
X14021599Y5006885D01*
X13950068Y5016184D01*
X13912157Y5046942D01*
X13899281Y5084138D01*
X13897135Y5129918D01*
X13897135Y5350232D01*
X13821313Y5360247D01*
X13824174Y5335926D01*
X13824174Y5328773D01*
X13812967Y5241824D01*
X13779348Y5162186D01*
X13723315Y5089861D01*
X13652500Y5032636D01*
X13574531Y4998301D01*
X13489410Y4986856D01*
X13394592Y4997983D01*
X13310424Y5031364D01*
X13236906Y5086999D01*
X13180079Y5159007D01*
X13145983Y5241506D01*
X13134617Y5334496D01*
X13140876Y5411749D01*
X13159653Y5483280D01*
X13209009Y5580562D01*
X13234760Y5610604D01*
X13322028Y5664968D01*
X13419310Y5612035D01*
G37*
G36*
X13889823Y6450376D02*
G01*
X13975183Y6416041D01*
X14054503Y6358816D01*
X14118086Y6283153D01*
X14156235Y6193501D01*
X14168952Y6089861D01*
X14156712Y5991148D01*
X14119993Y5902927D01*
X14058795Y5825197D01*
X13980111Y5764793D01*
X13890936Y5728551D01*
X13791270Y5716470D01*
X13719024Y5723444D01*
X13651069Y5744367D01*
X13590268Y5776735D01*
X13539481Y5818044D01*
X13464374Y5905311D01*
X13413587Y5991148D01*
X13413587Y5812321D01*
X13410726Y5762965D01*
X13396420Y5724338D01*
X13356363Y5692149D01*
X13280540Y5682135D01*
X13206863Y5692149D01*
X13167521Y5725054D01*
X13153215Y5765826D01*
X13150354Y5815182D01*
X13150354Y6331634D01*
X13189696Y6423194D01*
X13283401Y6461820D01*
X13356005Y6448945D01*
X13422171Y6410318D01*
X13473137Y6360604D01*
X13525891Y6291577D01*
X13575068Y6216112D01*
X13615304Y6147085D01*
X13655361Y6085032D01*
X13704002Y6030490D01*
X13757650Y5992400D01*
X13812729Y5979703D01*
X13850640Y5984710D01*
X13887836Y6016184D01*
X13907149Y6088430D01*
X13877464Y6172121D01*
X13788408Y6200018D01*
X13742629Y6202164D01*
X13706148Y6215755D01*
X13676105Y6255812D01*
X13666806Y6331634D01*
X13676820Y6406026D01*
X13709725Y6446084D01*
X13749067Y6459675D01*
X13798423Y6461820D01*
X13889823Y6450376D01*
G37*
G36*
X13759796Y9741863D02*
G01*
X13851356Y9715039D01*
X13930933Y9674267D01*
X13995132Y9623480D01*
X14047350Y9563931D01*
X14090984Y9496871D01*
X14124782Y9426770D01*
X14147493Y9358101D01*
X14160368Y9291756D01*
X14164660Y9228630D01*
X14155759Y9143429D01*
X14129054Y9055685D01*
X14084546Y8965397D01*
X14057364Y8926770D01*
X14027321Y8900304D01*
X13984403Y8886713D01*
X13904288Y8918187D01*
X13846348Y8971835D01*
X13827035Y9021191D01*
X13859939Y9098444D01*
X13866377Y9107743D01*
X13874245Y9119903D01*
X13882114Y9133494D01*
X13889267Y9152808D01*
X13894989Y9175697D01*
X13899996Y9204310D01*
X13901427Y9238644D01*
X13887121Y9320190D01*
X13844918Y9401019D01*
X13766949Y9464682D01*
X13713301Y9482922D01*
X13652500Y9489002D01*
X13574353Y9478094D01*
X13508723Y9445368D01*
X13458473Y9399052D01*
X13426463Y9347371D01*
X13403573Y9238644D01*
X13415376Y9163180D01*
X13450783Y9091291D01*
X13479396Y9019760D01*
X13459009Y8971119D01*
X13397851Y8919617D01*
X13314875Y8888144D01*
X13262657Y8908172D01*
X13219024Y8966828D01*
X13174516Y9051711D01*
X13147811Y9140409D01*
X13138909Y9232922D01*
X13143201Y9293544D01*
X13156077Y9358101D01*
X13179145Y9425697D01*
X13214016Y9495440D01*
X13259081Y9562500D01*
X13312729Y9622049D01*
X13378716Y9673015D01*
X13460798Y9714324D01*
X13555576Y9741685D01*
X13659653Y9750805D01*
X13759796Y9741863D01*
G37*
%TD*%
M02*
