M48
; DRILL file {KiCad 9.0.7} date 2026-04-02T09:03:20-0600
; FORMAT={-:-/ absolute / metric / decimal}
; #@! TF.CreationDate,2026-04-02T09:03:20-06:00
; #@! TF.GenerationSoftware,Kicad,Pcbnew,9.0.7
; #@! TF.FileFunction,MixedPlating,1,2
FMAT,2
METRIC
; #@! TA.AperFunction,Plated,PTH,ViaDrill
T1C0.300
; #@! TA.AperFunction,Plated,PTH,ComponentDrill
T2C1.016
; #@! TA.AperFunction,NonPlated,NPTH,ComponentDrill
T3C3.100
%
G90
G05
T1
X3.264Y12.859
X3.683Y14.986
X3.899Y12.224
X4.534Y14.446
X4.534Y11.589
X5.08Y8.731
X5.169Y13.811
X5.169Y10.954
X5.804Y13.176
X5.804Y7.144
X6.032Y0.794
X6.731Y3.937
X6.826Y13.018
X7.493Y6.223
X9.525Y13.176
X9.525Y11.399
X9.554Y2.638
X9.779Y8.509
X10.795Y0.794
X14.694Y6.509
X14.694Y5.239
T2
X1.359Y14.129
X1.359Y11.589
X1.359Y9.049
X1.359Y6.509
X1.359Y3.969
X1.359Y1.429
T3
X13.424Y13.494
X13.424Y2.064
M30
