%TF.GenerationSoftware,KiCad,Pcbnew,9.0.7*%
%TF.CreationDate,2026-04-02T09:03:20-06:00*%
%TF.ProjectId,MCP4725_Breakout,4d435034-3732-4355-9f42-7265616b6f75,v20*%
%TF.SameCoordinates,Original*%
%TF.FileFunction,Copper,L1,Top*%
%TF.FilePolarity,Positive*%
%FSLAX46Y46*%
G04 Gerber Fmt 4.6, Leading zero omitted, Abs format (unit mm)*
G04 Created by KiCad (PCBNEW 9.0.7) date 2026-04-02 09:03:20*
%MOMM*%
%LPD*%
G01*
G04 APERTURE LIST*
G04 Aperture macros list*
%AMRoundRect*
0 Rectangle with rounded corners*
0 $1 Rounding radius*
0 $2 $3 $4 $5 $6 $7 $8 $9 X,Y pos of 4 corners*
0 Add a 4 corners polygon primitive as box body*
4,1,4,$2,$3,$4,$5,$6,$7,$8,$9,$2,$3,0*
0 Add four circle primitives for the rounded corners*
1,1,$1+$1,$2,$3*
1,1,$1+$1,$4,$5*
1,1,$1+$1,$6,$7*
1,1,$1+$1,$8,$9*
0 Add four rect primitives between the rounded corners*
20,1,$1+$1,$2,$3,$4,$5,0*
20,1,$1+$1,$4,$5,$6,$7,0*
20,1,$1+$1,$6,$7,$8,$9,0*
20,1,$1+$1,$8,$9,$2,$3,0*%
G04 Aperture macros list end*
%TA.AperFunction,ComponentPad*%
%ADD10C,1.879600*%
%TD*%
%TA.AperFunction,SMDPad,CuDef*%
%ADD11C,0.500000*%
%TD*%
%TA.AperFunction,SMDPad,CuDef*%
%ADD12R,1.200000X0.550000*%
%TD*%
%TA.AperFunction,SMDPad,CuDef*%
%ADD13RoundRect,0.200000X0.275000X-0.200000X0.275000X0.200000X-0.275000X0.200000X-0.275000X-0.200000X0*%
%TD*%
%TA.AperFunction,SMDPad,CuDef*%
%ADD14RoundRect,0.200000X-0.275000X0.200000X-0.275000X-0.200000X0.275000X-0.200000X0.275000X0.200000X0*%
%TD*%
%TA.AperFunction,SMDPad,CuDef*%
%ADD15RoundRect,0.225000X0.250000X-0.225000X0.250000X0.225000X-0.250000X0.225000X-0.250000X-0.225000X0*%
%TD*%
%TA.AperFunction,ViaPad*%
%ADD16C,0.600000*%
%TD*%
%TA.AperFunction,Conductor*%
%ADD17C,0.177800*%
%TD*%
%TA.AperFunction,Conductor*%
%ADD18C,0.200000*%
%TD*%
%TA.AperFunction,Conductor*%
%ADD19C,0.254000*%
%TD*%
G04 APERTURE END LIST*
D10*
%TO.P,J2,1,Pin_1*%
%TO.N,GND*%
X1358900Y1428750D03*
%TO.P,J2,2,Pin_2*%
%TO.N,3.3V*%
X1358900Y3968750D03*
%TO.P,J2,3,Pin_3*%
%TO.N,SDA*%
X1358900Y6508750D03*
%TO.P,J2,4,Pin_4*%
%TO.N,SCL*%
X1358900Y9048750D03*
%TD*%
D11*
%TO.P,FID3,*%
%TO.N,*%
X5715000Y1587500D03*
%TD*%
D12*
%TO.P,U2,1,VOUT*%
%TO.N,VOUT*%
X8542400Y8887500D03*
%TO.P,U2,2,VSS*%
%TO.N,GND*%
X8542400Y7937500D03*
%TO.P,U2,3,VDD*%
%TO.N,3.3V*%
X8542400Y6987500D03*
%TO.P,U2,4,SDA*%
%TO.N,SDA*%
X11142600Y6987500D03*
%TO.P,U2,5,SCL*%
%TO.N,SCL*%
X11142500Y7937500D03*
%TO.P,U2,6,AO*%
%TO.N,ADDR*%
X11142600Y8887500D03*
%TD*%
D10*
%TO.P,J1,1,Pin_1*%
%TO.N,VOUT*%
X1358900Y14128750D03*
%TO.P,J1,2,Pin_2*%
%TO.N,GND*%
X1358900Y11588750D03*
%TD*%
D13*
%TO.P,R1,1*%
%TO.N,ADDR*%
X8255000Y11240000D03*
%TO.P,R1,2*%
%TO.N,3.3V*%
X8255000Y12890000D03*
%TD*%
D11*
%TO.P,FID2,*%
%TO.N,*%
X11112500Y14287500D03*
%TD*%
D14*
%TO.P,R4,1*%
%TO.N,SDA*%
X9842500Y5270000D03*
%TO.P,R4,2*%
%TO.N,Net-(JP1-C)*%
X9842500Y3620000D03*
%TD*%
D15*
%TO.P,C1,1*%
%TO.N,3.3V*%
X6667500Y7162500D03*
%TO.P,C1,2*%
%TO.N,GND*%
X6667500Y8712500D03*
%TD*%
D14*
%TO.P,R5,1*%
%TO.N,SCL*%
X8255000Y5270000D03*
%TO.P,R5,2*%
%TO.N,Net-(JP1-A)*%
X8255000Y3620000D03*
%TD*%
D16*
%TO.N,GND*%
X14693900Y5238750D03*
X4533900Y14446250D03*
X3683000Y14986000D03*
X5168900Y10953750D03*
X5080000Y8731250D03*
X3898900Y12223750D03*
X5168900Y13811250D03*
X14693900Y6508750D03*
X9779000Y8509000D03*
X10795000Y793750D03*
X7493000Y6223000D03*
X9525000Y13176250D03*
X4533900Y11588750D03*
X3263900Y12858750D03*
X5803900Y13176250D03*
X6032500Y793750D03*
%TO.N,3.3V*%
X6826250Y13017500D03*
X5803900Y7143750D03*
%TO.N,Net-(JP1-C)*%
X9553575Y2638425D03*
%TO.N,Net-(JP1-A)*%
X6731000Y3937000D03*
%TO.N,ADDR*%
X9525000Y11398750D03*
%TD*%
D17*
%TO.N,GND*%
X6667500Y8699500D02*
X7429500Y7937500D01*
X6667500Y8712500D02*
X6667500Y8699500D01*
X7429500Y7937500D02*
X7690150Y7937500D01*
X8542400Y7937500D02*
X7690150Y7937500D01*
D18*
%TO.N,3.3V*%
X5803900Y7143750D02*
X6578900Y7143750D01*
X6826250Y13017500D02*
X7081250Y13017500D01*
X7112500Y13048750D02*
X8255000Y13048750D01*
X7081250Y13017500D02*
X7112500Y13048750D01*
X6578900Y7143750D02*
X6756400Y7321250D01*
X8631300Y7146250D02*
X6931400Y7146250D01*
X6931400Y7146250D02*
X6756400Y7321250D01*
D17*
%TO.N,SCL*%
X10350500Y7937500D02*
X10160000Y7747000D01*
X11142500Y7937500D02*
X10350500Y7937500D01*
X5137650Y5428750D02*
X1358900Y9207500D01*
X10160000Y7747000D02*
X10160000Y7112000D01*
X10160000Y7112000D02*
X8476750Y5428750D01*
X8476750Y5428750D02*
X5137650Y5428750D01*
%TO.N,SDA*%
X7061771Y4445000D02*
X6976671Y4530100D01*
X6400229Y4445000D02*
X4692650Y4445000D01*
X2470150Y6667500D02*
X1358900Y6667500D01*
X4692650Y4445000D02*
X2470150Y6667500D01*
X6976671Y4530100D02*
X6485329Y4530100D01*
X11142600Y6538850D02*
X10032500Y5428750D01*
X9842500Y5428750D02*
X8858750Y4445000D01*
X10032500Y5428750D02*
X9842500Y5428750D01*
X11142600Y7146250D02*
X11142600Y6538850D01*
X6485329Y4530100D02*
X6400229Y4445000D01*
X8858750Y4445000D02*
X7061771Y4445000D01*
%TO.N,Net-(JP1-C)*%
X9842500Y2927350D02*
X9842500Y3620000D01*
X9553575Y2638425D02*
X9842500Y2927350D01*
D18*
%TO.N,Net-(JP1-A)*%
X6889250Y3778750D02*
X6731000Y3937000D01*
X8343900Y3778750D02*
X6889250Y3778750D01*
%TO.N,ADDR*%
X11231500Y10953750D02*
X11231500Y9046250D01*
X9525000Y11398750D02*
X10786500Y11398750D01*
X10786500Y11398750D02*
X11231500Y10953750D01*
X8255000Y11398750D02*
X9525000Y11398750D01*
D19*
%TO.N,VOUT*%
X3169600Y14223050D02*
X1423350Y14223050D01*
X7876500Y8887500D02*
X7620000Y9144000D01*
D18*
X1358900Y14287500D02*
X1423350Y14223050D01*
D19*
X8542400Y8887500D02*
X7876500Y8887500D01*
X7620000Y9772650D02*
X3169600Y14223050D01*
X7620000Y9144000D02*
X7620000Y9772650D01*
D18*
X8631300Y9046250D02*
X8346400Y9046250D01*
%TD*%
%TA.AperFunction,Conductor*%
%TO.N,GND*%
G36*
X15746038Y15755307D02*
G01*
X15771758Y15710758D01*
X15772900Y15697700D01*
X15772900Y177300D01*
X15755307Y128962D01*
X15710758Y103242D01*
X15697700Y102100D01*
X1920035Y102100D01*
X1871697Y119693D01*
X1845977Y164242D01*
X1854910Y214900D01*
X1885895Y244304D01*
X2037419Y321510D01*
X2202276Y441287D01*
X2202284Y441294D01*
X2346356Y585366D01*
X2346363Y585374D01*
X2466140Y750231D01*
X2558650Y931792D01*
X2621623Y1125604D01*
X2621623Y1125605D01*
X2641540Y1251350D01*
X1837287Y1251350D01*
X1866900Y1361870D01*
X1866900Y1495630D01*
X1837287Y1606150D01*
X2641540Y1606150D01*
X2635140Y1646556D01*
X2635140Y1646557D01*
X2634057Y1653392D01*
X5214500Y1653392D01*
X5214500Y1521608D01*
X5221461Y1495630D01*
X5248608Y1394312D01*
X5314499Y1280186D01*
X5407685Y1187000D01*
X5521811Y1121109D01*
X5521813Y1121109D01*
X5521814Y1121108D01*
X5649108Y1087000D01*
X5649111Y1087000D01*
X5780889Y1087000D01*
X5780892Y1087000D01*
X5908186Y1121108D01*
X5915974Y1125604D01*
X6022314Y1187000D01*
X6115500Y1280186D01*
X6181391Y1394312D01*
X6181392Y1394314D01*
X6215500Y1521608D01*
X6215500Y1653392D01*
X6181392Y1780686D01*
X6181391Y1780687D01*
X6181391Y1780689D01*
X6115500Y1894815D01*
X6022314Y1988001D01*
X5908188Y2053892D01*
X5857268Y2067536D01*
X5780892Y2088000D01*
X5649108Y2088000D01*
X5585461Y2070946D01*
X5521811Y2053892D01*
X5407685Y1988001D01*
X5314499Y1894815D01*
X5248608Y1780689D01*
X5235535Y1731897D01*
X5214500Y1653392D01*
X2634057Y1653392D01*
X2621623Y1731896D01*
X2621623Y1731897D01*
X2558650Y1925709D01*
X2466140Y2107270D01*
X2346363Y2272127D01*
X2346356Y2272135D01*
X2202284Y2416207D01*
X2202276Y2416214D01*
X2037419Y2535991D01*
X1855855Y2628503D01*
X1779674Y2653256D01*
X1739139Y2684926D01*
X1728445Y2735242D01*
X1752595Y2780660D01*
X1779669Y2796292D01*
X1836852Y2814871D01*
X2011475Y2903845D01*
X2170028Y3019041D01*
X2308609Y3157622D01*
X2423805Y3316175D01*
X2512779Y3490798D01*
X2573341Y3677188D01*
X2604000Y3870759D01*
X2604000Y4066741D01*
X2573341Y4260312D01*
X2512779Y4446702D01*
X2423805Y4621325D01*
X2308609Y4779878D01*
X2308607Y4779880D01*
X2308600Y4779888D01*
X2170037Y4918451D01*
X2170029Y4918458D01*
X2161989Y4924300D01*
X2011475Y5033655D01*
X1836852Y5122629D01*
X1836845Y5122632D01*
X1836841Y5122633D01*
X1745205Y5152407D01*
X1699580Y5167232D01*
X1659046Y5198900D01*
X1648351Y5249216D01*
X1672500Y5294634D01*
X1699580Y5310269D01*
X1836852Y5354871D01*
X2011475Y5443845D01*
X2170028Y5559041D01*
X2308609Y5697622D01*
X2423805Y5856175D01*
X2478141Y5962818D01*
X2515759Y5997898D01*
X2567128Y6000590D01*
X2598317Y5981850D01*
X4374574Y4205593D01*
X4374595Y4205570D01*
X4450600Y4129565D01*
X4450603Y4129563D01*
X4450605Y4129561D01*
X4492314Y4105481D01*
X4513167Y4093441D01*
X4513168Y4093440D01*
X4540489Y4077666D01*
X4540490Y4077666D01*
X4540495Y4077663D01*
X4640753Y4050799D01*
X4640756Y4050799D01*
X4749151Y4050799D01*
X4749167Y4050800D01*
X6050500Y4050800D01*
X6098838Y4033207D01*
X6124558Y3988658D01*
X6125700Y3975600D01*
X6125700Y3857311D01*
X6148464Y3772355D01*
X6166950Y3703364D01*
X6166950Y3703362D01*
X6246639Y3565337D01*
X6359336Y3452640D01*
X6415278Y3420342D01*
X6497363Y3372950D01*
X6651311Y3331700D01*
X6651314Y3331700D01*
X6810686Y3331700D01*
X6810689Y3331700D01*
X6956942Y3370889D01*
X6976403Y3373450D01*
X7407027Y3373450D01*
X7455365Y3355857D01*
X7480213Y3315538D01*
X7481170Y3311488D01*
X7481170Y3311486D01*
X7531948Y3175345D01*
X7619025Y3059025D01*
X7735345Y2971948D01*
X7871486Y2921170D01*
X7931668Y2914700D01*
X7931676Y2914700D01*
X8578324Y2914700D01*
X8578332Y2914700D01*
X8638514Y2921170D01*
X8774655Y2971948D01*
X8890975Y3059025D01*
X8978052Y3175345D01*
X8978291Y3175987D01*
X8978599Y3176348D01*
X8980629Y3180065D01*
X8981406Y3179641D01*
X9011665Y3215128D01*
X9062392Y3223660D01*
X9106736Y3197590D01*
X9112487Y3189616D01*
X9116538Y3183145D01*
X9119448Y3175345D01*
X9131517Y3159222D01*
X9133177Y3156572D01*
X9137933Y3134293D01*
X9144524Y3112491D01*
X9143232Y3109476D01*
X9143918Y3106266D01*
X9133243Y3086147D01*
X9124276Y3065204D01*
X9122615Y3063491D01*
X9069214Y3010089D01*
X8989525Y2872064D01*
X8989525Y2872062D01*
X8948275Y2718114D01*
X8948275Y2558736D01*
X8986583Y2415769D01*
X8989525Y2404789D01*
X8989525Y2404787D01*
X9069214Y2266762D01*
X9181911Y2154065D01*
X9228836Y2126973D01*
X9319938Y2074375D01*
X9473886Y2033125D01*
X9473889Y2033125D01*
X9633261Y2033125D01*
X9633264Y2033125D01*
X9787212Y2074375D01*
X9925238Y2154065D01*
X9952934Y2181761D01*
X11623400Y2181761D01*
X11623400Y1945739D01*
X11654207Y1711736D01*
X11689696Y1579288D01*
X11715295Y1483755D01*
X11715295Y1483754D01*
X11805616Y1265700D01*
X11923628Y1061298D01*
X12067303Y874057D01*
X12067315Y874043D01*
X12234192Y707166D01*
X12234206Y707154D01*
X12392923Y585366D01*
X12421450Y563477D01*
X12625851Y445466D01*
X12843907Y355144D01*
X13071886Y294057D01*
X13305889Y263250D01*
X13305892Y263250D01*
X13541908Y263250D01*
X13541911Y263250D01*
X13775914Y294057D01*
X14003893Y355144D01*
X14221949Y445466D01*
X14426350Y563477D01*
X14613599Y707158D01*
X14780492Y874051D01*
X14924173Y1061300D01*
X15042184Y1265701D01*
X15132506Y1483757D01*
X15193593Y1711736D01*
X15224400Y1945739D01*
X15224400Y2181761D01*
X15193593Y2415764D01*
X15132506Y2643743D01*
X15042184Y2861799D01*
X15036257Y2872064D01*
X14924171Y3066203D01*
X14780496Y3253444D01*
X14780484Y3253458D01*
X14613607Y3420335D01*
X14613593Y3420347D01*
X14426352Y3564022D01*
X14221950Y3682034D01*
X14003896Y3772355D01*
X14003894Y3772356D01*
X14003893Y3772356D01*
X13775914Y3833443D01*
X13541911Y3864250D01*
X13305889Y3864250D01*
X13071886Y3833443D01*
X13071882Y3833442D01*
X13071881Y3833442D01*
X12927347Y3794714D01*
X12843907Y3772356D01*
X12843905Y3772356D01*
X12843904Y3772355D01*
X12843903Y3772355D01*
X12625849Y3682034D01*
X12421447Y3564022D01*
X12234206Y3420347D01*
X12234192Y3420335D01*
X12067315Y3253458D01*
X12067303Y3253444D01*
X11923628Y3066203D01*
X11805616Y2861801D01*
X11715295Y2643747D01*
X11715295Y2643746D01*
X11715294Y2643743D01*
X11692936Y2560303D01*
X11654326Y2416207D01*
X11654207Y2415764D01*
X11623400Y2181761D01*
X9952934Y2181761D01*
X10008571Y2237397D01*
X10037935Y2266762D01*
X10117625Y2404788D01*
X10158875Y2558736D01*
X10158875Y2666778D01*
X10160952Y2674532D01*
X10160017Y2679836D01*
X10168950Y2704378D01*
X10209836Y2775194D01*
X10209837Y2775195D01*
X10236701Y2875453D01*
X10236701Y2875457D01*
X10236702Y2875460D01*
X10237345Y2880342D01*
X10239299Y2880085D01*
X10254294Y2921283D01*
X10285619Y2943403D01*
X10362155Y2971948D01*
X10478475Y3059025D01*
X10565552Y3175345D01*
X10616330Y3311486D01*
X10622800Y3371668D01*
X10622800Y3868332D01*
X10616330Y3928514D01*
X10565552Y4064655D01*
X10478475Y4180975D01*
X10372504Y4260305D01*
X10362158Y4268050D01*
X10362156Y4268051D01*
X10362155Y4268052D01*
X10276793Y4299891D01*
X10226015Y4318830D01*
X10226012Y4318831D01*
X10165835Y4325300D01*
X10165832Y4325300D01*
X9519168Y4325300D01*
X9519159Y4325300D01*
X9481653Y4321268D01*
X9480886Y4321458D01*
X9480170Y4321123D01*
X9455979Y4327606D01*
X9431712Y4333595D01*
X9431246Y4334233D01*
X9430483Y4334437D01*
X9416131Y4354935D01*
X9401379Y4375139D01*
X9401432Y4375928D01*
X9400979Y4376575D01*
X9403161Y4401513D01*
X9404847Y4426462D01*
X9405417Y4427294D01*
X9405463Y4427819D01*
X9420439Y4449207D01*
X9513908Y4542675D01*
X9560529Y4564414D01*
X9567082Y4564700D01*
X10165824Y4564700D01*
X10165832Y4564700D01*
X10226014Y4571170D01*
X10362155Y4621948D01*
X10478475Y4709025D01*
X10565552Y4825345D01*
X10616330Y4961486D01*
X10622800Y5021668D01*
X10622800Y5430420D01*
X10640393Y5478758D01*
X10644815Y5483583D01*
X11378450Y6217219D01*
X11378460Y6217226D01*
X11458035Y6296801D01*
X11458039Y6296805D01*
X11486262Y6345691D01*
X11500068Y6369601D01*
X11539473Y6402666D01*
X11565193Y6407201D01*
X11788170Y6407201D01*
X11788178Y6407201D01*
X11813709Y6410162D01*
X11814577Y6410545D01*
X11835981Y6419997D01*
X11918125Y6456266D01*
X11998834Y6536975D01*
X12044938Y6641391D01*
X12047900Y6666921D01*
X12047899Y7308078D01*
X12044938Y7333609D01*
X12044937Y7333612D01*
X12044936Y7333615D01*
X12001389Y7432239D01*
X11997958Y7483564D01*
X12001389Y7492989D01*
X12011291Y7515413D01*
X12044838Y7591391D01*
X12047800Y7616921D01*
X12047799Y8258078D01*
X12044838Y8283609D01*
X12001389Y8382012D01*
X11997958Y8433337D01*
X12001389Y8442762D01*
X12004366Y8449503D01*
X12044938Y8541391D01*
X12047900Y8566921D01*
X12047899Y9208078D01*
X12044938Y9233609D01*
X12044937Y9233612D01*
X12044936Y9233615D01*
X11998835Y9338022D01*
X11998834Y9338025D01*
X11998831Y9338028D01*
X11998830Y9338030D01*
X11918129Y9418731D01*
X11918126Y9418733D01*
X11918125Y9418734D01*
X11831783Y9456858D01*
X11813707Y9464839D01*
X11794101Y9467113D01*
X11788179Y9467800D01*
X11788177Y9467800D01*
X11712000Y9467800D01*
X11663662Y9485393D01*
X11637942Y9529942D01*
X11636800Y9543000D01*
X11636800Y11007108D01*
X11617068Y11080750D01*
X11609179Y11110190D01*
X11603983Y11119189D01*
X11555821Y11202610D01*
X11555819Y11202612D01*
X11555817Y11202615D01*
X11035364Y11723068D01*
X11035358Y11723072D01*
X11033648Y11724059D01*
X11007271Y11739288D01*
X10942941Y11776429D01*
X10908579Y11785636D01*
X10839859Y11804050D01*
X10839857Y11804050D01*
X10006871Y11804050D01*
X9958533Y11821643D01*
X9953707Y11826066D01*
X9896663Y11883110D01*
X9896662Y11883111D01*
X9896661Y11883112D01*
X9758637Y11962800D01*
X9604689Y12004050D01*
X9445311Y12004050D01*
X9291363Y11962800D01*
X9291361Y11962800D01*
X9153338Y11883112D01*
X9124821Y11854594D01*
X9096302Y11826076D01*
X9081424Y11819138D01*
X9068849Y11808585D01*
X9052683Y11805735D01*
X9049684Y11804336D01*
X9043129Y11804050D01*
X8911896Y11804050D01*
X8866830Y11819050D01*
X8774658Y11888050D01*
X8774656Y11888051D01*
X8774655Y11888052D01*
X8689293Y11919891D01*
X8638515Y11938830D01*
X8638512Y11938831D01*
X8578335Y11945300D01*
X8578332Y11945300D01*
X7931668Y11945300D01*
X7931664Y11945300D01*
X7871487Y11938831D01*
X7871484Y11938830D01*
X7769928Y11900951D01*
X7735345Y11888052D01*
X7735344Y11888052D01*
X7735343Y11888051D01*
X7735341Y11888050D01*
X7619025Y11800975D01*
X7531950Y11684659D01*
X7531949Y11684657D01*
X7481170Y11548516D01*
X7481169Y11548513D01*
X7474700Y11488336D01*
X7474700Y10991665D01*
X7481169Y10931488D01*
X7481170Y10931485D01*
X7500109Y10880707D01*
X7531948Y10795345D01*
X7531949Y10795344D01*
X7531950Y10795342D01*
X7539042Y10785869D01*
X7619025Y10679025D01*
X7735345Y10591948D01*
X7871486Y10541170D01*
X7931668Y10534700D01*
X7931676Y10534700D01*
X8578324Y10534700D01*
X8578332Y10534700D01*
X8638514Y10541170D01*
X8774655Y10591948D01*
X8890975Y10679025D01*
X8978052Y10795345D01*
X9017117Y10900084D01*
X9050492Y10939224D01*
X9101220Y10947755D01*
X9140749Y10926977D01*
X9153336Y10914390D01*
X9233026Y10868382D01*
X9291363Y10834700D01*
X9445311Y10793450D01*
X9445314Y10793450D01*
X9604686Y10793450D01*
X9604689Y10793450D01*
X9758637Y10834700D01*
X9896663Y10914390D01*
X9953697Y10971425D01*
X10000316Y10993164D01*
X10006871Y10993450D01*
X10587471Y10993450D01*
X10635809Y10975857D01*
X10640645Y10971424D01*
X10804174Y10807895D01*
X10825914Y10761275D01*
X10826200Y10754721D01*
X10826200Y9543000D01*
X10808607Y9494662D01*
X10764058Y9468942D01*
X10751000Y9467800D01*
X10497029Y9467800D01*
X10471488Y9464838D01*
X10471485Y9464837D01*
X10367078Y9418736D01*
X10367070Y9418731D01*
X10286369Y9338030D01*
X10286367Y9338027D01*
X10240261Y9233608D01*
X10237300Y9208077D01*
X10237300Y8566930D01*
X10240262Y8541389D01*
X10240263Y8541386D01*
X10283710Y8442989D01*
X10284915Y8424958D01*
X10289951Y8407598D01*
X10286903Y8395216D01*
X10287141Y8391664D01*
X10283710Y8382238D01*
X10270948Y8353336D01*
X10235329Y8316224D01*
X10221622Y8311075D01*
X10198345Y8304838D01*
X10171639Y8289420D01*
X10171639Y8289419D01*
X10153285Y8278822D01*
X10108453Y8252938D01*
X10071757Y8216242D01*
X10035061Y8179545D01*
X10035059Y8179543D01*
X9917957Y8062441D01*
X9917955Y8062439D01*
X9881258Y8025742D01*
X9844561Y7989046D01*
X9844560Y7989044D01*
X9792663Y7899155D01*
X9790101Y7889593D01*
X9765799Y7798897D01*
X9765799Y7798895D01*
X9765799Y7689048D01*
X9765800Y7689035D01*
X9765800Y7306433D01*
X9748207Y7258095D01*
X9743774Y7253259D01*
X9576073Y7085558D01*
X9529453Y7063818D01*
X9479766Y7077132D01*
X9450261Y7119269D01*
X9447699Y7138732D01*
X9447699Y7308071D01*
X9447699Y7308078D01*
X9444738Y7333609D01*
X9425675Y7376781D01*
X9422245Y7428105D01*
X9433270Y7450857D01*
X9435146Y7453486D01*
X9487151Y7559863D01*
X9497199Y7628820D01*
X9497200Y7628830D01*
X9497200Y7760100D01*
X7587600Y7760100D01*
X7587600Y7626750D01*
X7580917Y7608391D01*
X7577525Y7589150D01*
X7572328Y7584790D01*
X7570007Y7578412D01*
X7553084Y7568643D01*
X7538120Y7556085D01*
X7528351Y7554363D01*
X7525458Y7552692D01*
X7512400Y7551550D01*
X7474033Y7551550D01*
X7425695Y7569143D01*
X7404076Y7599163D01*
X7384089Y7649846D01*
X7384088Y7649849D01*
X7374398Y7662627D01*
X7296004Y7766004D01*
X7186657Y7848926D01*
X7158773Y7892150D01*
X7165197Y7943188D01*
X7202925Y7978155D01*
X7203323Y7978321D01*
X7209903Y7981047D01*
X7331018Y8073982D01*
X7423953Y8195097D01*
X7442924Y8240896D01*
X7477676Y8278822D01*
X7528676Y8285537D01*
X7572060Y8257898D01*
X7587600Y8212119D01*
X7587600Y8114900D01*
X9497200Y8114900D01*
X9497200Y8246171D01*
X9497199Y8246181D01*
X9487151Y8315138D01*
X9435146Y8421517D01*
X9433267Y8424148D01*
X9432487Y8426956D01*
X9432409Y8427115D01*
X9432438Y8427130D01*
X9419497Y8473711D01*
X9425674Y8498217D01*
X9444738Y8541391D01*
X9447700Y8566921D01*
X9447699Y9208078D01*
X9444738Y9233609D01*
X9444737Y9233612D01*
X9444736Y9233615D01*
X9398635Y9338022D01*
X9398634Y9338025D01*
X9398631Y9338028D01*
X9398630Y9338030D01*
X9317929Y9418731D01*
X9317926Y9418733D01*
X9317925Y9418734D01*
X9231583Y9456858D01*
X9213507Y9464839D01*
X9193901Y9467113D01*
X9187979Y9467800D01*
X9187977Y9467800D01*
X8127500Y9467800D01*
X8079162Y9485393D01*
X8053442Y9529942D01*
X8052300Y9543000D01*
X8052300Y9829562D01*
X8022839Y9939512D01*
X7965926Y10038089D01*
X7965924Y10038091D01*
X7965922Y10038094D01*
X4906827Y13097189D01*
X6220950Y13097189D01*
X6220950Y12937811D01*
X6260957Y12788503D01*
X6262200Y12783864D01*
X6262200Y12783862D01*
X6341889Y12645837D01*
X6454586Y12533140D01*
X6527055Y12491300D01*
X6592613Y12453450D01*
X6746561Y12412200D01*
X6746564Y12412200D01*
X6905936Y12412200D01*
X6905939Y12412200D01*
X7059887Y12453450D01*
X7197913Y12533140D01*
X7286197Y12621425D01*
X7301075Y12628363D01*
X7313651Y12638915D01*
X7329816Y12641766D01*
X7332816Y12643164D01*
X7339371Y12643450D01*
X7407027Y12643450D01*
X7455365Y12625857D01*
X7480213Y12585538D01*
X7481170Y12581488D01*
X7481170Y12581486D01*
X7531948Y12445345D01*
X7619025Y12329025D01*
X7735345Y12241948D01*
X7871486Y12191170D01*
X7931668Y12184700D01*
X7931676Y12184700D01*
X8578324Y12184700D01*
X8578332Y12184700D01*
X8638514Y12191170D01*
X8774655Y12241948D01*
X8890975Y12329025D01*
X8978052Y12445345D01*
X9028830Y12581486D01*
X9035300Y12641668D01*
X9035300Y13138332D01*
X9028830Y13198514D01*
X8978052Y13334655D01*
X8890975Y13450975D01*
X8774655Y13538052D01*
X8679074Y13573702D01*
X8638515Y13588830D01*
X8638512Y13588831D01*
X8578335Y13595300D01*
X8578332Y13595300D01*
X7931668Y13595300D01*
X7931664Y13595300D01*
X7871487Y13588831D01*
X7871484Y13588830D01*
X7769928Y13550951D01*
X7735345Y13538052D01*
X7735344Y13538052D01*
X7735343Y13538051D01*
X7735341Y13538050D01*
X7643170Y13469050D01*
X7598104Y13454050D01*
X7276871Y13454050D01*
X7228533Y13471643D01*
X7223707Y13476066D01*
X7197913Y13501860D01*
X7197912Y13501861D01*
X7197911Y13501862D01*
X7059887Y13581550D01*
X7036188Y13587900D01*
X6905939Y13622800D01*
X6746561Y13622800D01*
X6592613Y13581550D01*
X6592611Y13581550D01*
X6454586Y13501861D01*
X6341889Y13389164D01*
X6262200Y13251139D01*
X6262200Y13251137D01*
X6220950Y13097189D01*
X4906827Y13097189D01*
X3650624Y14353392D01*
X10612000Y14353392D01*
X10612000Y14221608D01*
X10627576Y14163477D01*
X10646108Y14094312D01*
X10711999Y13980186D01*
X10805185Y13887000D01*
X10919311Y13821109D01*
X10919313Y13821109D01*
X10919314Y13821108D01*
X11046608Y13787000D01*
X11046611Y13787000D01*
X11178389Y13787000D01*
X11178392Y13787000D01*
X11305686Y13821108D01*
X11333538Y13837188D01*
X11419814Y13887000D01*
X11513000Y13980186D01*
X11558107Y14058313D01*
X11597512Y14091378D01*
X11648952Y14091378D01*
X11688357Y14058313D01*
X11697290Y14007655D01*
X11695872Y14001261D01*
X11654207Y13845764D01*
X11623400Y13611761D01*
X11623400Y13375739D01*
X11654207Y13141736D01*
X11715146Y12914309D01*
X11715295Y12913755D01*
X11715295Y12913754D01*
X11805616Y12695700D01*
X11923628Y12491298D01*
X12067303Y12304057D01*
X12067315Y12304043D01*
X12234192Y12137166D01*
X12234206Y12137154D01*
X12419136Y11995252D01*
X12421450Y11993477D01*
X12625851Y11875466D01*
X12843907Y11785144D01*
X13071886Y11724057D01*
X13305889Y11693250D01*
X13305892Y11693250D01*
X13541908Y11693250D01*
X13541911Y11693250D01*
X13775914Y11724057D01*
X14003893Y11785144D01*
X14221949Y11875466D01*
X14426350Y11993477D01*
X14613599Y12137158D01*
X14780492Y12304051D01*
X14924173Y12491300D01*
X15042184Y12695701D01*
X15132506Y12913757D01*
X15193593Y13141736D01*
X15224400Y13375739D01*
X15224400Y13611761D01*
X15193593Y13845764D01*
X15132506Y14073743D01*
X15042184Y14291799D01*
X14924173Y14496200D01*
X14868332Y14568973D01*
X14780496Y14683444D01*
X14780484Y14683458D01*
X14613607Y14850335D01*
X14613593Y14850347D01*
X14426352Y14994022D01*
X14221950Y15112034D01*
X14003896Y15202355D01*
X14003894Y15202356D01*
X14003893Y15202356D01*
X13775914Y15263443D01*
X13541911Y15294250D01*
X13305889Y15294250D01*
X13071886Y15263443D01*
X13071882Y15263442D01*
X13071881Y15263442D01*
X12927347Y15224714D01*
X12843907Y15202356D01*
X12843905Y15202356D01*
X12843904Y15202355D01*
X12843903Y15202355D01*
X12625849Y15112034D01*
X12421447Y14994022D01*
X12234206Y14850347D01*
X12234192Y14850335D01*
X12067315Y14683458D01*
X12067303Y14683444D01*
X11923628Y14496203D01*
X11805616Y14291800D01*
X11752463Y14163477D01*
X11717710Y14125552D01*
X11666711Y14118838D01*
X11623327Y14146476D01*
X11607859Y14195535D01*
X11610350Y14211719D01*
X11613000Y14221609D01*
X11613000Y14353390D01*
X11613000Y14353392D01*
X11578892Y14480686D01*
X11578891Y14480687D01*
X11578891Y14480689D01*
X11513000Y14594815D01*
X11419814Y14688001D01*
X11305688Y14753892D01*
X11254768Y14767536D01*
X11178392Y14788000D01*
X11046608Y14788000D01*
X10982961Y14770946D01*
X10919311Y14753892D01*
X10805185Y14688001D01*
X10711999Y14594815D01*
X10646108Y14480689D01*
X10629931Y14420312D01*
X10612000Y14353392D01*
X3650624Y14353392D01*
X3435043Y14568973D01*
X3435037Y14568977D01*
X3336463Y14625889D01*
X3299812Y14635710D01*
X3226514Y14655350D01*
X3226513Y14655350D01*
X3226512Y14655350D01*
X2534075Y14655350D01*
X2485737Y14672943D01*
X2467071Y14696410D01*
X2423804Y14781327D01*
X2371609Y14853166D01*
X2308609Y14939878D01*
X2308607Y14939880D01*
X2308600Y14939888D01*
X2170037Y15078451D01*
X2170029Y15078458D01*
X2011476Y15193654D01*
X2011477Y15193654D01*
X2011475Y15193655D01*
X1836852Y15282629D01*
X1836845Y15282632D01*
X1836841Y15282633D01*
X1650466Y15343190D01*
X1650454Y15343193D01*
X1456893Y15373850D01*
X1456891Y15373850D01*
X1260909Y15373850D01*
X1260906Y15373850D01*
X1067345Y15343193D01*
X1067333Y15343190D01*
X880958Y15282633D01*
X880950Y15282630D01*
X880948Y15282629D01*
X880944Y15282628D01*
X880944Y15282627D01*
X706323Y15193654D01*
X547770Y15078458D01*
X547762Y15078451D01*
X409199Y14939888D01*
X409192Y14939880D01*
X293996Y14781327D01*
X244304Y14683799D01*
X206683Y14648717D01*
X155314Y14646025D01*
X114232Y14676982D01*
X102100Y14717939D01*
X102100Y15697700D01*
X119693Y15746038D01*
X164242Y15771758D01*
X177300Y15772900D01*
X15697700Y15772900D01*
X15746038Y15755307D01*
G37*
%TD.AperFunction*%
%TA.AperFunction,Conductor*%
G36*
X3007725Y13773157D02*
G01*
X3012561Y13768724D01*
X7160112Y9621173D01*
X7181852Y9574553D01*
X7168538Y9524866D01*
X7126401Y9495361D01*
X7078162Y9498523D01*
X7068862Y9502375D01*
X6955498Y9517300D01*
X6844900Y9517300D01*
X6844900Y8787700D01*
X6827307Y8739362D01*
X6782758Y8713642D01*
X6769700Y8712500D01*
X6667500Y8712500D01*
X6667500Y8610300D01*
X6649907Y8561962D01*
X6605358Y8536242D01*
X6592300Y8535100D01*
X5837701Y8535100D01*
X5837701Y8449503D01*
X5852624Y8336141D01*
X5911047Y8195096D01*
X6003981Y8073982D01*
X6125097Y7981046D01*
X6131678Y7978320D01*
X6169605Y7943569D01*
X6176320Y7892569D01*
X6148682Y7849185D01*
X6148341Y7848925D01*
X6038997Y7766006D01*
X6032611Y7757585D01*
X5989383Y7729703D01*
X5953232Y7730390D01*
X5909111Y7742212D01*
X5883589Y7749050D01*
X5724211Y7749050D01*
X5570263Y7707800D01*
X5570261Y7707800D01*
X5432236Y7628111D01*
X5319539Y7515414D01*
X5239850Y7377389D01*
X5239850Y7377387D01*
X5198600Y7223439D01*
X5198600Y7064061D01*
X5227238Y6957183D01*
X5239850Y6910114D01*
X5239850Y6910112D01*
X5319539Y6772087D01*
X5432236Y6659390D01*
X5471355Y6636805D01*
X5570263Y6579700D01*
X5724211Y6538450D01*
X5724214Y6538450D01*
X5883586Y6538450D01*
X5883589Y6538450D01*
X5982878Y6565055D01*
X6034120Y6560571D01*
X6047778Y6552336D01*
X6155146Y6470915D01*
X6155149Y6470914D01*
X6155151Y6470912D01*
X6290763Y6417434D01*
X6375982Y6407200D01*
X6959018Y6407200D01*
X7044237Y6417434D01*
X7179849Y6470912D01*
X7296004Y6558996D01*
X7384088Y6675151D01*
X7391260Y6693337D01*
X7395088Y6697662D01*
X7396092Y6703350D01*
X7411782Y6716517D01*
X7425360Y6731851D01*
X7432094Y6733560D01*
X7435497Y6736415D01*
X7461217Y6740950D01*
X7561901Y6740950D01*
X7610239Y6723357D01*
X7635959Y6678808D01*
X7636809Y6669088D01*
X7636975Y6669097D01*
X7637099Y6666939D01*
X7640062Y6641389D01*
X7640063Y6641386D01*
X7686164Y6536979D01*
X7686166Y6536975D01*
X7686167Y6536974D01*
X7686169Y6536971D01*
X7766870Y6456270D01*
X7766873Y6456268D01*
X7766875Y6456266D01*
X7871291Y6410162D01*
X7896821Y6407200D01*
X8716169Y6407201D01*
X8764507Y6389608D01*
X8790227Y6345059D01*
X8781294Y6294401D01*
X8769346Y6278831D01*
X8487842Y5997326D01*
X8441223Y5975586D01*
X8434669Y5975300D01*
X7931664Y5975300D01*
X7871487Y5968831D01*
X7871484Y5968830D01*
X7735344Y5918052D01*
X7628341Y5837949D01*
X7583275Y5822950D01*
X5332081Y5822950D01*
X5283743Y5840543D01*
X5278907Y5844976D01*
X2555248Y8568635D01*
X2533508Y8615255D01*
X2536902Y8645045D01*
X2573341Y8757188D01*
X2604000Y8950759D01*
X2604000Y8975499D01*
X5837700Y8975499D01*
X5837700Y8889900D01*
X6490100Y8889900D01*
X6490100Y9517300D01*
X6379501Y9517300D01*
X6266140Y9502376D01*
X6125095Y9443953D01*
X6003981Y9351019D01*
X5911047Y9229905D01*
X5852624Y9088860D01*
X5837700Y8975499D01*
X2604000Y8975499D01*
X2604000Y9146741D01*
X2573341Y9340312D01*
X2512779Y9526702D01*
X2423805Y9701325D01*
X2308609Y9859878D01*
X2308607Y9859880D01*
X2308600Y9859888D01*
X2170037Y9998451D01*
X2170029Y9998458D01*
X2115484Y10038088D01*
X2011475Y10113655D01*
X1836852Y10202629D01*
X1836845Y10202632D01*
X1836841Y10202633D01*
X1779675Y10221207D01*
X1739140Y10252876D01*
X1728445Y10303192D01*
X1752594Y10348611D01*
X1779675Y10364245D01*
X1855853Y10388997D01*
X2037419Y10481510D01*
X2202276Y10601287D01*
X2202284Y10601294D01*
X2346356Y10745366D01*
X2346363Y10745374D01*
X2466140Y10910231D01*
X2558650Y11091792D01*
X2621623Y11285604D01*
X2621623Y11285605D01*
X2641540Y11411350D01*
X1837287Y11411350D01*
X1866900Y11521870D01*
X1866900Y11655630D01*
X1837287Y11766150D01*
X2641540Y11766150D01*
X2621623Y11891896D01*
X2621623Y11891897D01*
X2558650Y12085709D01*
X2466140Y12267270D01*
X2346363Y12432127D01*
X2346356Y12432135D01*
X2202284Y12576207D01*
X2202276Y12576214D01*
X2037419Y12695991D01*
X1855855Y12788503D01*
X1779674Y12813256D01*
X1739139Y12844926D01*
X1728445Y12895242D01*
X1752595Y12940660D01*
X1779669Y12956292D01*
X1836852Y12974871D01*
X2011475Y13063845D01*
X2170028Y13179041D01*
X2308609Y13317622D01*
X2423805Y13476175D01*
X2512779Y13650798D01*
X2541369Y13738788D01*
X2573038Y13779323D01*
X2612888Y13790750D01*
X2959387Y13790750D01*
X3007725Y13773157D01*
G37*
%TD.AperFunction*%
%TD*%
M02*
